<svg xmlns="http://www.w3.org/2000/svg" xmlns:xlink="http://www.w3.org/1999/xlink" viewBox="0 0 375 375" width="375px" height="375px">
  <defs>
    <style>
      .cls-1 {
        fill: none;
      }

      .cls-2 {
        clip-path: url(#clip-path);
      }

      .cls-3 {
        fill: #e5e5df;
      }

      .cls-4 {
        fill: #cfcfc6;
      }

      .cls-5 {
        fill: #acbd40;
      }

      .cls-6 {
        fill: #a3c68d;
      }

      .cls-7 {
        fill: #69ac4e;
      }

      .cls-8 {
        fill: #7a7c76;
      }

      .cls-9 {
        fill: #231f20;
      }

      .cls-10 {
        fill: #e7d993;
      }

      .cls-11 {
        fill: #fff;
      }

      .cls-12 {
        clip-path: url(#clip-path-27);
      }

      .cls-13 {
        fill: #ffdf1b;
        fill-rule: evenodd;
      }
    </style>
    <clipPath id="clip-path">
      <rect class="cls-1" width="375" height="375"/>
    </clipPath>
    <clipPath id="clip-path-27">
      <rect class="cls-1" x="169.18" y="163.64" width="42.61" height="42.61"/>
    </clipPath>
  </defs>
  <title>Food2u location map</title>
  <g class="cls-2">
    <path class="cls-3" d="M24.37,0l2.22,10.4s-5.08,1.44-6.65,1.7c-2,.34-2.3,4,.94,3.24s6.48-1.7,6.48-1.7l5.79,13.21,8.7,19.51,1.27,6.14L23,57.78l-4.09-8.35-10.31,1L1.36,25.65,0,25.57S-.34,0,0,0Z"/>
    <path class="cls-4" d="M22.85,58.14l-4.11-8.39-10.35,1L1.13,25.94-.3,25.85v-.28C-.64.22-.34-.09-.22-.21L-.13-.3H24.62l2.32,10.91-.27.08c-.2.06-5.11,1.45-6.68,1.71a1.51,1.51,0,0,0-1.17,1A1.31,1.31,0,0,0,19,14.76a1.84,1.84,0,0,0,1.81.29c3.2-.76,6.43-1.69,6.46-1.7l.26-.08,5.9,13.46L42.14,46.3l1.34,6.42Zm-3.75-9,4.07,8.32,19.6-5.15-1.21-5.82L32.88,27,27.19,14c-.83.23-3.55,1-6.24,1.63a2.27,2.27,0,0,1-2.39-.47,1.91,1.91,0,0,1-.31-1.93,2.1,2.1,0,0,1,1.64-1.42c1.33-.23,5.28-1.32,6.35-1.63L24.13.3H.24C.07,2.18.17,15.92.3,25.29l1.29.08L8.83,50.13Z"/>
  </g>
  <polygon class="cls-3" points="19.77 58.72 11.85 61.19 9.38 53.69 17.05 52.84 19.77 58.72"/>
  <path class="cls-4" d="M11.65,61.57,9,53.43l8.26-.91,3,6.39ZM9.78,54,12,60.82l7.32-2.28-2.5-5.38Z"/>
  <polygon class="cls-3" points="0 64.77 8.52 62.05 0 30.51 0 64.77"/>
  <g class="cls-2">
    <path class="cls-4" d="M-.3,65.18V30.51l.59-.08,8.6,31.81Zm.6-32.4V64.36l7.86-2.51Z"/>
  </g>
  <polygon class="cls-3" points="76.19 0 114.97 36.65 119.23 32.9 108.67 0 76.19 0"/>
  <g class="cls-2">
    <path class="cls-4" d="M115,37.05l-.19-.18L75.44-.3h33.44L119.58,33ZM77,.3l38,35.94,3.91-3.44L108.45.3Z"/>
  </g>
  <polygon class="cls-3" points="114.46 0 122.47 31.36 149.57 23.95 143.61 1.79 143.69 0 114.46 0"/>
  <g class="cls-2">
    <path class="cls-4" d="M122.26,31.73l-8.19-32H144l-.1,2.06,6,22.4ZM114.85.3,122.69,31l26.52-7.25-5.9-21.92L143.38.3Z"/>
  </g>
  <polygon class="cls-3" points="147.19 0 147.02 1.45 152.98 23.01 173.52 17.64 168.58 0 147.19 0"/>
  <g class="cls-2">
    <path class="cls-4" d="M152.77,23.38,146.71,1.47l.21-1.77h21.89l5.08,18.16Zm-5.45-22,5.87,21.23,20-5.22L168.35.3h-20.9Z"/>
    <path class="cls-3" d="M241.53,160.48a19.2,19.2,0,0,1-1.87,5.88,32.06,32.06,0,0,1-3.84,4.86l-14.31-12-3.93-6,10.06,5.8Z"/>
    <path class="cls-4" d="M235.84,171.63l-14.59-12.26-3.92-6.05.41-.43,10,5.77,14.14,1.56,0,.3a19.13,19.13,0,0,1-1.91,6,33,33,0,0,1-3.88,4.91ZM221.73,159l14.07,11.81a31.67,31.67,0,0,0,3.6-4.6,18.3,18.3,0,0,0,1.79-5.46l-13.7-1.54-9-5.17Z"/>
    <path class="cls-3" d="M245.45,168.92c-.36-.1-.85,1.36-.85,1.36v4.78l-5.11,8.69s2.69,2.59,2.79,3.24.11,3.24.11,3.24L258.07,219l10.4-3-2.39-11-4.35,1.62-1.79.25s1.79,3.84,2.3,5.11-2,3.67-3.15,1.11-3.66-7.92-3.49-7.92-.43-2.3,1.87-1.88,2.56.26,3,.17,4.52-2.13,4.78-2S259,172.67,259,172.67l-13.56-3.75"/>
    <path class="cls-4" d="M257.92,219.39l-.12-.21L242.09,190.3v-.07s0-2.58-.1-3.2a15.86,15.86,0,0,0-2.71-3.06l-.17-.17L244.3,175l0-4.78c.38-1.15.79-1.68,1.21-1.56h0l13.56,3.75.17.05,0,.17c6.46,28.81,6.31,28.94,6.13,29.1l-.13.12-.11,0c-.32.08-1.72.72-2.65,1.16a18.54,18.54,0,0,1-2,.88l-.12,0c-.4.1-.85.2-3-.19a1.36,1.36,0,0,0-1.13.14,1.52,1.52,0,0,0-.35,1.17,1.82,1.82,0,0,1,0,.32c.14.46,1.07,2.49,1.83,4.14.6,1.31,1.21,2.66,1.63,3.61s.88,1.13,1.53.86,1.28-1.21,1.06-1.73c-.5-1.26-2.27-5.06-2.29-5.1l-.17-.37,2.16-.31,4.64-1.73,2.52,11.61Zm-15.23-29.24,15.53,28.53,9.89-2.84-2.25-10.38L261.78,207l-1.39.2c.46,1,1.71,3.71,2.13,4.76a2.24,2.24,0,0,1-1.39,2.52c-1,.4-1.82,0-2.32-1.18-.41-1-1-2.29-1.62-3.6-2-4.33-2-4.39-1.86-4.6a.37.37,0,0,0,0-.11,2,2,0,0,1,.57-1.63,1.9,1.9,0,0,1,1.62-.27c2,.37,2.38.28,2.73.2l.14,0c.16,0,1.12-.48,1.89-.84,1.54-.71,2.25-1,2.62-1.15-.33-2.1-3.78-17.73-6.16-28.33l-13.31-3.68a4.08,4.08,0,0,0-.54,1.1v4.81l-5,8.56c.79.76,2.61,2.6,2.71,3.24S242.69,189.71,242.69,190.15Zm12.91,14.78h0Z"/>
    <path class="cls-3" d="M259.94,168.75l-13.29-3.41s1.28-4.52,1.62-6.05a8.23,8.23,0,0,0-.6-3.84s3.07-14.74,3-16.7-.42-22.67-.42-22.67l3.24-9.21s6,11.43,8,12.62,8.61,5.79,8.86,5.79,5.88.6,5.88.6L272,148.29s-5.28,7.33-6,8.61-6,11.85-6,11.85"/>
    <path class="cls-4" d="M260.11,169.1l-13.84-3.54.09-.3s1.28-4.53,1.61-6a7.85,7.85,0,0,0-.58-3.65l0-.09,0-.09c0-.14,3.06-14.73,3-16.63s-.42-22.47-.42-22.68V116l3.47-9.86.32.61c1.65,3.16,6.28,11.56,7.9,12.5,1.05.61,3.27,2.11,5.23,3.43,1.52,1,3.23,2.18,3.54,2.33.6,0,5,.5,5.85.59l.33,0-4.38,22.85c-.05.07-5.28,7.33-6,8.59s-5.91,11.72-6,11.82Zm-13.09-4,12.76,3.27c.77-1.56,5.16-10.46,5.87-11.65s5.51-7.85,6-8.58l4.19-22c-2.23-.23-5.32-.55-5.53-.56s-.34-.08-3.82-2.42c-1.95-1.32-4.16-2.81-5.19-3.41-1.84-1.08-6.53-9.71-7.81-12.13l-3,8.51c0,1.18.34,20.72.42,22.61s-2.69,15.35-3,16.69a8.17,8.17,0,0,1,.58,3.92C248.27,160.67,247.31,164.09,247,165.13Z"/>
    <path class="cls-3" d="M255.43,102.19s5.71-14.75,8.86-20,12.36-22.93,12.36-22.93L301,32.39l5.29-11.51,2.21.34-.08,4.18-1.88,4.26-4.77,3.24s-5.2,5.79-7.59,8.43.35,4.78,2.65,2.05,7.07-8.18,7.07-8.18l-6.39,12.87-6,32.64s14,21.39,17.13,24a25.16,25.16,0,0,1,4.26,4.27l.51,2A41.1,41.1,0,0,1,307,111a72.69,72.69,0,0,1-9.63-3.24c-1.62-.86-10.91-5.29-13.13-6.14a5.34,5.34,0,0,0-6.65,3.49c-.59,1.2-1.87,5.37-1.87,5.37l.6,10.91s-5.46-.17-7.16-1.28a83.52,83.52,0,0,1-6.56-5.71Z"/>
    <path class="cls-4" d="M276.62,121.67h-.32c-.23,0-5.56-.18-7.32-1.32a85.69,85.69,0,0,1-6.6-5.75l-.05-.06-7.24-12.32.06-.13c0-.15,5.75-14.83,8.88-20.08s12.26-22.73,12.35-22.91l0-.06,24.35-26.81,5.36-11.67,2.7.41-.12,4.56-1.91,4.34L302,33.13l-7.56,8.41a2.35,2.35,0,0,0-.79,2.15,1,1,0,0,0,.75.64,2.59,2.59,0,0,0,2.23-1.14c2.27-2.7,7-8.14,7.07-8.19l.5.33-6.37,12.83-6,32.49c1,1.59,14,21.37,17,23.86a25,25,0,0,1,4.32,4.33l0,.09.6,2.4-.36,0a41.18,41.18,0,0,1-6.47-.09,70.67,70.67,0,0,1-9.71-3.27c-1.56-.82-10.84-5.25-13.1-6.12a4.63,4.63,0,0,0-3.57.26,5.06,5.06,0,0,0-2.68,3.05c-.56,1.12-1.71,4.83-1.86,5.31Zm-13.8-7.48a85.59,85.59,0,0,0,6.49,5.64c1.38.9,5.49,1.16,6.68,1.22l-.58-10.63v0a56.3,56.3,0,0,1,1.9-5.42,5.64,5.64,0,0,1,3-3.37,5.29,5.29,0,0,1,4-.27c2.27.87,11.6,5.33,13.16,6.15a69.19,69.19,0,0,0,9.55,3.21,36.13,36.13,0,0,0,5.95.1l-.41-1.64a26,26,0,0,0-4.18-4.16c-3.15-2.64-16.61-23.22-17.18-24.1l-.07-.1,0-.12L297.24,48l0,0,5.35-10.78c-1.6,1.84-4.08,4.7-5.53,6.42a3.13,3.13,0,0,1-2.8,1.35,1.52,1.52,0,0,1-1.21-1,2.89,2.89,0,0,1,.91-2.75c2.39-2.64,7.59-8.43,7.59-8.43l.05-.05,4.7-3.19,1.82-4.13.08-3.85-1.73-.27-5.24,11.38L276.9,59.41c-.46.88-9.3,17.78-12.35,22.9-2.95,4.94-8.21,18.35-8.79,19.85Z"/>
    <path class="cls-3" d="M266.76-1.36V1.53l2.39,2.39a16,16,0,0,0,3.24,0c2-.17,4.43-3.92,4.43-3.92l-.68-1.71Z"/>
    <path class="cls-4" d="M270.63,4.3a12.71,12.71,0,0,1-1.52-.08l-.1,0-2.55-2.54V-1.65L276.34-2l.81,2-.08.13c-.1.16-2.49,3.88-4.66,4.06C271.72,4.28,271.12,4.3,270.63,4.3Zm-1.34-.67a16,16,0,0,0,3.07,0c1.5-.12,3.4-2.57,4.12-3.65l-.54-1.37-8.88.33V1.41Z"/>
  </g>
  <polygon class="cls-3" points="281.59 0 292.5 11.08 296.42 11.93 298.99 0 281.59 0"/>
  <g class="cls-2">
    <path class="cls-4" d="M296.65,12.29l-4.3-.94L281.3.13l-.2-2.83,18.59.88Zm-4-1.49,3.54.77L299-1.25l-17.21-.82.14,1.94Z"/>
    <path class="cls-3" d="M275.8,148.12c.34.17,17.55,14.66,17.55,14.66l7.5-25.74L300,121.36l-5.45-10.91s-8.87-4.6-10.23-5.11a2.62,2.62,0,0,0-3.58,1.36,28.26,28.26,0,0,1-1.88,3.92l1.54,14Z"/>
    <path class="cls-4" d="M293.51,163.31l-.35-.3c-4.71-4-17-14.31-17.52-14.63l-.2-.1.06-.21,4.59-23.48-1.54-14,.05-.08a27.76,27.76,0,0,0,1.85-3.87,2.52,2.52,0,0,1,1.32-1.5,3.42,3.42,0,0,1,2.65,0c1.37.51,9.9,4.94,10.26,5.13l.09,0,0,.09,5.49,11,.86,15.73,0,0ZM276.13,148c1.65,1.29,12.93,10.78,17.06,14.26L300.55,137l-.85-15.57-5.38-10.76c-.92-.48-8.85-4.59-10.11-5.06a2.83,2.83,0,0,0-2.18,0,1.89,1.89,0,0,0-1,1.15,27.6,27.6,0,0,1-1.85,3.89l1.53,13.92Z"/>
    <path class="cls-3" d="M100.57,38.52s-8.87,6.31-8.35,6.31,9.37,32.73,9.37,32.73l1.53,1.7,12.79.68,16.7-10.22s-31.7-31.2-32-31.2"/>
    <path class="cls-4" d="M116,80.25h-.1L103,79.55l-1.66-1.85,0-.07C97.92,65.15,92.71,46.35,92,45.07a.28.28,0,0,1-.12-.16c-.08-.26-.16-.49,8.48-6.63l.08-.06h.1c.16,0,.46,0,32.25,31.28l.28.27ZM103.27,79l12.56.67,16.3-10C121.7,59.4,102.52,40.59,100.56,38.9c-2.88,2.05-7.27,5.24-8,6C93,45.73,94,49,97.38,61.11c2.15,7.7,4.26,15.48,4.48,16.3Z"/>
  </g>
  <g class="cls-2">
    <path class="cls-3" d="M133.81,71.76l-16.37,9.72s-.68,1.53-1.36,1.7-14.15-.68-14.15-.68l-3.24-3.41-9.54-32.9L75.34,50.11l3.24,11.42a5.28,5.28,0,0,1,0,2.39c-.34.85-1,2.22-1,2.22a14,14,0,0,0,.34,3.06c.34,1.2-2.39,3.07-3.07.86a14.81,14.81,0,0,1-.68-3.92s1.53-2.73,1.36-3.58S72.1,51,72.1,51s-7.5,1.87-7.16,1.87S74,84.72,75,88.29s-2.56,3.41-3.24,1S61.7,53.69,61.7,53.69L36.65,60.85S43.12,86.42,44,89.49s-2.22,2.9-2.9.85-7.84-28.47-7.84-28.47l-8.18,2.39s4.43,18.07,5.28,21.65-2.22,2.9-2.9.68-5.62-21.65-5.62-21.65L1.7,70.74,7.5,96.65a6.71,6.71,0,0,0,1.7.68c1.54.51.17,3.24-1.7,2.73a4.58,4.58,0,0,1-2.39-1.2L-1.53,71.42-1,152,9.2,145.4l-1.53-3.75L7,128a52.77,52.77,0,0,1,4.77-4.09c2.9-2.22,3.58,1.19,2.05,2.56s-3.41,2.72-3.41,2.72l.17,11.42s1.53,3.24,1.87,3.24,9.89-6.3,9.89-6.3l5.45-1.37,16.54-2.55-1-16.2s-.86-2.72-1-3.07a2.89,2.89,0,0,0-2.89-1.53c-1.88.17-16,1.19-17.9,1.36s-3.07-2.72,0-3.06,17.9-1.71,17.9-1.71,3.74.51,4.6,1.71a27.94,27.94,0,0,1,2,4.26l1.37,17.9s3.41.34,6.81.51,2.73,3.58,0,3.58-7-.52-7-.52-17.73,2.73-18.75,2.9a51,51,0,0,0-4.95,1.71L-1.19,156.14l19.6,47,.17,1.71s27.1-4.61,29.15-4.78S72.44,197,72.44,197s-.85-10.9-1-14.48,2.9-2.9,3.07-.34S76,196.7,76,196.7l18.24-.85L95.8,172l-2.22-53.7S75.85,119.83,73.3,120s-2.73-2.9-.35-3.07,20.63-2.21,20.63-2.21.17-3.41.17-4.78.51-2,2.56-2.21,46-4.61,46-4.61,2.22-.51,3.24.86a16.79,16.79,0,0,0,2.21,2.38l19.78-1.53Z"/>
    <path class="cls-4" d="M18.31,205.24l-.2-2L-1.57,156l24.94-14.79a46.65,46.65,0,0,1,5.05-1.74c1-.17,18.57-2.88,18.75-2.9h.08s4.28.51,7,.51a1.82,1.82,0,0,0,2-1.55c0-.81-.77-1.37-2-1.43-3.38-.17-6.8-.51-6.83-.52l-.25,0-1.38-18.1a27.71,27.71,0,0,0-2-4.16c-.63-.88-3.33-1.43-4.36-1.58-.8.08-14.9,1.38-17.86,1.7-1.07.12-1.68.6-1.61,1.27a1.44,1.44,0,0,0,1.55,1.2l9-.68c3.93-.29,8-.59,8.92-.68a3.2,3.2,0,0,1,3.19,1.7c.18.35,1,2.83,1,3.11l0,.07,1,16.47-16.81,2.6-5.38,1.35c-9.58,6.32-9.9,6.32-10,6.32s-.53,0-2.14-3.41l0-.12-.18-11.58.13-.09s1.88-1.37,3.39-2.71a2,2,0,0,0,.43-2.49c-.39-.47-1.15-.32-2.1.4a54.48,54.48,0,0,0-4.64,4L8,141.58l1.61,3.93-10.9,7.09-.52-81.18.6-.07L5.39,98.72a5,5,0,0,0,2.19,1A1.65,1.65,0,0,0,9.51,98.6a.73.73,0,0,0-.4-1,8.63,8.63,0,0,1-1.82-.75l-.06-.06L1.35,70.53l20.68-6,.08.3c.05.19,4.95,19.45,5.62,21.63.33,1.09,1.33,1.76,1.93,1.6s.67-.94.39-2.12c-.84-3.54-5.24-21.47-5.28-21.65l-.07-.28,8.75-2.55.08.3c.07.26,7.16,26.43,7.83,28.45a1.71,1.71,0,0,0,1.87,1.25c.57-.18.74-.9.46-1.93-.85-3-7.27-28.39-7.33-28.64l-.08-.29,25.63-7.32.08.29c.1.33,9.39,33.27,10.06,35.63a1.86,1.86,0,0,0,2.09,1.47c.72-.2.93-1.07.57-2.33-.25-.87-.94-3.38-1.85-6.69-2.43-8.77-7.39-26.74-8.1-28.55h-.08l-.05-.27c0-.34,0-.34,7.4-2.2l.28-.07.08.28c.13.44,3.24,10.76,3.42,11.62s-1,3.11-1.36,3.71A15.09,15.09,0,0,0,75.12,70c.26.86.83.89,1.26.76.72-.22,1.36-1,1.23-1.44a14,14,0,0,1-.35-3.15v-.08l0-.06s.68-1.36,1-2.19a5,5,0,0,0,0-2.21L75,49.91l14.38-4.09L99,78.94l3.11,3.27c5.34.33,13.38.79,13.94.68.37-.09.9-1,1.16-1.54l0-.08.08,0,16.56-9.84,34.39,33.7-20.56,1.59-.09-.08a16.87,16.87,0,0,1-2.26-2.43c-.89-1.19-2.91-.75-2.93-.74-.48,0-44,4.44-46.07,4.61s-2.28.74-2.28,1.91c0,1.36-.17,4.76-.17,4.79V115l-.26,0c-.18,0-18.27,2-20.63,2.22-1,.07-1.45.74-1.41,1.32s.59,1.23,1.71,1.15c2.52-.17,20.1-1.69,20.27-1.7l.32,0,2.23,54-1.56,24.16L75.76,197l0-.28c0-.12-1.36-12-1.53-14.5-.08-1.16-.83-1.9-1.47-1.86s-1.07.62-1,2.16c.17,3.54,1,14.37,1,14.48l0,.29-.29,0c-.92.12-22.7,2.9-24.73,3.07s-28.85,4.73-29.12,4.77Zm-19.13-49L18.7,203.11l.15,1.43C22,204,45.76,200,47.7,199.81s21.79-2.69,24.42-3c-.13-1.74-.85-11-1-14.21-.09-2,.75-2.74,1.56-2.79a2.33,2.33,0,0,1,2.11,2.42c.15,2.3,1.29,12.38,1.5,14.19L94,195.56,95.49,172l-2.2-53.35c-2.39.21-17.63,1.52-20,1.68A2,2,0,0,1,71,118.59a1.9,1.9,0,0,1,2-2c2.2-.16,18.14-1.94,20.36-2.19,0-.81.16-3.37.16-4.5,0-1.64.79-2.34,2.83-2.51s45.58-4.56,46-4.61c.06,0,2.38-.53,3.51,1a16.34,16.34,0,0,0,2.08,2.25l19-1.47L133.76,72.14l-16.08,9.55c-.19.41-.81,1.6-1.53,1.78s-12-.53-14.24-.67h-.12l-3.37-3.55,0-.07L88.94,46.56,75.71,50.32l3.16,11.13a5.47,5.47,0,0,1,0,2.58c-.3.76-.86,1.89-1,2.18a13.06,13.06,0,0,0,.33,2.91c.25.88-.68,1.9-1.64,2.19a1.54,1.54,0,0,1-2-1.17,14.62,14.62,0,0,1-.69-4v-.08l0-.07c.61-1.09,1.43-2.86,1.33-3.37-.15-.76-2.82-9.61-3.32-11.29-2.37.59-5.64,1.42-6.58,1.69.57,1.42,2.16,6.93,8.12,28.51.91,3.31,1.6,5.82,1.85,6.68.54,1.91-.15,2.84-1,3.08a2.48,2.48,0,0,1-2.84-1.89c-.64-2.24-9-32.05-10-35.34L37,61.06c.71,2.81,6.46,25.49,7.26,28.35.45,1.63-.15,2.45-.86,2.67a2.31,2.31,0,0,1-2.62-1.64C40.15,88.5,33.86,65.3,33,62.25l-7.61,2.22c.56,2.3,4.43,18.07,5.21,21.37.53,2.22-.39,2.72-.81,2.84-1,.27-2.26-.69-2.66-2-.64-2.07-4.91-18.81-5.56-21.36L2.06,71,7.77,96.46A10.71,10.71,0,0,0,9.3,97a1.29,1.29,0,0,1,.79,1.73,2.25,2.25,0,0,1-2.67,1.58A4.79,4.79,0,0,1,4.87,99l0-.11L-1.22,74l.49,77.48,9.56-6.21-1.46-3.62-.69-13.77.1-.09a50.79,50.79,0,0,1,4.8-4.12c1.75-1.34,2.63-.66,2.92-.3A2.58,2.58,0,0,1,14,126.7c-1.3,1.16-2.86,2.32-3.31,2.65l.17,11.2a22.22,22.22,0,0,0,1.61,3c.93-.48,6.19-3.91,9.68-6.21l.1-.05,5.45-1.36L44,133.38,43,117.5c-.33-1-.88-2.76-1-3a2.6,2.6,0,0,0-2.6-1.37l-8.92.68-9,.68a2,2,0,0,1-2.2-1.74c-.08-.81.44-1.73,2.14-1.92,3-.34,17.76-1.69,17.91-1.71h.07c.39.06,3.9.57,4.8,1.83a27.17,27.17,0,0,1,2.08,4.33l0,.08L47.67,133c.85.08,3.71.34,6.55.49,2,.09,2.61,1.16,2.59,2.05a2.4,2.4,0,0,1-2.61,2.13c-2.57,0-6.53-.46-7-.51-.95.14-17.72,2.72-18.7,2.89a49.23,49.23,0,0,0-4.89,1.69Z"/>
  </g>
  <polygon class="cls-3" points="0 208.64 15.13 205.61 14.7 203.48 0 171.21 0 208.64"/>
  <g class="cls-2">
    <path class="cls-4" d="M-4.37,209.82-2,167.45l.57-.1L15,203.42l.48,2.43Zm2.9-41.11-2.26,40.36,18.5-3.7-.36-1.8Z"/>
    <path class="cls-3" d="M16.62,212l3.15,17.3L8.18,231l-.51-3.16a1.59,1.59,0,0,0-3.07.85c.34,2.56.77,4.78.94,6.06.34,2.47,3.24,2.21,3-.35,1.45-.25,11.93-1.79,11.93-1.79l14.41,92.56.17,4.6L32.9,332.3-1.36,287.73l-.17-72.45Z"/>
    <path class="cls-4" d="M32.89,332.78-1.66,287.83v-.1L-1.84,215l18.7-3.42,3.26,17.9-12.19,1.8,0-.3s-.26-1.53-.52-3.15A1.24,1.24,0,0,0,5.92,227c-.29.05-1.2.29-1,1.65s.43,2.89.62,4c.13.81.25,1.5.32,2,.15,1.09.83,1.52,1.4,1.45s1.09-.63,1-1.73l0-.27.27,0c1.44-.26,11.84-1.78,11.94-1.79l.3,0,14.44,92.85.18,4.76ZM-1.06,287.62l34,44.2,1.81-2.18-.16-4.49L20.2,232.93c-1.62.23-9.44,1.38-11.36,1.7a1.88,1.88,0,0,1-1.53,2.1c-.87.11-1.87-.54-2.07-2-.07-.53-.18-1.22-.32-2-.18-1.12-.42-2.52-.62-4a1.86,1.86,0,0,1,1.53-2.32A1.83,1.83,0,0,1,8,227.77c.19,1.19.37,2.33.46,2.85l11-1.61-3-16.7-17.61,3.22Z"/>
  </g>
  <polygon class="cls-3" points="20.37 211.36 46.11 206.93 57.36 280.48 32.39 284.49 20.37 211.36"/>
  <path class="cls-4" d="M32.14,284.83,20,211.12l.3-.05,26-4.49L57.7,280.73ZM20.71,211.61l11.92,72.53L57,280.23l-11.16-73Z"/>
  <g class="cls-2">
    <path class="cls-3" d="M49.69,206.16l26.84-3.32,18.16-.77c.17,0,3.41,24,3.41,24s-6,.45-7.5.51c-2,.08-2.56,3.58.76,3.32,1.8-.14,7.33-.51,7.33-.51l3.58,20s-12.7.6-15.17.6-2.47,3.41.34,3.32,15.34-.6,15.34-.6L114,324.63l-11.68-.94s-.93.09-1.11-1.45-5-29.57-5.36-31.27-3.41-1.79-3.07.59S97.84,324,97.84,324a2.66,2.66,0,0,0,2.64,2.39c2.56.26,14.15,1,14.15,1l-29.57-.68a46.12,46.12,0,0,0-6.91.51c-2.55.51-37.07,6.39-37.07,6.39l-2.22-3L38.78,328l26.42-5.54a2.12,2.12,0,0,0,2-2.55c-.34-2.39-5.54-36.22-5.54-36.22L88,279.12c2-.34,2.22-3.75-.77-3.24s-26.08,4.18-26.08,4.18L54.8,239.91l11.42-1.7a5.45,5.45,0,0,1,3.67.85A24.61,24.61,0,0,0,73,240.77a9.86,9.86,0,0,0,2.9.17c2.64,0,2.39-3,.09-3.07a14.91,14.91,0,0,1-2.47-.26l-3.41-2.3a4.46,4.46,0,0,0-2.47-.51l-13.3,1.79Z"/>
    <path class="cls-4" d="M41,334l-2.38-3.21-.1-3.07,26.67-5.59a2.2,2.2,0,0,0,1.4-.7,1.88,1.88,0,0,0,.32-1.52c-.34-2.36-5.49-35.88-5.54-36.22l0-.29.29-.05L88,278.82a1.53,1.53,0,0,0,1.2-1.74c-.12-.74-.82-1.08-1.87-.9-2.95.5-25.85,4.14-26.08,4.17l-.3,0-6.48-40.74,11.72-1.75a5.74,5.74,0,0,1,3.87.9,22.86,22.86,0,0,0,3,1.68,11.35,11.35,0,0,0,2.77.15c1.16,0,1.59-.61,1.6-1.13a1.44,1.44,0,0,0-1.53-1.34,14.55,14.55,0,0,1-2.53-.27l-.09,0-3.41-2.3h0a4.22,4.22,0,0,0-2.27-.46l-13.29,1.79-.29,0-4.7-31,27.16-3.36,18.19-.77c.37,0,.37,0,2.06,12.28.83,6,1.64,12,1.64,12l0,.31-.32,0c-.06,0-6.07.45-7.51.51a1.37,1.37,0,0,0-1.18.77,1.32,1.32,0,0,0,0,1.33,2,2,0,0,0,1.88.62c1.79-.14,7.33-.51,7.33-.51l.27,0,3.69,20.63-.34,0c-.13,0-12.74.6-15.19.6a1.46,1.46,0,0,0-1.35.68,1.33,1.33,0,0,0,0,1.31,1.76,1.76,0,0,0,1.65.73c2.78-.08,15.22-.59,15.34-.6H103L114.3,325l-12-1s-1.19.07-1.38-1.71c-.18-1.58-5-29.59-5.37-31.26a1.38,1.38,0,0,0-1.59-1c-.67.12-1,.67-.89,1.48.34,2.36,5.07,32.17,5.12,32.47a2.35,2.35,0,0,0,2.37,2.13c2.52.25,14,1,14.14,1l0,.6-29.57-.68a46.06,46.06,0,0,0-6.84.51c-2.53.5-36.73,6.33-37.08,6.39Zm-1.79-3.41,2.05,2.76c2.71-.47,34.46-5.88,36.88-6.36a45.9,45.9,0,0,1,7-.52l16.9.39-1.51-.13a3,3,0,0,1-2.91-2.67c0-.27-4.77-30.08-5.11-32.45a1.72,1.72,0,0,1,1.38-2.15,2,2,0,0,1,2.28,1.46c.33,1.66,5.2,29.72,5.37,31.3.13,1.18.72,1.2.79,1.18l11.34.91-11.06-71.2c-1.84.07-12.52.5-15.08.58a2.37,2.37,0,0,1-2.19-1,1.89,1.89,0,0,1,0-1.91,2.05,2.05,0,0,1,1.87-1c2.21,0,12.77-.49,14.82-.58l-3.48-19.43c-1.13.08-5.5.37-7,.49a2.46,2.46,0,0,1-2.43-.89,1.92,1.92,0,0,1-.07-1.93,2,2,0,0,1,1.69-1.1c1.24,0,5.91-.4,7.18-.49-1.19-8.82-3-21.64-3.3-23.45l-17.91.76L50,206.42l4.51,29.83,13-1.75a4.75,4.75,0,0,1,2.66.55l3.38,2.28a15.58,15.58,0,0,0,2.36.24,2,2,0,0,1,2.1,2c0,.86-.71,1.72-2.2,1.72a12,12,0,0,1-3.06-.22,23.53,23.53,0,0,1-3.07-1.71,5.09,5.09,0,0,0-3.45-.8l-11.12,1.66,6.29,39.54c2.71-.43,23-3.65,25.78-4.13,1.67-.28,2.43.58,2.57,1.4a2.15,2.15,0,0,1-1.7,2.44L62,283.88c.51,3.33,5.18,33.69,5.5,35.94a2.5,2.5,0,0,1-.45,2,2.72,2.72,0,0,1-1.79.91L39.09,328.2Z"/>
    <path class="cls-3" d="M42.36,335.62l10.82,12.11,25.57-4s.85-.34.94-.94.42-2.55.51-3.49,1.45-2.73,3.92-3.07,30.94-4.86,30.94-4.86l-.26-1.79-30.94-.51a55.39,55.39,0,0,0-6.47.6c-2,.42-35,6-35,6"/>
    <path class="cls-4" d="M53.07,348.05l-11.3-12.63.54-.09c.33-.06,33-5.55,35-6a57.63,57.63,0,0,1,6.53-.6l31.21.52.34,2.33-.3.05c-.28,0-28.49,4.52-30.94,4.86-2.3.32-3.59,2-3.66,2.8-.06.67-.25,1.85-.39,2.7,0,.35-.1.63-.12.81-.11.74-1,1.13-1.13,1.17l-.06,0ZM43,335.83,53.3,347.4l25.37-4c.2-.09.67-.36.72-.69,0-.17.07-.46.13-.81.13-.85.32-2,.38-2.67.1-1.14,1.65-3,4.18-3.34,2.3-.32,27.61-4.33,30.64-4.81l-.18-1.24-30.68-.51a57.41,57.41,0,0,0-6.41.59C75.54,330.35,47.37,335.09,43,335.83Z"/>
  </g>
  <polygon class="cls-3" points="38.44 324.63 63.84 319.43 58.13 284.32 32.98 288.41 38.44 324.63"/>
  <path class="cls-4" d="M38.19,325l-5.55-36.83L58.37,284l5.81,35.7Zm-4.87-36.33,5.37,35.61,24.8-5.08-5.61-34.53Z"/>
  <g class="cls-2">
    <path class="cls-3" d="M-1.36,325.82,17.9,319.6a2.39,2.39,0,0,1,2.64,1.11c1.19,1.62,10.65,13.47,10.65,13.47l1.71-2.05-34.26-44.4Z"/>
    <path class="cls-4" d="M31.19,334.65l-.23-.29c-.1-.12-9.48-11.87-10.66-13.47a2.09,2.09,0,0,0-2.3-1l-19.66,6.35v-39.4l34.94,45.3ZM18.46,319.22a2.84,2.84,0,0,1,2.32,1.31c1.07,1.46,9,11.35,10.42,13.17l1.31-1.58L-1.06,288.61v36.8l18.86-6.09A2,2,0,0,1,18.46,319.22Z"/>
    <path class="cls-3" d="M36.9,333.75l15.43,17.47,28-4.35s1.87-.34,2-1.87a37,37,0,0,1,.77-3.84s.43-1.44,3-1.87,29.41-4.52,29.41-4.52l2,12.53S64.69,356,63.32,356.25a4.71,4.71,0,0,0-3.58,4.6c0,2-.51,2.73,2,5.46s8.78,9.8,8.78,9.8l-11.84,1.45-3.88-11.2L33.49,337.67Z"/>
    <path class="cls-4" d="M58.43,377.88,54.49,366.5,33.11,337.65l3.79-4.36L52.45,350.9l27.87-4.32s1.65-.32,1.8-1.61a35.71,35.71,0,0,1,.77-3.88c0-.08.51-1.65,3.23-2.1,2.52-.42,29.13-4.47,29.4-4.51l.3-.05L118,347.55l-.3.05c-.53.08-52.94,8.69-54.28,8.94A4.39,4.39,0,0,0,60,360.86c0,.32,0,.61,0,.88-.06,1.39-.09,2.16,1.91,4.36,2.44,2.7,8.71,9.74,8.78,9.81l.38.43ZM33.88,337.69,55,366.22l3.81,11,11-1.35c-1.41-1.58-6.31-7.06-8.4-9.37s-2.12-3.35-2.06-4.8c0-.26,0-.54,0-.86a5,5,0,0,1,3.83-4.9c1.31-.24,49.31-8.13,54-8.9l-2-11.94c-2.93.45-26.72,4.08-29.11,4.48s-2.72,1.61-2.74,1.66a36.35,36.35,0,0,0-.76,3.78c-.19,1.74-2.2,2.12-2.29,2.14l-28.21,4.37L36.9,334.21Z"/>
    <rect class="cls-4" x="48.53" y="326.73" width="0.6" height="53.59" transform="translate(-201.7 99.37) rotate(-36.72)"/>
    <rect class="cls-5" x="48.7" y="332.62" width="0.6" height="47.69" transform="translate(-203.07 99.7) rotate(-36.64)"/>
    <rect class="cls-5" x="14.91" y="284.83" width="0.6" height="53.27" transform="translate(-185.75 73.02) rotate(-37.33)"/>
  </g>
  <polygon class="cls-3" points="18.07 323.86 34.77 345.43 13.29 353.44 1.79 329.32 18.07 323.86"/>
  <path class="cls-4" d="M13.14,353.82l-.12-.25L1.37,329.14l16.8-5.63,17.09,22.05ZM2.21,329.49l11.24,23.57,20.83-7.77L18,324.22Z"/>
  <g class="cls-2">
    <path class="cls-3" d="M36.73,348.07l11.59,16.11L28.38,377s-29.49-1.19-29.23-1.27-.85-45.69-.85-45.69l13.12,27.7Z"/>
    <path class="cls-4" d="M28.46,377.35h-.09l-14.61-.61-10-.43c-4.82-.22-4.82-.22-4.86-.5l0-.25.06,0C-1,373.09-1.64,345-2,330.09l.58-.13,13,27.44,25.27-9.7,11.91,16.56Zm-29-1.86c2.24.16,19.51.87,28.87,1.25l19.6-12.65L36.62,348.43l-25.35,9.73L-1.37,331.49c.08,3.4.29,12.39.49,21.4C-.52,369.55-.46,374.17-.57,375.49Z"/>
  </g>
  <polygon class="cls-3" points="39.41 375 52.24 375 50.45 368.35 39.41 375"/>
  <g class="cls-2">
    <path class="cls-4" d="M33.77,378.71l-.18-.56,17-10.26,2.59,9.6Zm16.5-9.9L35,378l17.49-1.09Z"/>
    <rect class="cls-4" x="8.52" y="287.62" width="0.6" height="36.43" transform="translate(-186.3 70.16) rotate(-37.97)"/>
    <path class="cls-3" d="M118.3,350.28l-52.85,9.21s-3.41,1.19-1.19,3.92S74.15,376,74.49,376s27.1-1,27.1-1l20.11-3.07Z"/>
    <path class="cls-4" d="M74.49,376.32c-.27,0-.39,0-7.39-8.86-1.28-1.62-2.42-3-3.07-3.86a2.71,2.71,0,0,1-.74-2.47,3.47,3.47,0,0,1,2.07-1.93l53.18-9.27,3.51,22.25-20.41,3.12C100.51,375.34,74.83,376.32,74.49,376.32Zm-9-16.54s-1.36.51-1.64,1.52a2.18,2.18,0,0,0,.62,1.92c.66.81,1.8,2.25,3.08,3.87,2.56,3.23,6.38,8.07,7,8.63,1.71-.05,26.75-1,27-1l19.78-3-3.31-21.05-52.54,9.15Z"/>
  </g>
  <polygon class="cls-3" points="125.63 373.98 118.3 328.98 157.16 333.58 159.89 370.4 125.63 373.98"/>
  <g class="cls-2">
    <path class="cls-4" d="M125.37,374.3l-7.44-45.67,39.51,4.68,2.77,37.36-.29,0Zm-6.71-45,7.22,44.33,33.68-3.52-2.68-36.28Z"/>
    <path class="cls-3" d="M117.78,325.06l26,2.72-4.86-29.66-2.22-4.26s-1.79-9.12-2.21-11.76,2.9-3.58,3.49-.59,2.13,11.16,2.13,11.16L142.5,297l4.6,31.1L160,329.83l-3.58-28.64,2.73-5.79,5.37-.26s.11,0,1.36.6c1.71.77.34,3.75-1.53,2.73-1.19-.6-1.28-.43-1.28-.43l-1.62.17-1.53,3.66,3.58,28.56,34.68,4.68L197.56,309s-20,.51-22.08.59-2.81-3.23,0-3.32,21.74-.77,21.74-.77l-.17-13.12-34.69,1.28-2.56-5.54s-3.75.08-5.54.08-2.39-3.07,0-3.07,4.94-.08,4.94-.08l-.34-2.13a1.6,1.6,0,1,1,3.16-.51c.34,2.13.51,3.41.51,3.41l1.53,4.68,32.9-1.36-.08-6.39-15,2-1.28,1s0,.34.08,1.45c.09,1.62-2.87,2.23-3,.43a13.59,13.59,0,0,1,0-3.33,27,27,0,0,1,2.73-2.72c.25,0,16.45-2.14,16.45-2.14l-.35-10.9s-38.18,2.72-40.82,2.72-2.81-.25-4.43-1.45-5.54-4.68-5.54-4.68-1.28-1.37-4.43-1.11-32.65,2.47-32.65,2.47Z"/>
    <path class="cls-4" d="M198.46,335.46l-.35,0-34.91-4.72-3.62-28.86,1.63-3.9,1.73-.18a.56.56,0,0,1,.35,0,5.4,5.4,0,0,1,1.16.47,1.12,1.12,0,0,0,1.21,0,1.55,1.55,0,0,0,.67-1.34,1,1,0,0,0-.6-.85l-1.29-.57-5.13.25-2.61,5.55,3.62,28.94-13.48-1.79-4.63-31.28-2.39-4.38c0-.09-1.54-8.22-2.13-11.17-.27-1.35-1.09-1.7-1.72-1.58a1.65,1.65,0,0,0-1.18,2.07c.4,2.52,2.07,11,2.2,11.71l2.23,4.32,4.92,30-26.62-2.79-9.2-59.19.32,0c.3,0,29.53-2.22,32.64-2.47s4.62,1.14,4.68,1.2,3.91,3.48,5.5,4.65l.28.21c1.35,1,1.59,1.18,4,1.18,2.6,0,40.42-2.7,40.8-2.72l.31,0,.36,11.5-.27,0c-2.61.35-15.32,2-16.41,2.13a31.22,31.22,0,0,0-2.52,2.57,16.68,16.68,0,0,0,0,3.17.87.87,0,0,0,1,.81c.69,0,1.4-.51,1.36-1.2-.06-1.1-.08-1.44-.08-1.45l0-.15,1.47-1.18h.09l15.33-2,.09,7-33.41,1.38-1.61-4.9c0-.07-.18-1.35-.52-3.46a1.24,1.24,0,0,0-1.44-1.12,1.3,1.3,0,0,0-1.12,1.55l.4,2.46h-.35s-2.58.09-5,.09c-.8,0-1.27.4-1.27,1.07a1.55,1.55,0,0,0,.35,1,1.19,1.19,0,0,0,.92.43c1.77,0,5.5-.08,5.53-.08h.2l2.56,5.54L197.34,292l.18,13.72h-.29c-.19,0-19,.69-21.74.77a1.55,1.55,0,0,0-1.41.68,1.39,1.39,0,0,0,.11,1.36,1.38,1.38,0,0,0,1.28.68c2-.08,21.88-.59,22.08-.59h.3Zm-34.72-5.3,34.1,4.61-.58-25.51c-2.51.06-19.88.51-21.76.59a2,2,0,0,1-1.82-1,2,2,0,0,1-.13-2,2.11,2.11,0,0,1,1.92-1c2.59-.08,19-.67,21.44-.76l-.16-12.52-34.58,1.27-2.56-5.54c-.8,0-3.81.08-5.35.08a1.79,1.79,0,0,1-1.37-.64,2.13,2.13,0,0,1-.5-1.35,1.67,1.67,0,0,1,1.87-1.68c1.85,0,3.82,0,4.59-.07l-.28-1.79a1.92,1.92,0,0,1,1.63-2.24,1.85,1.85,0,0,1,2.11,1.63c.34,2.11.51,3.4.52,3.42l1.45,4.41,32.38-1.34-.08-5.76L182,285l-1.09.87c0,.19,0,.59.07,1.29a1.9,1.9,0,0,1-1.92,1.84,1.44,1.44,0,0,1-1.66-1.37,13.3,13.3,0,0,1,0-3.43l0-.07,0-.05c2.56-2.83,2.8-2.83,3-2.83.34,0,10.55-1.35,16.14-2.09l-.33-10.32c-3.9.28-38,2.7-40.53,2.7s-2.88-.22-4.33-1.29l-.28-.21c-1.61-1.19-5.4-4.57-5.56-4.71s-1.26-1.27-4.21-1-29.09,2.2-32.32,2.44l9,58.09,25.37,2.66-4.79-29.22-2.22-4.3c0-.09-1.8-9.15-2.22-11.77a2.28,2.28,0,0,1,1.68-2.77c1-.17,2.07.4,2.41,2.07.56,2.83,2,10.44,2.12,11.12l2.4,4.4,4.57,30.89,12.25,1.62-3.54-28.34,2.84-6,5.6-.27h0l1.41.61a1.6,1.6,0,0,1,1,1.35,2.16,2.16,0,0,1-.94,1.9,1.73,1.73,0,0,1-1.82,0,4.09,4.09,0,0,0-1-.4l-1.56.16-1.44,3.43Z"/>
    <path class="cls-3" d="M196.11,264.72l-37.84,2.72s-3.75.51-6-1.11-5.79-4.6-5.79-4.6l-1.37-12,50.71-3.16Z"/>
    <path class="cls-4" d="M156.87,267.82a8.35,8.35,0,0,1-4.75-1.24c-2.19-1.61-5.77-4.59-5.81-4.62l-.09-.07-1.41-12.46h.31l51-3.18.26,18.75-38.12,2.75A10.76,10.76,0,0,1,156.87,267.82Zm-10.08-6.24c.58.48,3.7,3.06,5.69,4.51s5.71,1.06,5.75,1.05l37.57-2.7-.24-17.56L145.48,250Z"/>
    <path class="cls-3" d="M143.1,249.89l1.36,10.91-36.65,2-4.94-24.12,24.63-1.37,1.79,11.59s.17,1.37,2.05,1.28,11.76-.25,11.76-.25"/>
    <path class="cls-4" d="M107.57,263.07l-5.07-24.72L127.76,237l1.83,11.86c0,.11.19,1.08,1.73,1,1.86-.08,11.67-.25,11.77-.26h.27l1.44,11.5Zm-4.34-24.15,4.82,23.52,36.07-1.93-1.29-10.32c-1.6,0-9.81.18-11.48.25-2.14.1-2.36-1.52-2.36-1.54l-1.75-11.31Z"/>
    <path class="cls-3" d="M127.07,233.69s-.42-6.22-.59-8.26,1.45-4.1,2.9-4.18,25.48-2.13,25.48-2.13l-2.73-20.63-54,3.24,4.77,33.16Z"/>
    <path class="cls-4" d="M102.61,235.2l-4.86-33.75,54.64-3.27,2.81,21.21-.32,0c-1,.08-24,2-25.49,2.13a2.52,2.52,0,0,0-1.61.95,4,4,0,0,0-1,2.9c.17,2,.59,8.21.59,8.27l0,.31h-.3ZM98.44,202l4.69,32.56,23.62-1.16c-.09-1.28-.43-6.2-.57-8a4.61,4.61,0,0,1,1.15-3.34,3,3,0,0,1,2-1.16c1.34-.08,22.32-1.86,25.16-2.1l-2.65-20Z"/>
    <path class="cls-6" d="M132.7,246.22l23.86-1.11-1-22.33-23.95,1.88a1.66,1.66,0,0,0-1.45,1.79c.17,1.53,2.56,19.77,2.56,19.77"/>
    <path class="cls-7" d="M132.44,246.53l0-.27c0-.18-2.39-18.26-2.56-19.78a1.93,1.93,0,0,1,1.7-2.12l24.29-1.9,1,22.94h-.3Zm22.81-23.42L131.61,225a1.34,1.34,0,0,0-1.17,1.46c.16,1.41,2.22,17.2,2.52,19.49l23.29-1.08Z"/>
    <path class="cls-3" d="M154.26,198.32l2.9,20.46s12.87-.85,14.57-.94c2.48-.12,2.82,2.9.51,3.15S159,222.1,159,222.1l1.45,22.76,35.2-2.3-1.71-47.05Z"/>
    <path class="cls-4" d="M160.12,245.18l-1.49-23.35.3,0c.11,0,11-.85,13.28-1.11.95-.1,1.33-.73,1.28-1.31s-.62-1.28-1.74-1.24c-1.68.08-14.44.93-14.57.94l-.28,0-3-21,40.26-2.86v.31l1.72,47.34-.29,0Zm-.85-22.8,1.41,22.16,34.61-2.26-1.69-46.45-39,2.77,2.82,19.86c1.89-.13,12.75-.84,14.3-.92a2.08,2.08,0,0,1,2.37,1.8,1.84,1.84,0,0,1-1.81,1.95C170.21,221.52,161,222.24,159.27,222.38Z"/>
  </g>
  <polygon class="cls-3" points="197.64 195.25 200.45 277.67 219.89 276.82 213.41 194.49 197.64 195.25"/>
  <path class="cls-4" d="M200.16,278v-.3L197.33,195l16.35-.8,6.53,82.93ZM198,195.54l2.79,81.82,18.82-.83-6.43-81.73Z"/>
  <polygon class="cls-3" points="216.82 193.98 216.9 196.36 224.57 195.77 228.07 197.73 225.51 193.04 222.78 190.91 216.82 193.98"/>
  <path class="cls-4" d="M228.83,198.5l-4.32-2.43-7.9.62-.1-2.89,6.31-3.25,3,2.35Zm-4.19-3L227.3,197l-2-3.71-2.53-2-5.62,2.9.06,1.88Z"/>
  <polygon class="cls-3" points="217.41 199.94 224.83 199.77 228.15 201.82 234.63 210.43 243.75 275.28 223.47 276.65 217.41 199.94"/>
  <path class="cls-4" d="M223.19,277l0-.3-6.08-77,7.82-.18,3.48,2.17,6.53,8.67v.07l9.16,65.18Zm-5.45-76.73,6,76.09L243.41,275l-9.07-64.46L228,202l-3.2-2Z"/>
  <polygon class="cls-3" points="221.85 175.06 214.43 188.27 197.73 188.86 196.53 154.43 203.78 148.29 221.85 175.06"/>
  <path class="cls-4" d="M197.44,189.17l-1.21-34.87,7.61-6.45.19.28L222.2,175l-7.59,13.52h-.17Zm-.6-34.6,1.18,34,16.23-.58,7.24-12.9-17.77-26.33Z"/>
  <g class="cls-2">
    <path class="cls-3" d="M202.41,146.42l-7,6.73-1.71.43-.17,10.4-94.69,7.41-.08-16.28,24.37-3.83,12.19-3.16a8.56,8.56,0,0,0,2.9-1.44c.85-.86,4.09-5,4.09-5s1.11-.17,3.83-.68,2.05-3.93-.59-3.5l-3.67.6-2.21-2.56c-.51-.6-2.56-1.36-5.12-.94s-17.3,3.58-17.3,3.58l-18.75,1.54-1.28-18.41s12.53-1.88,15.77-2.39,2.64-3.75-.51-3.24-15.68,2-15.68,2l.08-6.65,26.25-3.24S124.69,129,124.86,131s3.58,2.56,3.41-.34-1.79-23.09-1.79-23.09l16-1.11.68,9,4.35,2.39,18.49-3,4.86-6.91,13.21,15.6Z"/>
    <path class="cls-4" d="M98.56,171.72l-.08-16.86L123.11,151l12.16-3.15a8.28,8.28,0,0,0,2.76-1.37c.83-.83,4-5,4.06-5l.08-.09.11,0s1.14-.18,3.83-.68c1.19-.22,1.6-1,1.48-1.73a1.56,1.56,0,0,0-2-1.17l-3.67.59-.16,0-.11-.13-2.22-2.55c-.42-.49-2.32-1.26-4.84-.84s-17.14,3.55-17.28,3.58L98.24,140l-1.32-19,.28,0c.12,0,12.56-1.88,15.76-2.39a2.2,2.2,0,0,0,1.84-1.13,1,1,0,0,0-.16-1,2.23,2.23,0,0,0-2.09-.52c-3.13.51-15.57,2-15.7,2l-.34,0,.1-7.26,26.82-3.31,0,.32c0,.21,1.54,21.24,1.71,23.18a1.6,1.6,0,0,0,1.7,1.37c.76-.05,1.17-.66,1.11-1.67-.17-2.86-1.78-22.89-1.79-23.09l0-.3,16.63-1.15.69,9.17,4.11,2.26,18.27-3,5-7.12,13.46,15.89,18.5,23.07-7.24,7-1.56.39-.17,10.44-.28,0Zm.52-16.35.08,15.7,94.1-7.37.16-10.36,1.86-.46,6.73-6.49-18.15-22.62-13-15.3-4.7,6.69-18.73,3-4.58-2.51-.67-8.9-15.42,1.07c.2,2.53,1.61,20.12,1.77,22.8.09,1.6-.84,2.24-1.67,2.3a2.21,2.21,0,0,1-2.34-1.92c-.16-1.81-1.49-20.22-1.68-22.87L97.2,111.32l-.08,6c2-.25,12.51-1.55,15.33-2a2.76,2.76,0,0,1,2.66.73,1.6,1.6,0,0,1,.25,1.59,2.76,2.76,0,0,1-2.3,1.51c-2.94.46-13.64,2.07-15.5,2.34l1.24,17.83,18.45-1.51c.11,0,14.74-3.15,17.27-3.57,2.69-.45,4.81.35,5.4,1l2.1,2.42,3.5-.57a2.17,2.17,0,0,1,2.66,1.66,2.13,2.13,0,0,1-2,2.43c-2.21.42-3.37.61-3.73.67-.49.63-3.24,4.16-4,5a8.84,8.84,0,0,1-3,1.52l-12.2,3.16Z"/>
    <path class="cls-3" d="M98.52,142.84l.26,8.61L122,148.12l12.1-3.06a4.94,4.94,0,0,0,2.13-1.28c.86-.94,3-3.67,3-3.67l-1.79-1.79a5.53,5.53,0,0,0-3.67-.25c-2.3.51-15.77,3.41-15.77,3.41Z"/>
    <path class="cls-4" d="M98.49,151.79l-.28-9.23,19.72-1.38c.1,0,13.45-2.9,15.73-3.41a5.81,5.81,0,0,1,3.87.29l.07.05,2,2-.17.21c-.08.11-2.14,2.75-3,3.68a5.37,5.37,0,0,1-2.28,1.37L122,148.42Zm.34-8.67.24,8,22.85-3.27L134,144.76a4.68,4.68,0,0,0,2-1.18c.7-.77,2.29-2.79,2.8-3.44l-1.56-1.57a5.36,5.36,0,0,0-3.42-.21c-2.28.51-15.64,3.38-15.77,3.41Z"/>
  </g>
  <polygon class="cls-3" points="98.95 175.48 98.18 195.34 193.81 189.03 193.47 167.81 98.95 175.48"/>
  <path class="cls-4" d="M97.87,195.66l.79-20.46.26,0,94.84-7.69.35,21.82Zm1.37-19.9L98.49,195l95-6.27-.33-20.61Z"/>
  <polygon class="cls-3" points="200.63 280.06 220.06 279.03 224.66 338.69 202.33 335.8 200.63 280.06"/>
  <path class="cls-4" d="M225,339l-23-3v-.26l-1.71-56,20-1,0,.29Zm-22.37-3.51,21.71,2.82-4.55-59-18.85,1Z"/>
  <polygon class="cls-3" points="223.64 278.86 228.41 339.2 252.27 342.27 251.59 328.81 244.09 277.67 223.64 278.86"/>
  <path class="cls-4" d="M252.59,342.62l-24.46-3.15,0-.24-4.8-60.65,21-1.23,7.54,51.41Zm-23.9-3.68,23.26,3-.66-13.11L243.83,278,224,279.15Z"/>
  <g class="cls-2">
    <path class="cls-3" d="M256.36,343c.34,0,48.75,7.84,49.09,7.67s13,14.66,13,14.66l-29.15-61.19L247,220.23c-.17-.34-8.35-6.14-8.35-6.14l9,62.39,3.75,24.2s5.14-.64,7.16-1c2.73-.51,3.07,2.73.51,3.24-2,.4-7.33,1.19-7.33,1.19l3.24,22s10.06-1.54,12.1-1.88c3.07-.51,3.24,2.9.68,3.24-2.91.39-12.27,2.05-12.27,2.05Z"/>
    <path class="cls-4" d="M318.18,365.48c-4.77-5.61-12.08-14.07-12.82-14.57-1-.06-6.21-.84-36.46-5.67-6.88-1.1-12.3-2-12.56-2l-.25,0,0-.26-.87-13.73.27-.05c.09,0,9.39-1.66,12.28-2.05a1.67,1.67,0,0,0,1.43-1A1.17,1.17,0,0,0,269,325a1.9,1.9,0,0,0-1.86-.47c-2,.34-12,1.86-12.11,1.88l-.29,0-3.33-22.58.3,0c.05,0,5.31-.79,7.31-1.19,1.15-.23,1.61-1.05,1.48-1.74s-.67-1.13-1.88-.91c-2,.38-7.12,1-7.17,1l-.29,0-3.8-24.5-9.13-63.08.57.4c3.76,2.67,8.28,5.92,8.45,6.25L289.53,304l29.15,61.2Zm-12.75-15.15c.36,0,1.72,1.29,11.72,13L289,304.22l-42.27-83.86c-.27-.3-4.64-3.45-7.69-5.62L248,276.43l3.7,23.92c1.12-.15,5.14-.67,6.85-1a2,2,0,0,1,2.58,1.39,2.18,2.18,0,0,1-2,2.44c-1.74.35-5.9,1-7,1.15l3.15,21.4c1.69-.26,10-1.53,11.8-1.83a2.39,2.39,0,0,1,2.43.69,1.8,1.8,0,0,1,.25,1.79,2.25,2.25,0,0,1-1.91,1.35c-2.6.35-10.45,1.72-12,2l.82,12.95c.88.13,4,.63,12.34,2,13.3,2.12,35.56,5.68,36.43,5.68Z"/>
    <path class="cls-3" d="M256.36,347l38.36,5.8s-.34,7-.34,8.52,3.06,2.22,3.06.17-.17-8.18.34-8.18,6,.68,6,.68l9.89,11.42,4.94,10.23L257.9,376Z"/>
    <path class="cls-4" d="M257.61,376.32,256,346.69l39,5.89v.27c0,.07-.34,7-.34,8.51,0,.66.79,1.15,1.49,1.15a1.07,1.07,0,0,0,.69-.22,1,1,0,0,0,.28-.76c0-.35,0-.81,0-1.35-.05-5,0-6.66.38-7a.37.37,0,0,1,.27-.12c.52,0,5.45.62,6,.69h.11l10,11.57L319.06,376h-.48Zm-.93-28.92,1.5,28.32,59.92-.34-4.72-9.76-9.78-11.3c-2-.25-5-.61-5.68-.66a46.78,46.78,0,0,0-.19,6.51c0,.54,0,1,0,1.36a1.56,1.56,0,0,1-.48,1.21,1.63,1.63,0,0,1-1.09.37,2,2,0,0,1-2.1-1.75c0-1.37.27-6.94.33-8.26Z"/>
  </g>
  <polygon class="cls-3" points="204.12 375 254.42 375 252.61 346.36 202.33 339.71 204.12 375"/>
  <g class="cls-2">
    <path class="cls-4" d="M203.92,377,202,339.37l.36.05,50.53,6.68v.24l1.9,30Zm-1.27-36.95,1.84,36.34,49.68-.67-1.84-29.1Z"/>
    <path class="cls-3" d="M161.59,333.75,198.41,339l.34,7.33s-8,.34-10.4.34-2.55,3.07.34,3.07,10.23-.17,10.23-.17l.34,8.35s-10.06-1-12.27-1.19-2.73,2.9-.34,3.07S199.26,361,199.26,361s1,15.34.68,15.17-11.25-2.38-11.25-2.38l-24.88-3.41L163.3,361s3.77-.44,7.67-1c3.4-.51,2.38-3.24-.34-3.07-4.44.28-7.68.51-7.68.51Z"/>
    <path class="cls-4" d="M200,376.54l-.17-.08c-.38-.14-6.89-1.49-11.18-2.36l-25.11-3.44-.54-9.9.28,0s3.82-.44,7.66-1c1.22-.18,2-.7,1.9-1.33s-.92-1.22-2.18-1.14c-4.43.28-7.66.51-7.66.51l-.31,0-1.4-24.36,37.43,5.37.36,7.88h-.3c-.08,0-8,.34-10.41.34-1,0-1.51.61-1.51,1.2a1.11,1.11,0,0,0,.42.85,2.2,2.2,0,0,0,1.43.42c2.86,0,10.15-.17,10.22-.17h.3l.37,9-.35,0c-.1,0-10.08-1-12.26-1.19a1.43,1.43,0,0,0-1.36.59,1.23,1.23,0,0,0-.12,1.21,1.31,1.31,0,0,0,1.18.67c2.36.17,12.52,1.18,12.62,1.19l.25,0,0,.25c1,15.14.74,15.32.56,15.44Zm-35.89-6.41,24.64,3.38c2.32.47,9.27,1.89,11,2.31.06-1.58-.38-9.24-.73-14.52-1.59-.16-10.21-1-12.35-1.17a1.93,1.93,0,0,1-1.69-1,1.82,1.82,0,0,1,.17-1.81,2,2,0,0,1,1.9-.85c2,.15,10.15,1,11.94,1.16l-.32-7.71c-1.4,0-7.4.16-9.94.16a2.79,2.79,0,0,1-1.82-.56,1.69,1.69,0,0,1-.63-1.31,1.91,1.91,0,0,1,2.11-1.8c2.09,0,8.6-.26,10.09-.32l-.32-6.78-36.21-5.2,1.33,23c.9-.06,3.73-.26,7.37-.49,1.63-.1,2.71.77,2.81,1.68s-.51,1.7-2.41,2c-3.25.48-6.45.87-7.4,1Z"/>
  </g>
  <polygon class="cls-3" points="27.27 0 29.32 10.57 35.97 26.08 45.85 22.67 59.66 25.23 65.11 29.83 69.03 35.8 71.25 44.66 88.3 40.23 95.8 34.6 59.83 0 27.27 0"/>
  <g class="cls-2">
    <path class="cls-4" d="M71,45l-2.28-9.11L64.89,30l-5.36-4.52L45.88,23,35.8,26.45,29,10.63,26.91-.3H60L96.26,34.63l-7.89,5.89ZM45.83,22.36l14,2.59,5.57,4.71,4,6.06,2.14,8.57L88.16,40l7.17-5.38L59.71.3H27.64l2,10.18L36.13,25.7Z"/>
    <path class="cls-3" d="M68.35,45.51,66,36.82s-3.67-5.46-3.84-5.46S58.12,28,58,28s-11.84-2.13-11.84-2.13l-9,2.82,7.5,17.21s1.36,5.71,1.53,5.71,22.16-6.05,22.16-6.05"/>
    <path class="cls-4" d="M46.19,51.86c-.29,0-.4,0-1.82-5.94L36.75,28.45l9.34-2.94.07,0c3.18.58,11.49,2.09,11.82,2.13.14,0,.17,0,2.25,1.77.82.7,1.85,1.57,2,1.66h0c.24.13.86.92,4,5.56l0,.09,2.46,9-.29.08C46.4,51.86,46.25,51.86,46.19,51.86Zm-8.62-23,7.36,16.91c.56,2.3,1.19,4.8,1.43,5.49C48,50.79,60.84,47.27,68,45.3l-2.29-8.36C64.41,35,62.33,32,62,31.63a26.08,26.08,0,0,1-2.14-1.75c-.78-.67-1.76-1.49-2-1.64-.87-.13-7.6-1.35-11.73-2.11Z"/>
    <path class="cls-3" d="M174.2,21.39c-3,.77-24.46,6.22-24.46,6.22s4.44,15.94,4.86,17.48-2,3.66-2.9,1-5.28-17.47-5.28-17.47l-23.78,6.64-5.2,4.18,78.92,83.35-3.23-7.41s.51-13.13-.26-21.39c-1.19-14.32-6.39-28.39-18.67-72.62"/>
    <path class="cls-4" d="M196.14,123,117,39.43,122.56,35l24.06-6.72.09.28c0,.15,4.44,14.86,5.28,17.47.15.46.51,1.21,1.23,1a1.7,1.7,0,0,0,1.09-1.85L149.37,27.4l.3-.08s21.48-5.45,24.46-6.22l.29-.07.07.28c3.47,12.5,6.42,22.74,8.78,31,6.21,21.57,9,31.41,9.9,41.71a208.84,208.84,0,0,1,.26,21.36l3.21,7.35ZM117.89,39.49l77.51,81.87-2.58-5.9v-.07A207.24,207.24,0,0,0,192.57,94c-.85-10.24-3.68-20.07-9.87-41.59-2.35-8.17-5.27-18.31-8.71-30.68l-23.87,6.07L154.89,45a2.3,2.3,0,0,1-1.5,2.6c-.33.09-1.43.28-2-1.4-.78-2.41-4.59-15.13-5.2-17.19l-23.44,6.55Z"/>
    <path class="cls-3" d="M244.18,154.09l-13.73-.85s-5.45-2.05-6.9-3.58a51.49,51.49,0,0,1-4.09-5.88l6-2.05s11.42-11.84,12.36-13,6.22-10.91,6.48-10.91,2.47-.17,2.47-.17,0,18.75-.09,21.31-2.55,15.17-2.55,15.17"/>
    <path class="cls-4" d="M244.42,154.41l-14.07-.89c-.23-.08-5.54-2.09-7-3.65a51.89,51.89,0,0,1-4.13-5.94l-.19-.32,6.34-2.14c.83-.86,11.4-11.84,12.28-13,.46-.58,2.06-3.4,3.48-5.88,2.93-5.15,3-5.15,3.24-5.15s1.56-.1,2.45-.17l.32,0v.32c0,.19,0,18.79-.09,21.32s-2.46,14.7-2.56,15.22Zm-13.9-1.47,13.41.83c.35-1.81,2.43-12.56,2.5-14.86s.09-18.47.09-21l-2,.14c-.34.45-1.67,2.78-2.85,4.85-1.49,2.62-3,5.33-3.52,5.95-.94,1.19-11.92,12.58-12.38,13.06l0,.05-5.77,1.95a47.65,47.65,0,0,0,3.86,5.51C225.09,150.85,230,152.75,230.52,152.94Z"/>
    <path class="cls-3" d="M218.35,141.9s5.8-1.87,6.14-2.13,11.25-11.76,11.84-12.53,7-11.76,7-11.76l3.5-.34s6.39-19.6,11.76-30.08,14.49-27.7,14.74-27.87,25-27.36,25-27.36l5.28-11.42L306.05,1.7l-3.75-1s-5.37,21.91-6.39,23.61-7,9.46-8.18,10.14A44.22,44.22,0,0,1,283,36.31l-5.37,4.6-5.45-1.79-.09-1.79s1.62-2.56,2.64-1.11c.34.51.6.94.6.94h1.53s2.47-3.07,4-3.67,4.35-.85,5.11-1.79,7-9.2,7.33-9.29,2-7.32,2-7.32-3.58-.52-4.52-1.37S279.63,2.64,279.63,2.64A23.82,23.82,0,0,1,277,5.37c-.85.6-2.3,1.87-3.58,2.13a32.35,32.35,0,0,1-5.11,0l-3.93-4L263.44,0H174.55s22.24,78,22.84,82.41S198.92,93,198.92,93l52.5-13.63a37.21,37.21,0,0,0,2-4.09c.09-.6-3-8.19-3.58-10.32s2.13-3.15,3.15-.76,4,11.16,4,11.16l-3,6.73-54.8,14.41.76,17.13s.94,4.26,2.05,5.88,16.36,22.41,16.36,22.41"/>
    <path class="cls-4" d="M218.24,142.26l-.13-.18c-.15-.21-15.27-20.82-16.37-22.42s-2.05-5.81-2.09-6l-.78-17.42,54.89-14.43,2.88-6.49c-.35-1-3-8.83-4-11-.46-1.07-1.27-1.33-1.87-1.12a1.29,1.29,0,0,0-.72,1.69c.26.94,1,3,1.76,5,1.44,3.87,1.88,5.13,1.83,5.48a33.93,33.93,0,0,1-2,4.19l-.07.11-53,13.76,0-.33c0-.06-.94-6.19-1.53-10.57S174.48.86,174.26.08l-.11-.38h89.52l1,3.64,3.78,3.87a30.92,30.92,0,0,0,4.92,0,8.33,8.33,0,0,0,2.86-1.64l.61-.45a23,23,0,0,0,2.58-2.67l.21-.25.23.23c.11.1,10.32,10.23,11.24,11.07.72.65,3.39,1.15,4.36,1.29l.33,0-.08.32c-1.59,6.76-2,7.43-2.21,7.54-.44.38-3.66,4.58-5.41,6.85-.88,1.16-1.59,2.07-1.81,2.35-.56.69-1.9,1-3.31,1.34a18.23,18.23,0,0,0-1.93.54c-1.45.57-3.86,3.55-3.88,3.58l-.09.11H275.2l-.09-.15s-.25-.42-.59-.92c-.22-.32-.43-.31-.5-.31-.58,0-1.31.92-1.58,1.33l.07,1.49,5.09,1.67L282.94,36a42.42,42.42,0,0,0,4.64-1.85c1.13-.65,7-8.32,8.07-10,.79-1.32,4.51-16,6.36-23.53l.07-.3,4.31,1.17-2.54,17.06L298.52,30c-7.25,8-23.89,26.27-25,27.36h0c-.47.59-9.33,17.32-14.7,27.8S247.17,115,247.1,115.24l-.06.18-3.53.35c-.77,1.31-6.36,10.92-6.94,11.66S225.1,139.69,224.67,140s-4.85,1.74-6.22,2.18Zm-18-28.67s.94,4.18,2,5.73,14.74,20.21,16.23,22.23c2.18-.71,5.54-1.83,5.85-2,.49-.41,11.29-11.84,11.78-12.47s4.76-7.93,7-11.73l.08-.13,3.45-.34c.68-2,6.68-20.1,11.72-29.94,3.94-7.69,14.44-27.71,14.85-28s16.45-18,24.88-27.28l5.25-11.34,2.42-16.4-3.19-.87c-.68,2.75-5.37,21.76-6.35,23.39s-7,9.51-8.29,10.25a40.86,40.86,0,0,1-4.69,1.88l-5.45,4.68-5.81-1.91-.1-2.09.05-.08C272,37,273,35.5,274,35.48a1.19,1.19,0,0,1,1,.57c.23.34.41.64.52.81h1.22c.47-.57,2.6-3.09,4-3.65a17.21,17.21,0,0,1,2-.56c1.2-.29,2.55-.61,3-1.14.22-.27.92-1.18,1.81-2.34,4.24-5.53,5.22-6.73,5.56-7A60.94,60.94,0,0,0,295,15.33c-.95-.15-3.51-.62-4.35-1.39s-9.47-9.3-11-10.86a20.52,20.52,0,0,1-2.49,2.54c-.17.12-.37.26-.58.43a8.86,8.86,0,0,1-3.11,1.74,31.48,31.48,0,0,1-5.19,0h-.12L264.1,3.65,263.21.3H174.94c1.88,6.59,22.17,77.78,22.74,82.07.51,3.8,1.28,8.9,1.49,10.24l52.05-13.52a31.34,31.34,0,0,0,1.86-3.88,53.39,53.39,0,0,0-1.8-5.18c-.74-2-1.5-4-1.77-5a1.88,1.88,0,0,1,1.1-2.42,2.14,2.14,0,0,1,2.62,1.46c1,2.37,3.89,10.83,4,11.18l0,.12-3.09,7-54.7,14.38.75,16.88Zm93-91.47-.1.06A.22.22,0,0,1,293.28,22.12Z"/>
    <path class="cls-3" d="M311.25,22.59l.17,3.75L300.6,49.43s-5.8,30.34-5.71,30.77,14.91,21.48,14.91,21.48l6.22,6a10.94,10.94,0,0,0,.6,2.64,5,5,0,0,0,2,1.7c.69.17,5.8,1.71,5.8,1.71l5.45,7.24.18,18.75,5.71,2.13s11.5.43,15.34.6,3.24,3.15.17,3.24-13-.51-13-.51,4.94,18.15,5.28,18.41,2,1,2,1-.34-.85-.77-2,2.05-2.22,2.73-.77,1.79,4.52,1.79,4.52.26-.34,1.45-2.13,3.66.51,2.47,2-1,.94-1,.94-.34.09,1.28-.77,3.24,1.2,1.36,2.56-3.66,2.47-3.66,2.47a9.7,9.7,0,0,1,1.1,3.07c.17,1.45.26,2.81.26,2.81l12.36-.17L366,172.5s.59-.68,2.3-2.73,2.81,1,1.79,2.47a19.87,19.87,0,0,0-1.2,1.79l-1.36,6.74,7,7.75L376,189,375.51-.17,310.31-.6l-2.55,18.24a18.86,18.86,0,0,1,3.49,1.11,15,15,0,0,1,4.35,3.07,18.8,18.8,0,0,1,3,3.66s-.17,10.91.08,10.91,4.69,4.6,4.69,4.6,7.16,2,7.5,2a112.29,112.29,0,0,1,9.63,6.22c2.82,2.05.26,4.26-2.3,2.39s-8.78-6-8.78-6l-7.24-1.28s-6.31-6.39-6.65-6.9-.08-11.25-.08-11.25-2.48-2.39-4.18-3.66"/>
    <path class="cls-4" d="M376.32,189.45l-2-.67-7.14-7.92,1.41-7a20.27,20.27,0,0,1,1.22-1.83,2.17,2.17,0,0,0-.16-2.57c-.38-.3-.84.09-1.15.47-1.42,1.7-2.08,2.47-2.26,2.67l-1.14,4.93-12.88.18,0-.29s-.09-1.37-.25-2.79a9.59,9.59,0,0,0-1.07-3l-.15-.25.25-.15s1.8-1.12,3.64-2.46c.82-.6.83-1.26.57-1.69a1.19,1.19,0,0,0-1.61-.36l-.64.34c-.5.58-.69.65-.9.54l-.05,0h0v0a.31.31,0,0,1-.11-.2h0c-.09-.23,0-.33.7-.74.11-.13.24-.29.39-.49a1.2,1.2,0,0,0,.14-1.26,1.54,1.54,0,0,0-1.19-.95,1,1,0,0,0-.93.52c-1.18,1.77-1.45,2.13-1.46,2.14l-.33.45-.19-.53s-1.11-3.07-1.78-4.49a1.1,1.1,0,0,0-1.5-.38c-.44.18-.81.56-.67.91.42,1.11.76,2,.76,2l.28.71-.69-.33c-.17-.08-1.65-.79-2-1.05-.1-.08-.42-.32-5.39-18.57l-.11-.41.42,0c.09,0,10,.59,13,.51,1.38,0,2.21-.72,2.21-1.35s-.73-1.22-2.39-1.29c-3.79-.17-15.22-.59-15.34-.6l-.09,0-5.9-2.2-.17-18.86L324.28,114c-.7-.21-5.07-1.52-5.69-1.67a5.26,5.26,0,0,1-2.22-1.83,9.1,9.1,0,0,1-.63-2.67l-6.15-6c-5.59-7.92-14.91-21.21-15-21.63s3.54-19.53,5.71-30.88l0-.08,10.8-23-.2-4.31.51.38c1.7,1.28,4.18,3.67,4.2,3.69l.1.1v.13c-.1,4-.17,10.54,0,11.1.22.33,4,4.2,6.53,6.76l7.26,1.31c.06,0,6.26,4.12,8.79,6a2.55,2.55,0,0,0,2.45.51.93.93,0,0,0,.6-.74c0-.52-.35-1.13-1.1-1.68-2.8-2-9-6-9.51-6.17h0c-.31,0-5.36-1.43-7.52-2l-.08,0-.05-.06c-1.93-2-4.13-4.21-4.55-4.51h0l-.1-.09c-.1-.11-.33-.34-.16-11a20,20,0,0,0-2.9-3.53,13.13,13.13,0,0,0-3.66-2.69c-.23-.12-.44-.22-.62-.33a18.59,18.59,0,0,0-3.41-1.07l-.27-.07L310.05-.9l65.76.43v.3Zm-1.66-1.19,1.06.36L375.21.13,310.57-.29l-2.48,17.7a16.6,16.6,0,0,1,3.31,1.08c.18.11.37.21.59.32a13.41,13.41,0,0,1,3.82,2.8,18.07,18.07,0,0,1,3,3.73l0,.07v.08c-.06,3.77-.1,9.88,0,10.71a51.46,51.46,0,0,1,4.6,4.53c2.7.77,7,2,7.36,2,.53,0,7.69,4.75,9.79,6.28,1.28.93,1.39,1.79,1.34,2.22a1.5,1.5,0,0,1-.95,1.23,3.12,3.12,0,0,1-3.05-.58c-2.39-1.76-8.1-5.52-8.71-5.92L322,44.68l-.06-.07c-.65-.65-6.34-6.42-6.69-6.94s-.23-7.23-.14-11.29c-.41-.4-2.12-2-3.54-3.16l.14,3.18,0,.06L300.88,49.53c-1.56,8.17-5.55,29.22-5.69,30.61.57,1,9.13,13.24,14.86,21.36l6.26,6.09v.1a10,10,0,0,0,.55,2.51,4.69,4.69,0,0,0,1.87,1.58c.68.17,5.6,1.65,5.81,1.71l.09,0,5.57,7.4v.1l.16,18.54,5.48,2c.82,0,11.62.44,15.29.6,2.2.1,3,1.08,3,1.89s-1,1.9-2.79,1.95c-2.68.07-10.73-.38-12.65-.49,1.89,6.93,4.7,17,5.1,17.88.2.13.69.38,1.18.62l-.49-1.24c-.24-.63.18-1.34,1-1.69a1.68,1.68,0,0,1,2.28.68c.52,1.09,1.26,3,1.61,4l1.11-1.65a1.6,1.6,0,0,1,1.48-.78,2.14,2.14,0,0,1,1.69,1.31,1.83,1.83,0,0,1,0,1.43,1.8,1.8,0,0,1,2,.73,1.82,1.82,0,0,1-.72,2.49c-1.47,1.07-2.89,2-3.44,2.34a9.22,9.22,0,0,1,1,2.93c.13,1.05.21,2.06.24,2.54l11.84-.16,1.07-4.62.05-.06s.61-.7,2.3-2.72c.95-1.14,1.7-.77,2-.56a2.76,2.76,0,0,1,.28,3.4c-.83,1.17-1.09,1.61-1.15,1.72l-1.33,6.54Z"/>
    <polygon class="cls-5" points="376.46 98.36 373.42 94.3 367.23 89.45 327.34 89.79 314.67 95.92 305.98 96.27 305.95 95.67 314.58 95.33 327.2 89.19 367.43 88.85 373.88 93.91 376.95 98 376.46 98.36"/>
  </g>
  <polygon class="cls-5" points="347.44 142.09 344.19 133 344.52 117.93 314.14 95.87 314.5 95.38 345.13 117.63 344.79 132.91 348.01 141.89 347.44 142.09"/>
  <g class="cls-2">
    <path class="cls-5" d="M364.9,146.54l-.09,0c-.39-.14-6.79-1.18-11-1.85l.09-.59c3,.48,9.93,1.58,11,1.86.86-.43,7.38-5.69,11.46-9l-.16-19.39-1.42-.34-5.76-4.4c-2.23-.77-5.84-2-6.18-2l-44.46,1.37,0-.6c1.8-.06,44.16-1.37,44.5-1.37s4.59,1.45,6.4,2.07l.09,0,5.74,4.39,1.7.38.18,20.16-.11.09C366.6,145.73,365.23,146.54,364.9,146.54Z"/>
    <path class="cls-3" d="M329.66,142.84s4.77,2,5.11,2,6.22,20,6.22,20l5.89,3.33,2,5.28s-4.35,1.11-6.74,1.79-2,3.16.51,2.81,6.91-1.36,6.91-1.36l.25,1.28-4.26,59.06-21.05-11.93,2.64-47.39Z"/>
    <path class="cls-4" d="M345.78,237.6l-21.63-12.26v-.19l2.64-47.38,2.59-35.37.39.16c2.21.95,4.72,2,5,2h0c.27,0,.58.15,6.45,20.12l5.87,3.32,2.11,5.7-.32.08s-4.37,1.12-6.73,1.79c-1.07.31-1.45,1-1.34,1.47s.67.9,1.73.76c2.43-.34,6.84-1.35,6.88-1.36l.3-.07.33,1.62Zm-21-12.6,20.48,11.61,4.22-58.55-.19-.94c-1,.24-4.54,1-6.63,1.3-1.44.2-2.24-.47-2.4-1.22s.32-1.76,1.77-2.18c2-.56,5.36-1.44,6.42-1.71l-1.81-4.86-5.89-3.33,0-.12c-2.2-7.47-5.57-18.71-6.12-19.85-.71-.2-3-1.17-4.66-1.87l-2.53,34.53Z"/>
    <path class="cls-3" d="M323.61,174s2.81-29.49,2.9-33.41.17-18.15.17-18.15l-4.52-5.29-6.31-2-9-.17-7.67-2.9s4,7.24,4.34,9,1.28,14.32.94,16.62-4.26,15.26-4.26,15.26l-3.32,11.93,6.9,3.75Z"/>
    <path class="cls-4" d="M323.87,174.33l-20.26-5.49L296.49,165l3.39-12.16c0-.14,3.92-13,4.25-15.22s-.57-14.65-.93-16.52c-.33-1.72-4.28-8.87-4.32-9l-.39-.71,8.39,3.17,9.07.18,6.38,2.07,4.65,5.44v.11c0,.14-.09,14.28-.17,18.16s-2.87,33.13-2.9,33.43Zm-20-6,19.48,5.27c.32-3.36,2.79-29.4,2.87-33s.16-16.69.16-18L322,117.36l-6.19-2-9.09-.19-6.91-2.61c1,1.88,3.7,6.91,4,8.41.36,1.88,1.28,14.44.94,16.72s-4.11,14.76-4.27,15.29l-3.26,11.7Z"/>
    <path class="cls-3" d="M323,177.78l-20.11-5.45s-8.27-4-9.8-5.11-19-15.43-19-15.43L269.57,158l-5.88,12.62-1.45,1.44,9.38,43.55,7.84-.76c.85-.09,4.35-.17,5.63-.09s8.26.51,8.26.51l1.28-12.44s-1.53-2.47-.94-4.69,2.13-2.81,4-2.55,2.47,2.13,2.22,4.09a8.92,8.92,0,0,1-2.22,4L294.37,255l4.18,4.09,10.91,6,8.35.17,2.56-38.35Z"/>
    <path class="cls-4" d="M318.09,265.53l-8.71-.17-11-6.05-4.27-4.19V255l3.34-51.42.07-.07a8.66,8.66,0,0,0,2.14-3.84c.21-1.66-.19-3.51-2-3.76-2-.26-3.18.5-3.68,2.34-.55,2.06.89,4.43.91,4.45l.05.09-1.32,12.83-.29,0s-7-.42-8.26-.51-4.72,0-5.58.09l-7.84.76-.27,0-9.46-44,1.52-1.53,5.86-12.57,4.74-6.52.24.2c.18.14,17.48,14.32,19,15.41S303,172,303,172.06l20.29,5.5-2.65,49.33Zm-8.55-.77,8,.16,2.54-38.07L322.7,178l-19.88-5.39c-.39-.18-8.36-4.05-9.9-5.16S276.36,154,274.15,152.22l-4.33,6-5.91,12.65-1.34,1.33,9.29,43.13,7.57-.74c.9-.09,4.4-.17,5.68-.09l8,.5,1.24-12.06a7,7,0,0,1-.92-4.83,3.54,3.54,0,0,1,4.34-2.78c1.82.25,2.79,2,2.47,4.43a8.85,8.85,0,0,1-2.22,4.09l-3.31,51.06,4.05,4Z"/>
    <path class="cls-4" d="M296.85,198.32c.51,0,.25.43.25,1.11s-.08,1.11-.42,1.11-.34-1.19-.34-1.19,0-1,.51-1"/>
    <path class="cls-3" d="M258.84,221.25l10.48-2.81,3-.43s8.1-1,10-1,10.91.77,10.91.77l-1.87,37.41-11,4.52Z"/>
    <path class="cls-4" d="M280.18,260.07l-.13-.24-21.67-38.77,10.86-2.91,3-.44c.33,0,8.14-1,10-1s10.57.73,10.94.77l.29,0-1.9,37.9Zm-20.89-38.63,21.16,37.87L291,255,292.87,218c-1.56-.13-8.94-.74-10.6-.74-1.83,0-9.85,1-9.93,1l-3,.43Z"/>
    <path class="cls-3" d="M279.29,263.1s12-5.8,12.44-5.63,5.12,4.52,5.12,4.52l12.1,6.22,8.52.68-3.07,50.88s-2.47,2.47-2.55,2.22-4.61-3-4.61-3Z"/>
    <path class="cls-4" d="M311.87,322.31h-.07l-.17,0-.05-.12c-.29-.28-2.51-1.68-4.49-2.88l-.08,0,0-.08L278.88,263l.28-.13c12.14-5.86,12.54-5.7,12.68-5.64.44.18,4,3.49,5.18,4.55l12,6.18,8.76.7L314.7,319.9l-.08.09C312.53,322.07,312.07,322.31,311.87,322.31Zm-.31-.23a.08.08,0,0,1,0,0Zm-4.09-3.29a45.1,45.1,0,0,1,4.45,2.86,27.88,27.88,0,0,0,2.19-2l3-50.47-8.34-.69-12.17-6.27c-1.69-1.57-4.46-4.09-5-4.43-.89.2-7.63,3.37-12,5.46Zm-15.75-61Z"/>
    <path class="cls-3" d="M312.7,325.48a19.84,19.84,0,0,1,2-1.19c.17,0-.77,10.31-.6,10.31s-2.3-4.52-2-4.52.68-4.6.68-4.6"/>
    <path class="cls-4" d="M314.06,334.9h-.13l-.09-.1a.3.3,0,0,1-.09-.24c-.11-.27-.51-1.08-.84-1.74-1.28-2.55-1.29-2.67-1.16-2.89l.09-.14a42.36,42.36,0,0,0,.56-4.33v-.15l.12-.08c1.87-1.24,2-1.24,2.13-1.24h.13l.09.1c.15.15.17.17-.22,5.38-.15,2-.33,4.39-.32,5,.07.19,0,.24,0,.33l-.08.14Zm-1.74-4.72c.13.37.72,1.56,1.13,2.37l.34.69c0-.78.13-2,.27-3.82s.28-3.78.31-4.65l-1.39.88A19.61,19.61,0,0,1,312.32,330.18Zm-.3-.4h0Z"/>
  </g>
  <polygon class="cls-3" points="315 336.56 317.3 336.48 317.9 336.05 317.98 334.26 317.47 333.75 319.26 294.03 343.3 296.25 339.38 346.36 327.95 348.58 318.75 345.85 315 336.56"/>
  <path class="cls-4" d="M327.94,348.89l-.07,0-9.34-2.77-4-9.82,2.64-.1.4-.29.08-1.51-.52-.51v-.13l1.81-40L343.62,296l0,.29-3.93,50.34Zm-9-3.29,9,2.67,11.12-2.16L343,296.52l-23.42-2.16-1.77,39.27.51.51-.1,2.07-.79.56-2,.08Z"/>
  <polygon class="cls-3" points="321.05 350.25 325.57 351.31 322.67 352.67 321.05 350.25"/>
  <path class="cls-4" d="M322.56,353.05l-2.18-3.27,6.1,1.43Zm-.83-2.34,1,1.58,1.88-.89Z"/>
  <polygon class="cls-3" points="329.66 351.99 324.2 355.57 333.84 375 375 375 375 366.19 372.44 363.41 371.25 360.51 371.08 357.44 350.11 348.58 329.66 351.99"/>
  <g class="cls-2">
    <polygon class="cls-4" points="334.59 377.18 334.5 377.01 323.82 355.46 329.61 351.69 350.15 348.27 350.23 348.3 371.2 357.17 370.96 357.72 350.08 348.89 329.77 352.27 324.59 355.67 334.96 376.57 376.06 376.4 376.06 367.79 372.17 363.52 370.97 360.63 371.53 360.4 372.7 363.25 376.66 367.55 376.66 377 334.59 377.18"/>
    <path class="cls-3" d="M343.13,346l7.15-.85,17.56,7,4.26-30.51L369.55,300s.51-14.15.17-18.41-3.58-19.77-2.9-19.94S353.69,248,353.69,248l-6.13,48.58Z"/>
    <path class="cls-4" d="M368.09,352.58l-17.85-7.1-7.45.88,0-.36,4.43-49.44,6.21-49.19.43.43c13.45,13.11,13.29,13.71,13.23,13.9l0,.17-.06,0c-.12.86.77,5.94,1.48,10.05.67,3.83,1.36,7.78,1.51,9.63.33,4.23-.17,18.3-.17,18.44l2.56,21.64v0Zm-17.76-7.72.07,0,17.2,6.85,4.2-30.1L369.25,300c0-.19.5-14.23.17-18.43-.15-1.81-.84-5.76-1.5-9.57-1.36-7.82-1.65-9.89-1.42-10.47-.71-1.15-7.83-8.27-12.58-12.92l-6.06,48-4.4,49.05Zm16.6-82.93h0Z"/>
    <path class="cls-3" d="M350.11,244.77l-5.62-3.92L324,229.6s-4.94,62.56-4.43,62.39,23.87,2,23.87,2Z"/>
    <path class="cls-4" d="M343.73,294.36l-.29,0c-9.18-.87-23.08-2.12-23.78-2.05l-.15.05-.1-.11c-.21-.16-.41-.32,1.93-31.58,1.16-15.38,2.38-30.91,2.39-31.06l0-.47,20.86,11.48,5.81,4,0,.18Zm-23.87-2.67c2.47.06,16.69,1.39,23.35,2l6.58-48.8-5.47-3.81-20-11C322.68,250.56,319.79,288.35,319.86,291.69Z"/>
    <path class="cls-3" d="M376.19,354s-4.77-.85-4.09-1,2.9-26.59,2.9-26.59v-9l-2.56-18.58.86-17.22s-3.41-19.6-2.73-20.11-.17-6.48-.17-6.48l5.79,7.84Z"/>
    <path class="cls-4" d="M376.49,354.39l-.35-.06c-4.39-.78-4.4-1-4.4-1.26a.32.32,0,0,1,.17-.31c.53-1.29,1.95-16.38,2.79-26.36v-9l-2.55-18.54.84-17.24c-2.27-13.11-3.15-20-2.6-20.37.31-.37.09-3.51-.29-6.2l.54-.22,5.85,7.92Zm-4.06-1.47c.55.18,2,.49,3.46.75V262.94l-5-6.82c.27,2.19.49,5-.05,5.55-.3,1.06,1.55,12.71,2.79,19.87v.07l-.86,17.21,2.56,18.52v9.08C373.58,347,372.81,351.77,372.43,352.92Zm-.4-.2Zm-1.28-91Zm.06-.07Z"/>
    <path class="cls-3" d="M376.19,257.9c0-1-4.77-7.67-4.77-7.67L375,221.08v1h1.19Z"/>
    <path class="cls-4" d="M376.49,257.9h-.6c0-.58-2.4-4.27-4.71-7.5l-.07-.09v-.12L374.7,221l.6,0v.72h1.19Zm-4.76-7.75c.71,1,3,4.29,4.16,6.3v-34h-.75Z"/>
    <path class="cls-3" d="M367.33,256.19l-15.34-15-3.75-2.38,2.56-18.92s.51.51,3.4.51,2.73-3.07,0-3.07a11.07,11.07,0,0,1-3.92-.51l1-19.09s2.89.34,5.45.34,2.73-3.07-.17-3.07a38.82,38.82,0,0,0-4.26.17l.85-14.49s11.93-1.36,12.1-.85.52,1.7.52,1.7l9.2,9.38,1,.51-1,8.52-1.53-2.21s-2.05-.51-4.44-.86-2.55,2.73,0,3.07a15.18,15.18,0,0,1,2.9.51l.68,1.2-.17.68h-2.55a1.55,1.55,0,0,0-.34,3.07c1.7.17,1.19,0,1.19,0l2.39,3.75-1.71,10-1.7-1.7a36.24,36.24,0,0,0-3.92.34c-2.73.34-2.05,3.41.17,3.24s2.21,0,2.21,0l2.39,2.56s-2.22,15.68-2.22,17.55-.51,7.67-.51,7.67Z"/>
    <path class="cls-4" d="M367.58,256.86,351.8,241.43,347.92,239l2.66-19.72.43.43h0s.59.43,3.19.43a2.25,2.25,0,0,0,1.41-.4,1,1,0,0,0,.4-.8c0-.63-.62-1.27-1.81-1.27a11.32,11.32,0,0,1-4-.53L350,217l1-19.62.32,0s2.91.34,5.42.34c1.09,0,1.66-.62,1.66-1.24s-.56-1.23-1.83-1.23a39.07,39.07,0,0,0-4.22.17l-.36,0,.89-15.1.25,0c12.17-1.39,12.33-.92,12.42-.65.15.44.42,1.38.49,1.65l9.12,9.28,1.17.59-1.15,9.52L373.28,198c-.45-.11-2.25-.53-4.29-.82a1.35,1.35,0,0,0-1.3.39,1.11,1.11,0,0,0-.12,1.09,1.76,1.76,0,0,0,1.5,1,16.24,16.24,0,0,1,3,.55l.08,0,.78,1.37-.25,1h-2.79a1.25,1.25,0,0,0-.31,2.47l.65.06-.2-.31.8.26a.36.36,0,0,1,.28.31l2.33,3.66-1.82,10.75-2-2c-.36,0-1.57.07-3.76.34-1.21.15-1.57.86-1.51,1.43a1.42,1.42,0,0,0,1.62,1.21c2.18-.17,2.34,0,2.44.07l.1.11,2.41,2.58,0,.14c0,.15-2.22,15.68-2.22,17.51s-.49,7.46-.51,7.7Zm-19-18.2L352.2,241l14.87,14.54.47-6.68c0-.06.51-5.81.51-7.65s2-15.78,2.2-17.45L368,221.33a10.53,10.53,0,0,0-2,0,2,2,0,0,1-2.27-1.75c-.09-.9.51-1.9,2-2.09a35.28,35.28,0,0,1,4-.34h.12l1.38,1.38,1.59-9.37-2.19-3.43c-.23,0-.58,0-1.1-.08a1.85,1.85,0,0,1,.37-3.67h2.32l.08-.34-.56-1a24.63,24.63,0,0,0-2.74-.46,2.35,2.35,0,0,1-2-1.36,1.7,1.7,0,0,1,.2-1.69,1.87,1.87,0,0,1,1.86-.61c2.37.34,4.44.85,4.46.86l.11,0,1.15,1.66.9-7.53-.91-.47-9.26-9.43,0-.07s-.3-1-.47-1.58c-1-.18-7.43.44-11.57.91l-.82,13.89c.58-.05,1.86-.14,3.94-.14,1.67,0,2.43,1,2.43,1.83s-.77,1.84-2.26,1.84c-2.05,0-4.34-.22-5.17-.31l-1,18.55a12.65,12.65,0,0,0,3.6.42c1.59,0,2.41.94,2.41,1.87a1.61,1.61,0,0,1-.63,1.27,2.86,2.86,0,0,1-1.78.53,9.83,9.83,0,0,1-3.16-.36Z"/>
  </g>
  <rect class="cls-8" x="27.31" y="166.87" width="0.6" height="2.56" transform="translate(-21.62 5.02) rotate(-7.47)"/>
  <rect class="cls-8" x="58.59" y="161.67" width="0.6" height="2.56" transform="translate(-34.2 16.81) rotate(-12.63)"/>
  <rect class="cls-8" x="90.47" y="158.01" width="0.6" height="2.55" transform="matrix(0.99, -0.11, 0.11, 0.99, -17.44, 11.29)"/>
  <rect class="cls-8" x="122" y="154.26" width="0.6" height="2.56" transform="translate(-10 8.42) rotate(-3.79)"/>
  <rect class="cls-8" x="153.62" y="151.53" width="0.6" height="2.56"/>
  <rect class="cls-8" x="185.58" y="150.09" width="0.6" height="2.55" transform="translate(-12.58 16.91) rotate(-5.04)"/>
  <rect class="cls-8" x="256.57" y="82.43" width="0.6" height="2.52" transform="translate(58.69 267.3) rotate(-60.86)"/>
  <rect class="cls-8" x="266.55" y="63.73" width="0.6" height="2.43" transform="translate(96.24 280.16) rotate(-65.27)"/>
  <rect class="cls-8" x="281.65" y="43.75" width="0.6" height="2.53" transform="translate(50.76 212.57) rotate(-45)"/>
  <rect class="cls-8" x="296.21" y="25.66" width="0.6" height="2.55" transform="translate(118.76 265.78) rotate(-58.53)"/>
  <rect class="cls-8" x="302.26" y="11.76" width="0.6" height="2.56" transform="translate(223.08 305.26) rotate(-77.25)"/>
  <rect class="cls-8" x="248.13" y="101.63" width="0.6" height="2.52" transform="translate(37.59 269.77) rotate(-60.86)"/>
  <rect class="cls-8" x="235.18" y="124.64" width="0.6" height="2.52" transform="translate(-8.97 233.35) rotate(-51.86)"/>
  <rect class="cls-8" x="214.21" y="140.45" width="0.6" height="2.52" transform="translate(-42.51 148) rotate(-34.85)"/>
  <g class="cls-2">
    <path class="cls-9" d="M193.25,78.86l-.51-1.77c1-.28,1.51,0,1.64.51s-.21,1-1.13,1.26m-.34.89.39-.11c1.3-.38,1.93-1.16,1.65-2.16s-1.37-1.45-2.76-1-2.1,1.25-1.76,2.42A3,3,0,0,0,191,80l.65-.22a2,2,0,0,1-.65-.91c-.24-.81.13-1.35,1.15-1.64Zm-1.26-5.21c-1.11.32-1.77.18-2-.48s.29-1.14,1.4-1.46,1.77-.18,2,.49-.29,1.14-1.4,1.45Zm-2,1.4c.34-.13.65-.22.8-.27L196.15,74l-.21-.73-2.66.77v0a1.26,1.26,0,0,0,.32-1.31c-.26-.91-1.18-1.31-2.71-.88s-2.09,1.27-1.83,2.18a1.3,1.3,0,0,0,1,1v0l-.65.2Zm.09-5.75a1.09,1.09,0,0,1-1.41-.71.72.72,0,0,1,.56-1c.51-.15,1,.15,1.28,1a4.34,4.34,0,0,1,.13.52Zm-1.4,1.19.67-.23,2.3-.66a1.44,1.44,0,0,0,1-.69,1.79,1.79,0,0,0,.07-1.3,2.37,2.37,0,0,0-.72-1.14l-.66.27a1.58,1.58,0,0,1,.78,1,.92.92,0,0,1-.06.82,1.19,1.19,0,0,1-.67.37l-.2.06-.12-.43c-.43-1.52-1.23-1.9-2.08-1.65a1.22,1.22,0,0,0-.91,1.64,1.38,1.38,0,0,0,1,1v0l-.58.21ZM191,66.57l.72-.2a1.25,1.25,0,0,0-1.11-1.05h0l.68-.23-.2-.71c-.26.09-.63.22-.95.31l-3.46,1,.2.73,2.34-.67c1-.28,1.57,0,1.73.55a.92.92,0,0,1,0,.28m-3.31-3.42a1.09,1.09,0,0,1-1.41-.71.71.71,0,0,1,.56-1c.51-.15,1,.14,1.28,1a4.34,4.34,0,0,1,.13.52Zm-1.4,1.19a6.29,6.29,0,0,1,.67-.23l2.3-.66a1.44,1.44,0,0,0,1-.69,1.74,1.74,0,0,0,.07-1.3,2.45,2.45,0,0,0-.72-1.15l-.66.28a1.63,1.63,0,0,1,.79,1,1,1,0,0,1-.07.82,1.16,1.16,0,0,1-.66.37l-.2.06-.13-.43c-.43-1.52-1.22-1.9-2.08-1.65a1.22,1.22,0,0,0-.91,1.64,1.39,1.39,0,0,0,1,1.05v0l-.59.21Zm3-5.74c-.68.19-1.21,0-1.47-1l-.12-.42,2.27-.65.12.44a1.1,1.1,0,0,1-.8,1.58m.3.78a1.7,1.7,0,0,0,1.2-2.28l-.42-1.46-6,1.74.22.76,2.53-.73.15.52a1.77,1.77,0,0,0,2.37,1.45m-4.24-6.75c-1.11.31-1.77.17-2-.49s.3-1.14,1.41-1.46,1.77-.18,2,.49-.3,1.14-1.41,1.46Zm.21.72c1.53-.43,2.1-1.26,1.84-2.17a1.31,1.31,0,0,0-1-1v0L187,50l-.2-.7-.81.27-5.48,1.57.21.72,2.46-.7v0a1.32,1.32,0,0,0-.32,1.31c.26.91,1.19,1.31,2.71.87ZM184.05,48c-1.11.32-1.77.18-2-.49s.29-1.14,1.4-1.45,1.77-.18,2,.48-.29,1.14-1.4,1.46Zm.21.73c1.52-.44,2.09-1.27,1.83-2.18a1.3,1.3,0,0,0-1-1v0l.64-.21-.2-.7c-.24.09-.53.19-.8.27l-5.48,1.57.21.73,2.45-.71v0a1.28,1.28,0,0,0-.32,1.31C181.81,48.8,182.73,49.2,184.26,48.77Zm-1.18-5.38-.51-1.77c1-.28,1.51,0,1.64.51s-.21,1-1.13,1.26m-.34.89.38-.12c1.31-.37,1.94-1.15,1.66-2.15s-1.38-1.45-2.76-1-2.1,1.25-1.76,2.42a3,3,0,0,0,.61,1.17l.65-.22a2,2,0,0,1-.66-.91c-.23-.81.14-1.35,1.16-1.64Zm-3.05-4,3.08-.88-.5-1.74-.66.18.3,1-1.91.55a1.94,1.94,0,0,1-.38-.71c-.38-1.32.47-2.24,2-2.69a2.1,2.1,0,0,1,2.81,1.24,3.52,3.52,0,0,1,0,1.52l.76-.21a3.4,3.4,0,0,0-.14-1.5c-.45-1.58-2-2.34-3.84-1.8-1.64.47-2.87,1.69-2.32,3.61a5.15,5.15,0,0,0,.74,1.41"/>
    <path class="cls-9" d="M156.11,171.25l0-.61a1.09,1.09,0,0,1-.46.15c-.34,0-.49-.16-.53-.69l-.19-2.71,1-.06-.05-.61-.94.06-.08-1.16-.74.28.06.94-.73,0,0,.61.73-.05.2,3c.06.81.45,1.06,1.14,1a1.89,1.89,0,0,0,.63-.16m-3.36-1.44c-.05-.72-.41-1.24-1.42-1.73s-1.11-.7-1.14-1.11a.91.91,0,0,1,.91-1,2.07,2.07,0,0,1,1.09.21l-.05-.76a3.12,3.12,0,0,0-1.15-.13,1.57,1.57,0,0,0-1.63,1.7c0,.81.33,1.18,1.51,1.78.89.45,1,.72,1.07,1.21a1,1,0,0,1-1.05,1.07,2.72,2.72,0,0,1-1.23-.32l.06.81a3,3,0,0,0,1.33.18,1.68,1.68,0,0,0,1.7-1.91M146.24,172l-.47-6.75-.75.05.47,6.75Zm-2-3.79,0-.74a1.23,1.23,0,0,0-1.25.87h0l-.07-.72-.74,0c0,.27.08.66.1,1l.26,3.6.75,0-.17-2.43c-.07-1,.31-1.53.89-1.58h.29m-4,2.53a1.08,1.08,0,0,1-1,1.23.71.71,0,0,1-.83-.74c0-.54.35-1,1.25-1a5.25,5.25,0,0,1,.53,0Zm.87,1.62a6.85,6.85,0,0,1-.09-.7l-.16-2.39a1.4,1.4,0,0,0-.48-1.1,1.67,1.67,0,0,0-1.25-.35,2.43,2.43,0,0,0-1.27.47l.13.7a1.64,1.64,0,0,1,1.15-.55.89.89,0,0,1,.78.23,1.1,1.1,0,0,1,.22.73l0,.2-.44,0c-1.58.11-2.12.81-2.05,1.7a1.22,1.22,0,0,0,1.41,1.23,1.4,1.4,0,0,0,1.24-.77h0l.09.61Zm-5.27-2.29-1.83.13c-.06-1.08.35-1.47.83-1.5s.94.41,1,1.37m.8.52,0-.4c-.1-1.35-.73-2.14-1.76-2.07s-1.71,1-1.61,2.48.79,2.32,2,2.23a3,3,0,0,0,1.27-.36l-.09-.68a1.87,1.87,0,0,1-1,.45c-.84.06-1.29-.41-1.36-1.47Zm-5.09-2c.05.7-.27,1.17-1.23,1.24l-.43,0-.17-2.36.45,0c.81-.06,1.32.25,1.38,1.12m.82-.13a1.77,1.77,0,0,0-.58-1.26,1.8,1.8,0,0,0-1.39-.39l-1.52.1.44,6.28.79-.05-.18-2.63.53,0c1.33-.09,2-.79,1.91-2"/>
    <path class="cls-9" d="M132.87,105l-1.84.13c-.06-1.08.35-1.47.84-1.5s.93.41,1,1.37m.79.52,0-.4c-.09-1.35-.73-2.14-1.76-2.07s-1.71,1-1.61,2.48.8,2.32,2,2.23a3,3,0,0,0,1.27-.36l-.08-.68a1.9,1.9,0,0,1-1,.45c-.84.06-1.29-.41-1.36-1.47Zm-4.14-2.24-.8.06-.75,3.9h0l-1.28-3.76-.82.06,1.71,4.49.9-.07Zm-5.22,2.64-2,.14.77-3.2h0Zm1.7,2.22L123.51,102l-.86.06L121,108.48l.8-.06.39-1.67,2.39-.17.62,1.6Zm-8-3.37,0-.74a1.24,1.24,0,0,0-1.25.87h0l-.07-.72-.74.06c0,.26.08.65.1,1l.26,3.6.75,0-.17-2.43c-.07-1,.31-1.53.89-1.57a1.4,1.4,0,0,1,.29,0m-4,2.53a1.08,1.08,0,0,1-1,1.23.71.71,0,0,1-.83-.74c0-.53.35-1,1.25-1a5.25,5.25,0,0,1,.53,0Zm.87,1.62a6.85,6.85,0,0,1-.09-.7l-.16-2.39a1.4,1.4,0,0,0-.48-1.1,1.77,1.77,0,0,0-1.25-.35,2.43,2.43,0,0,0-1.27.47l.13.71a1.61,1.61,0,0,1,1.15-.56.89.89,0,0,1,.78.23,1.12,1.12,0,0,1,.22.73l0,.2-.44,0c-1.58.11-2.12.8-2.05,1.69a1.22,1.22,0,0,0,1.41,1.23,1.38,1.38,0,0,0,1.24-.77h0l.09.62Zm-5.27-2.29-1.83.13c-.06-1.07.35-1.47.83-1.5s.94.42,1,1.37m.8.52,0-.4c-.1-1.35-.73-2.14-1.76-2.07s-1.71,1-1.61,2.48.79,2.32,2,2.23a3,3,0,0,0,1.27-.36l-.09-.68a1.87,1.87,0,0,1-1,.45c-.84.06-1.29-.41-1.36-1.47Zm-5.09-2c0,.7-.27,1.18-1.23,1.24l-.43,0-.17-2.36.45,0c.81-.05,1.32.25,1.38,1.12m.82-.13a1.77,1.77,0,0,0-.58-1.26,1.8,1.8,0,0,0-1.39-.39l-1.52.1.44,6.28.79,0-.18-2.63.53,0c1.33-.09,2-.79,1.91-2"/>
    <path class="cls-9" d="M199,269.59,199,268c.86,0,1.26.32,1.28.79s-.35.79-1.14.82Zm-.68,1.15.43,0c1.31,0,2.29-.72,2.25-2s-1.11-1.94-2.47-1.89-2.4.67-2.35,2.23a4.51,4.51,0,0,0,.32,1.46l.91-.07a2.91,2.91,0,0,1-.41-1.2c0-.73.32-1.21,1.22-1.26ZM196.2,266c.23,0,.56-.07.89-.08l3.76-.13,0-1.19-2.74.09c-.59,0-1-.2-1-.74s.24-.61.84-.63l2.89-.1,0-1.2-3.24.11a1.32,1.32,0,0,0-1.45,1.44,1.29,1.29,0,0,0,.87,1.22v0c-.13,0-.64,0-.73.06Zm-.17-5,3.25-.11a1.31,1.31,0,0,0,1.43-1.44,1.29,1.29,0,0,0-.86-1.22v0l.74-.05,0-1.13-1,.08-3.68.12,0,1.2,2.67-.09c.66,0,1.09.24,1.11.74s-.25.61-.84.63l-2.89.1Zm2.5-6-.06-1.61c.86,0,1.26.31,1.28.78s-.35.8-1.14.83Zm-.68,1.14h.43c1.31-.05,2.29-.72,2.25-2s-1.11-1.94-2.47-1.89-2.4.67-2.35,2.22a4.45,4.45,0,0,0,.32,1.46l.91-.06a2.77,2.77,0,0,1-.41-1.21c0-.72.32-1.2,1.22-1.25Zm2.51-4.42,0-1.19-3.56-.79v0l3.5-1,0-1.27-4.6,1.6,0,1.42Zm-2.43-6.2-.06-1.61,2.83.74h0Zm-2.37,2.05,6.22-2.25-.05-1.37-6.36-1.88,0,1.22,1.5.4.08,2.12-1.47.47Zm-.3-8.55,6.76-.23,0-1.2-6.76.24Zm1.78-3.53c-.54,0-1.19-.21-1.21-.92a.61.61,0,0,1,.66-.69c.54,0,.88.42.91,1.23,0,.1,0,.31,0,.36Zm-1.86,1.19c.23,0,.55-.06.87-.08l2.21-.07c.71,0,1.64-.29,1.59-1.86a3.3,3.3,0,0,0-.4-1.51l-.93.09a2.08,2.08,0,0,1,.5,1.26c0,.71-.36.92-.8.94H198V235c-.06-1.6-.68-2.27-1.66-2.23A1.31,1.31,0,0,0,195,234.2a1.63,1.63,0,0,0,.77,1.32h0c-.1,0-.52.06-.63.08Zm3.48-4.44,1.09,0a.71.71,0,0,0,0-.14,1.24,1.24,0,0,0-.88-1.22v0l.76-.05,0-1.14c-.27,0-.67.07-1.18.09l-3.47.12,0,1.2,2.38-.09c.82,0,1.32.35,1.33.9a1.17,1.17,0,0,1,0,.39M194.94,229l.85,0a1,1,0,0,1-.1-.42c0-.31.16-.51.62-.52l2.35-.09,0,.93.86,0,0-.93,1.32,0-.4-1.18-1,0,0-.78-.86,0,0,.78-2.63.09a1.13,1.13,0,0,0-1.2,1.32,3.18,3.18,0,0,0,.15.85m-.16-3.67,3.25-.12a1.32,1.32,0,0,0,1.44-1.44,1.27,1.27,0,0,0-.87-1.21v0l.74-.05,0-1.14c-.27,0-.63.07-1,.08l-3.68.13,0,1.2,2.67-.1c.66,0,1.09.24,1.11.74s-.25.61-.83.63l-2.9.11Zm2.5-6-.06-1.62c.86,0,1.26.32,1.28.79s-.34.8-1.14.82Zm-.68,1.14.43,0c1.32,0,2.3-.72,2.25-2s-1.1-1.94-2.46-1.89-2.41.67-2.35,2.23a4.2,4.2,0,0,0,.32,1.46l.91-.07a2.78,2.78,0,0,1-.42-1.2,1.11,1.11,0,0,1,1.22-1.25Zm-2-4.68,1.12-.07a2.24,2.24,0,0,1-.36-1.16c0-1.22.88-1.88,2.23-1.92s2.16.64,2.2,1.7a2.5,2.5,0,0,1-.29,1.22h1.08a3.39,3.39,0,0,0,.21-1.37,2.88,2.88,0,0,0-3.31-2.84c-1.95.07-3.22,1.19-3.16,3.1a4.79,4.79,0,0,0,.28,1.34"/>
    <path class="cls-9" d="M223.66,291.74l-.13-1.84c1.07,0,1.46.35,1.5.84s-.42.93-1.37,1m-.52.8.4,0c1.35-.1,2.14-.73,2.07-1.77s-1.05-1.7-2.49-1.6-2.31.79-2.22,2a3,3,0,0,0,.36,1.26l.68-.08a1.9,1.9,0,0,1-.45-1c-.06-.83.4-1.28,1.47-1.36Zm2.24-4.15-.06-.79-3.9-.76v0l3.76-1.27-.06-.83-4.49,1.72.06.9Zm-2.65-5.21-.13-2,3.2.77v0Zm-2.21,1.7,6.14-2.49-.06-.86-6.43-1.67.06.79,1.67.39.17,2.39-1.61.62Zm2-8.9-.13-1.84c1.07-.06,1.46.35,1.5.84s-.42.93-1.37,1m-.53.79.41,0c1.35-.09,2.14-.72,2.06-1.76s-1-1.71-2.48-1.61-2.31.8-2.23,2a3.36,3.36,0,0,0,.36,1.27l.68-.08a2.06,2.06,0,0,1-.45-1c-.06-.84.41-1.29,1.47-1.36Zm-2.39-4.43,6.75-.48,0-.75-6.75.47Zm2.11-2.91c-1.16.08-1.77-.19-1.82-.88s.52-1.05,1.68-1.13,1.76.19,1.81.88-.52,1.05-1.67,1.13Zm.05.76c1.58-.11,2.31-.81,2.25-1.75a1.32,1.32,0,0,0-.83-1.16h0l.68-.08-.06-.73c-.26,0-.56.08-.84.1l-5.68.4.05.75,2.54-.18v0a1.33,1.33,0,0,0-.58,1.22C219.4,269.71,220.22,270.3,221.8,270.19Zm-1-5.64a1.07,1.07,0,0,1-1.23-1,.72.72,0,0,1,.74-.83c.53,0,1,.36,1.05,1.25,0,.21,0,.4,0,.53Zm-1.62.88a6.85,6.85,0,0,1,.7-.09l2.39-.17a1.4,1.4,0,0,0,1.1-.47,1.8,1.8,0,0,0,.35-1.26,2.43,2.43,0,0,0-.47-1.26l-.71.13a1.59,1.59,0,0,1,.56,1.14.9.9,0,0,1-.23.79,1.12,1.12,0,0,1-.73.22h-.21l0-.44c-.11-1.57-.8-2.11-1.69-2A1.22,1.22,0,0,0,219,263.4a1.39,1.39,0,0,0,.77,1.24h0l-.62.09Zm-.33-4.74,6.28-.44-.08-1.18-5.11-1.26v0l4.88-1.93-.08-1.22-6.28.44.05.75,5.42-.37h0l-5.3,2.09,0,.58,5.54,1.4v0l-5.41.38Z"/>
    <path class="cls-9" d="M248.41,295.64l-.25-1.82c1.06-.13,1.48.25,1.55.73s-.35,1-1.3,1.09m-.46.83.4-.05c1.34-.19,2.08-.88,1.94-1.91s-1.16-1.63-2.59-1.43-2.25,1-2.08,2.16a3.15,3.15,0,0,0,.44,1.24l.68-.13a1.86,1.86,0,0,1-.52-1c-.12-.83.31-1.31,1.37-1.46Zm2-4.29-.11-.78-3.95-.49h0l3.66-1.54-.12-.82-4.36,2,.13.9Zm-3-5-.28-2,3.25.55h0ZM244.81,289l5.94-2.91-.12-.86L244.11,284l.11.79,1.69.27.34,2.38-1.56.73Zm2.79-8.24.74-.1a1.24,1.24,0,0,0-1-1.19h0l.71-.12-.1-.74c-.27.06-.65.13-1,.18l-3.57.5.11.75,2.41-.34c1-.14,1.55.2,1.63.78a1.43,1.43,0,0,1,0,.29M245.79,277l-.25-1.82c1.06-.13,1.48.25,1.55.73s-.35,1-1.3,1.09m-.46.83.4-.05c1.34-.19,2.08-.88,1.94-1.91s-1.16-1.63-2.59-1.43-2.25,1-2.08,2.16a3,3,0,0,0,.44,1.24l.68-.13a1.86,1.86,0,0,1-.52-1c-.12-.83.31-1.31,1.37-1.46Zm-2.7-4.26,3.17-.44c1-.14,1.38-.74,1.26-1.53a1.23,1.23,0,0,0-.84-1v0l2.77-.39-.11-.75-6.7.94.11.75,2.74-.39c.82-.11,1.29.21,1.37.8s-.21.79-.93.89l-2.94.42Zm-.47-4.31.69-.13a2,2,0,0,1-.37-.89c-.11-.73.42-1.32,1.48-1.46,1.23-.18,1.81.27,1.91,1a1.67,1.67,0,0,1-.09.9l.68-.06a2.2,2.2,0,0,0,.06-.93c-.18-1.27-1.2-1.91-2.67-1.7-1.29.18-2.21,1-2,2.34a3.07,3.07,0,0,0,.33.93m-.62-3.83.61-.08a1.29,1.29,0,0,1-.18-.45c-.05-.34.13-.5.65-.58l2.69-.37.13.93.61-.08-.14-.94,1.16-.16-.33-.72-.93.13-.1-.72-.61.08.1.73-2.93.41c-.8.11-1,.52-.93,1.2a2.37,2.37,0,0,0,.2.62m2-4.22-.25-1.82c1.06-.13,1.48.25,1.55.73s-.35,1-1.3,1.09m-.46.83.4-.06c1.34-.18,2.08-.87,1.94-1.9s-1.16-1.63-2.59-1.43-2.25,1-2.08,2.16a3,3,0,0,0,.44,1.24l.68-.13a1.9,1.9,0,0,1-.52-1c-.12-.83.31-1.31,1.37-1.46Zm-2.69-4.26,6.69-.94-.1-.75-6.7.94Zm5.27-2.76.68-.1-.39-2.78-6.23.88.11.78,2.89-.41.27,1.91.68-.1-.27-1.9,2-.28Z"/>
    <path class="cls-9" d="M108.19,275.47l-.29-1.82c1.07-.15,1.49.22,1.57.7s-.34,1-1.28,1.12m-.45.83.4-.06c1.34-.21,2.06-.91,1.9-1.94s-1.18-1.61-2.61-1.38-2.23,1-2,2.19a3.17,3.17,0,0,0,.46,1.24l.68-.15a1.89,1.89,0,0,1-.54-1c-.14-.83.29-1.32,1.34-1.48Zm1.87-4.32-.12-.78-4-.42v0l3.63-1.6-.13-.81-4.32,2.1.14.89Zm-3.09-5-.31-1.95,3.26.49h0Zm-2,1.88,5.89-3-.13-.86-6.55-1.1.12.79,1.7.24.38,2.37-1.54.75Zm-1.29-8.1,3.16-.5a1.28,1.28,0,0,0,1.24-1.56,1.2,1.2,0,0,0-.92-1v0l.68-.13-.12-.72-1,.19-3.57.56.12.75,2.74-.43c.82-.13,1.29.17,1.38.76s-.19.8-.91.92l-2.94.46Zm1.45-5.57c-1.14.18-1.78-.06-1.9-.77s.43-1.14,1.57-1.32,1.78.06,1.89.77-.42,1.14-1.56,1.32m.12.78c1.43-.23,2.24-1,2-2.2s-1.2-1.68-2.63-1.45-2.23,1-2,2.19,1.2,1.69,2.62,1.46m-2.93-4.17.6-.09a1,1,0,0,1-.18-.45c-.06-.33.12-.5.63-.58l2.69-.43.14.94.61-.1-.15-.93,1.15-.18-.34-.72-.93.15-.11-.72-.61.1.12.72-2.93.46c-.8.13-1,.53-.91,1.22a2.32,2.32,0,0,0,.22.61m.77-3.28c1.41-.22.82-2.13,1.76-2.28.35-.05.66.16.74.66a2.28,2.28,0,0,1-.06.92l.65-.07a2.7,2.7,0,0,0,0-1,1.36,1.36,0,0,0-1.56-1.25c-1.46.23-.74,2.14-1.78,2.3-.35.06-.69-.19-.78-.76a2.1,2.1,0,0,1,.17-1.12l-.69.06a2.93,2.93,0,0,0-.07,1.27,1.38,1.38,0,0,0,1.61,1.26m-1.93-3.66,3.16-.5a1.28,1.28,0,0,0,1.24-1.56,1.18,1.18,0,0,0-.92-1v0l.67-.14-.12-.72-1,.2-3.56.56.11.75L103,242c.82-.13,1.29.18,1.38.77s-.19.8-.91.91l-2.93.47Zm.82-5.6a1.09,1.09,0,0,1-1.32-.88.71.71,0,0,1,.67-.89c.53-.09,1,.27,1.15,1.15,0,.2.06.39.07.53Zm-1.54,1a4.65,4.65,0,0,1,.69-.15l2.37-.37a1.47,1.47,0,0,0,1-.57,1.74,1.74,0,0,0,.23-1.28,2.38,2.38,0,0,0-.57-1.22l-.7.19a1.6,1.6,0,0,1,.66,1.09.93.93,0,0,1-.16.8,1.16,1.16,0,0,1-.71.29l-.2,0-.07-.44c-.25-1.56-1-2-1.87-1.89a1.22,1.22,0,0,0-1.1,1.51,1.38,1.38,0,0,0,.87,1.17v0l-.61.14Zm-.72-4.51,3.16-.5a1.27,1.27,0,0,0,1.24-1.55,1.21,1.21,0,0,0-.89-1,1.14,1.14,0,0,0,.54-1.18,1.16,1.16,0,0,0-.91-1v0l.67-.13-.12-.72c-.23.05-.64.14-1,.2l-3.52.56.12.74,2.8-.44c.82-.13,1.21.12,1.3.67s-.16.74-.74.83l-3.12.49.12.75,2.81-.44c.82-.13,1.2.12,1.29.67s-.16.74-.74.83l-3.11.49Zm2.85-7,.74-.11a1.23,1.23,0,0,0-1-1.17h0l.71-.14-.12-.73c-.26.06-.64.14-1,.19l-3.56.56.12.75,2.4-.38c1-.16,1.55.17,1.65.75a1.43,1.43,0,0,1,0,.29M99.84,225c-1.14.18-1.78-.06-1.89-.77s.42-1.14,1.56-1.32,1.78.06,1.89.77-.42,1.14-1.56,1.32m.12.78c1.43-.22,2.24-1,2.05-2.19s-1.2-1.68-2.62-1.46-2.24,1-2,2.2,1.2,1.68,2.62,1.45m-2.79-4.63,3.16-.5-.28-1.79-.68.1.17,1-2,.31a1.9,1.9,0,0,1-.29-.75c-.21-1.36.75-2.16,2.35-2.42a2.08,2.08,0,0,1,2.63,1.58,3.2,3.2,0,0,1-.15,1.51l.78-.13a3.42,3.42,0,0,0,0-1.5c-.26-1.62-1.66-2.56-3.6-2.25-1.68.26-3,1.33-2.74,3.3a5,5,0,0,0,.57,1.49"/>
    <path class="cls-9" d="M63.66,303.82,63.37,302c1.06-.15,1.49.23,1.56.71s-.33,1-1.27,1.11m-.45.84.4-.06c1.33-.21,2.06-.91,1.9-1.94s-1.18-1.61-2.61-1.38-2.24,1-2,2.19a3.29,3.29,0,0,0,.47,1.23l.67-.14a2,2,0,0,1-.53-1c-.14-.83.29-1.32,1.34-1.48Zm1.87-4.32-.13-.79-4-.41v0l3.63-1.6-.13-.82-4.32,2.1.14.89Zm-3.09-5-.31-1.95,3.26.49v0Zm-2.05,1.89,5.89-3-.13-.86-6.55-1.1.12.78,1.7.25.38,2.37-1.54.75Zm-1.29-8.11,3.16-.5a1.27,1.27,0,0,0,1.24-1.55,1.18,1.18,0,0,0-.92-1v0l.67-.14-.11-.72c-.31.07-.64.14-1,.19l-3.57.57.12.75,2.74-.44c.82-.13,1.29.18,1.38.77s-.19.8-.92.91l-2.93.47Zm.81-5.59a1.1,1.1,0,0,1-1.32-.88.72.72,0,0,1,.68-.89c.52-.09,1,.27,1.15,1.15a4.08,4.08,0,0,1,.06.53Zm-1.54,1a5.31,5.31,0,0,1,.69-.15l2.37-.37a1.45,1.45,0,0,0,1.05-.57,1.73,1.73,0,0,0,.24-1.28,2.47,2.47,0,0,0-.58-1.23l-.69.2a1.58,1.58,0,0,1,.66,1.09.9.9,0,0,1-.17.8,1.11,1.11,0,0,1-.7.29l-.21,0-.06-.44c-.25-1.56-1-2-1.87-1.89a1.22,1.22,0,0,0-1.11,1.51,1.39,1.39,0,0,0,.88,1.17v0l-.6.14Zm-.71-4.51,3.15-.5c1-.16,1.37-.76,1.25-1.55a1.23,1.23,0,0,0-.89-1,1.15,1.15,0,0,0,.54-1.18,1.18,1.18,0,0,0-.91-1v0l.67-.13L60.9,274c-.23.05-.64.14-1,.2l-3.53.55.12.75,2.81-.44c.82-.13,1.2.12,1.29.67s-.15.74-.73.83l-3.12.49.12.75,2.8-.44c.82-.13,1.21.12,1.3.67s-.16.74-.74.83l-3.12.49Zm2.85-7,.74-.11a1.24,1.24,0,0,0-1-1.17h0l.71-.14-.12-.73c-.26.06-.64.14-1,.19l-3.57.56.12.75L58.4,272c1-.16,1.55.17,1.64.75a1.46,1.46,0,0,1,0,.29m-1.87-3.75-.29-1.82c1.06-.15,1.49.22,1.56.7s-.33,1-1.27,1.12m-.45.83.4-.06c1.33-.21,2.06-.91,1.9-1.94s-1.19-1.61-2.61-1.38-2.24,1-2,2.19a3.34,3.34,0,0,0,.47,1.24l.67-.15a2,2,0,0,1-.54-1c-.13-.83.3-1.32,1.35-1.48Zm-2.67-3.89.61-.1a1,1,0,0,1-.19-.45c-.06-.33.12-.5.64-.58l2.68-.43.15.94.6-.1-.15-.93,1.15-.18-.34-.72-.92.15-.12-.72-.6.1.11.72-2.92.46c-.8.13-1,.54-.91,1.22a2.06,2.06,0,0,0,.21.62m.77-3.29c1.42-.22.82-2.13,1.76-2.27.35-.06.66.16.74.65a2.29,2.29,0,0,1-.05.92l.64-.07a2.7,2.7,0,0,0,0-1,1.36,1.36,0,0,0-1.56-1.25c-1.46.24-.74,2.14-1.78,2.3-.35.06-.69-.19-.78-.76a2.1,2.1,0,0,1,.17-1.12l-.68.06a2.77,2.77,0,0,0-.08,1.27,1.38,1.38,0,0,0,1.61,1.26m.61-4.6-.29-1.82c1.07-.15,1.49.22,1.57.7s-.33,1-1.28,1.12m-.45.83.4-.06c1.34-.21,2.07-.91,1.9-1.93s-1.18-1.62-2.61-1.39-2.23,1-2,2.2a3,3,0,0,0,.47,1.23l.67-.15a1.89,1.89,0,0,1-.54-1c-.13-.83.29-1.32,1.35-1.48ZM53.23,255l3.16-.5a1.32,1.32,0,0,0,.38-2.56v0l2.77-.43-.12-.75-6.68,1.06.11.75,2.74-.44c.82-.13,1.29.18,1.38.77s-.19.8-.91.91l-2.93.47Zm-.59-4.54.79-.13a2.29,2.29,0,0,1-.48-1.06c-.21-1.36.75-2.17,2.35-2.42a2.09,2.09,0,0,1,2.64,1.57,2.17,2.17,0,0,1-.13,1.22l.76-.12a2.82,2.82,0,0,0,0-1.21C58.35,246.64,57,245.7,55,246c-1.68.26-3,1.33-2.73,3.3a3.93,3.93,0,0,0,.36,1.1"/>
    <path class="cls-9" d="M213.09,338.38c-.14,1.14-.53,1.69-1.22,1.61s-.93-.71-.79-1.86.53-1.7,1.22-1.61.93.71.79,1.86Zm.51,2.37c0-.36,0-.68.06-.84l.72-5.87-.75-.1-.33,2.75h0a1.28,1.28,0,0,0-1.08-.8c-.95-.12-1.67.57-1.87,2.15s.35,2.42,1.29,2.54a1.31,1.31,0,0,0,1.29-.59h0l-.07.67Zm-4.91-5.24a1.07,1.07,0,0,1-1.3,1l-.61-.08.26-2.13.63.08c.69.08,1.1.47,1,1.17m.58,4.71-.57-2.61a.8.8,0,0,0-.6-.69v0a1.43,1.43,0,0,0,1.42-1.34,1.65,1.65,0,0,0-.32-1.25,1.73,1.73,0,0,0-1.26-.59l-1.61-.2-.76,6.25.78.1.35-2.83.36,0a.89.89,0,0,1,.91.84l.45,2.2Zm-6.48-4.74.09-.74a1.24,1.24,0,0,0-1.39.62h0l.06-.72-.73-.09c0,.27,0,.66-.09,1l-.44,3.58.76.09.29-2.41c.12-1,.6-1.45,1.18-1.38a2,2,0,0,1,.28.06m-4.12.77-1.83-.22c.15-1.07.62-1.37,1.1-1.31s.84.58.73,1.53m.68.66.05-.4c.16-1.34-.31-2.23-1.34-2.36s-1.88.7-2.05,2.13.34,2.42,1.55,2.57a3.14,3.14,0,0,0,1.31-.11l0-.69a1.93,1.93,0,0,1-1.1.25c-.83-.1-1.18-.64-1-1.7Zm-4.48,1.49.07-.61a.94.94,0,0,1-.48.06c-.34,0-.45-.25-.39-.77l.33-2.7.94.12.08-.61-.94-.12.14-1.15-.78.13-.11.93-.73-.09-.07.61.72.09-.36,2.94c-.1.8.24,1.12.93,1.21a2.35,2.35,0,0,0,.65,0M191,336.29a1.09,1.09,0,0,1-1.21,1,.72.72,0,0,1-.67-.9c.06-.53.54-.89,1.42-.79a4.1,4.1,0,0,1,.53.09Zm.55,1.76a5.08,5.08,0,0,1,0-.71l.29-2.38a1.4,1.4,0,0,0-.26-1.16,1.71,1.71,0,0,0-1.16-.58,2.47,2.47,0,0,0-1.34.21v.72a1.62,1.62,0,0,1,1.23-.33.93.93,0,0,1,.72.38,1.1,1.1,0,0,1,.08.76l0,.2-.44-.05c-1.57-.19-2.23.39-2.34,1.27a1.22,1.22,0,0,0,1.16,1.48,1.39,1.39,0,0,0,1.36-.52h0l0,.62Zm-3.27-5-.76-.09-1.32,3.71h0l-.44-3.92-.89-.11-1.34,3.71h0l-.4-3.92-.79-.1L183,337l.86.11,1.35-3.75h0l.48,4,.86.1Zm-7.08,2.43c.17-1.42-1.82-1.38-1.71-2.32,0-.36.34-.59.83-.53a2.13,2.13,0,0,1,.87.31l.12-.64a2.66,2.66,0,0,0-.95-.28,1.35,1.35,0,0,0-1.63,1.15c-.18,1.47,1.85,1.3,1.72,2.35,0,.35-.38.61-.95.54a2.08,2.08,0,0,1-1-.48l-.13.68a2.8,2.8,0,0,0,1.2.42,1.39,1.39,0,0,0,1.66-1.2m-3-3.66-.75-.09-1.41,3.6h0l-.57-3.85-.79-.1.88,4.82-.27.68c-.18.45-.36.53-.57.51a1.11,1.11,0,0,1-.4-.14l-.12.67a2.16,2.16,0,0,0,.5.12c.58.07.93-.17,1.25-.92ZM172.71,334a1.09,1.09,0,0,1-1.21,1,.71.71,0,0,1-.67-.89c.06-.53.54-.9,1.42-.79a4.34,4.34,0,0,1,.53.08Zm.55,1.76a5.05,5.05,0,0,1,.05-.7l.29-2.38a1.38,1.38,0,0,0-.26-1.17,1.71,1.71,0,0,0-1.16-.58,2.48,2.48,0,0,0-1.34.22v.72a1.58,1.58,0,0,1,1.23-.33.88.88,0,0,1,.72.38,1.06,1.06,0,0,1,.08.75l0,.21-.44-.06c-1.57-.19-2.23.39-2.34,1.28a1.23,1.23,0,0,0,1.16,1.48,1.39,1.39,0,0,0,1.36-.53h0l0,.62Zm-5.09-2.41a1.09,1.09,0,0,1-1.34,1l-.67-.08.27-2.26.76.09a1,1,0,0,1,1,1.28m.22-2.87c-.08.67-.53,1-1.41.91l-.47-.05.25-2.06.6.07c.83.1,1.1.59,1,1.13m.56,3a1.42,1.42,0,0,0-1-1.69v0a1.39,1.39,0,0,0,1.2-1.26c.12-.93-.33-1.65-1.54-1.8l-1.58-.19-.77,6.24,1.5.19a1.73,1.73,0,0,0,2.16-1.47"/>
    <path class="cls-9" d="M265.24,206.05l.6-.11a1,1,0,0,1-.2-.44c-.07-.34.1-.51.61-.61l2.67-.52.18.93.6-.12-.18-.92,1.14-.23-.36-.7-.92.18-.14-.71-.6.11.14.72-2.91.56c-.8.16-1,.57-.87,1.26a2,2,0,0,0,.24.6m1-3.5c.71-.14,1.19-.56,1.55-1.63s.56-1.19.95-1.27a.92.92,0,0,1,1.11.79,2.07,2.07,0,0,1-.07,1.11l.75-.15a3.2,3.2,0,0,0,0-1.15,1.57,1.57,0,0,0-1.88-1.42c-.8.15-1.13.48-1.58,1.72-.35.93-.6,1.11-1.08,1.2a1,1,0,0,1-1.18-.91,2.42,2.42,0,0,1,.17-1.25l-.81.16a3,3,0,0,0,0,1.34,1.68,1.68,0,0,0,2.1,1.46m-3-6.2,6.64-1.29-.15-.74-6.64,1.29Zm1.72-3.17c-1.13.22-1.78,0-1.91-.71s.38-1.15,1.51-1.37,1.78,0,1.92.71-.38,1.15-1.52,1.37m.16.77c1.41-.27,2.2-1.07,2-2.26s-1.25-1.64-2.67-1.36-2.2,1.07-2,2.26,1.26,1.64,2.68,1.36m-3.2-4.36,3.14-.61c1-.2,1.34-.81,1.18-1.6a1.23,1.23,0,0,0-.89-1v0l2.74-.53-.15-.74-6.63,1.29.14.74,2.72-.53c.81-.16,1.29.14,1.41.72s-.17.81-.89.95l-2.91.56Zm-.77-4.28.6-.12a1.13,1.13,0,0,1-.21-.44c-.06-.33.11-.5.62-.6l2.67-.52.18.93.6-.12-.18-.93,1.14-.22-.36-.7-.93.18-.13-.72-.61.12.14.71-2.9.57c-.8.15-1,.57-.87,1.25a2.16,2.16,0,0,0,.24.61m1.39-4.74-.38-1.94,3.28.38v0Zm-2,2,5.79-3.22-.17-.85-6.58-.87.15.78,1.71.18.46,2.36-1.52.8Z"/>
    <path class="cls-9" d="M291.43,242.44H292a1.12,1.12,0,0,1-.11-.47c0-.34.21-.47.73-.46l2.72,0,0,.95H296l0-.94,1.16,0-.21-.76-.94,0v-.73h-.61v.73l-3-.05c-.81,0-1.1.35-1.11,1a2.2,2.2,0,0,0,.11.64m1.72-3.21c.72,0,1.28-.31,1.86-1.27s.79-1.05,1.2-1a.92.92,0,0,1,.92,1,2.19,2.19,0,0,1-.31,1.06l.77,0a3.35,3.35,0,0,0,.22-1.14,1.57,1.57,0,0,0-1.54-1.77c-.82,0-1.21.23-1.91,1.35-.53.84-.82,1-1.3,1a1,1,0,0,1-1-1.14,2.65,2.65,0,0,1,.43-1.19l-.82,0a3.13,3.13,0,0,0-.29,1.31,1.69,1.69,0,0,0,1.75,1.87m2.3-6.17h.75a1.24,1.24,0,0,0-.76-1.32h.72V231l-1,0-3.61-.07v.76l2.44,0c1,0,1.49.44,1.48,1a1.36,1.36,0,0,1,0,.29m-3.85-3.54,4.6.08v-.76l-4.6-.08Zm6,.18a.46.46,0,1,0,0-.92.46.46,0,0,0-.47.45.45.45,0,0,0,.45.47m-4.25-3.06a1.1,1.1,0,0,1-1.15-1.1.72.72,0,0,1,.82-.76c.53,0,.95.44.93,1.33a4.06,4.06,0,0,1,0,.54Zm-1.69.72.7,0,2.4,0a1.42,1.42,0,0,0,1.13-.37,1.75,1.75,0,0,0,.46-1.22,2.48,2.48,0,0,0-.36-1.31l-.71.07a1.69,1.69,0,0,1,.46,1.19,1,1,0,0,1-.31.76,1.11,1.11,0,0,1-.74.16h-.21v-.45c0-1.57-.62-2.17-1.51-2.19a1.23,1.23,0,0,0-1.35,1.3,1.4,1.4,0,0,0,.66,1.31h0l-.62,0Zm.08-4.56,6.76.12v-.76l-6.76-.12Zm1.82-2.93a1.08,1.08,0,0,1-1.1-1.23V218l2.27,0v.77a1,1,0,0,1-1.17,1.1m2.88-.08c-.67,0-1.07-.43-1.06-1.31V218l2.08,0v.6c0,.83-.48,1.15-1,1.14m-2.94.88a1.43,1.43,0,0,0,1.58-1.15h0a1.4,1.4,0,0,0,1.38,1.06c.93,0,1.61-.5,1.63-1.72l0-1.59-6.3-.11,0,1.51a1.74,1.74,0,0,0,1.69,2"/>
    <path class="cls-9" d="M322.35,224.16c-1.16,0-1.75-.35-1.74-1s.62-1,1.77-1,1.75.34,1.73,1-.61,1-1.76,1Zm-2.32.75c.36,0,.69,0,.85,0l5.92.1v-.75l-2.77-.05v0a1.27,1.27,0,0,0,.69-1.16c0-.95-.75-1.6-2.33-1.63s-2.38.6-2.39,1.55a1.31,1.31,0,0,0,.71,1.22v0h-.67Zm4.71-5.43a1.06,1.06,0,0,1-1.09-1.19v-.61l2.15,0v.64c0,.69-.36,1.14-1.06,1.13m-4.63,1.08,2.54-.84a.8.8,0,0,0,.62-.68h0a1.44,1.44,0,0,0,1.49,1.27,1.62,1.62,0,0,0,1.21-.45,1.77,1.77,0,0,0,.45-1.31l0-1.62-6.3-.11v.8l2.85,0V218a.89.89,0,0,1-.73,1l-2.15.68Zm.13-7.45,3.19,0c1,0,1.48-.51,1.49-1.32a1.16,1.16,0,0,0-.72-1.17v0l.68,0,0-.72c-.32,0-.66,0-1,0l-3.6-.06,0,.76,2.77,0c.83,0,1.24.4,1.23,1s-.33.75-1.06.74l-3-.05ZM323,208l0-1.84c1.08,0,1.43.48,1.42,1s-.49.9-1.45.88m-.59.75h.41c1.35,0,2.19-.53,2.21-1.57s-.89-1.79-2.33-1.82-2.38.59-2.4,1.81a3,3,0,0,0,.25,1.29l.68,0a2.07,2.07,0,0,1-.36-1.06c0-.84.52-1.25,1.59-1.23Zm2.6-4v-.76l-3.83-.93v0l3.86-.84,0-.9-3.83-.95h0l3.86-.81v-.79l-4.62,1.13v.87l3.87.95v0l-3.91.9v.86Zm-2.17-7.43c-1.16,0-1.75-.37-1.74-1.09s.62-1.05,1.77-1,1.75.37,1.73,1.09-.61,1-1.76,1m0,.79c1.45,0,2.38-.59,2.4-1.81s-.89-1.86-2.33-1.89-2.38.59-2.4,1.81.89,1.86,2.33,1.89m-.42-5.68a1.09,1.09,0,0,1-1.11-1.24v-.68l2.28,0,0,.77a1,1,0,0,1-1.16,1.11m2.88-.09c-.68,0-1.08-.42-1.06-1.31v-.47l2.07,0v.61c0,.83-.47,1.14-1,1.13m-2.95.88a1.43,1.43,0,0,0,1.58-1.14h0a1.41,1.41,0,0,0,1.38,1.06c.93,0,1.6-.51,1.63-1.73l0-1.59-6.29-.11,0,1.51a1.74,1.74,0,0,0,1.69,2"/>
    <path class="cls-9" d="M74,47.33l-1.78.47c-.26-1,.06-1.5.53-1.63s1,.23,1.25,1.16m.87.36-.1-.4c-.35-1.3-1.12-1.95-2.12-1.69S71.15,47,71.52,48.35s1.22,2.12,2.4,1.8a3.22,3.22,0,0,0,1.17-.59l-.21-.66a1.94,1.94,0,0,1-.92.64c-.81.22-1.34-.15-1.61-1.18Zm-4.49-1.41-.77.2v4h0l-2-3.45-.81.22,2.55,4.08.87-.23Zm-4.61,3.59-1.91.51L64,47.09h0Zm2.09,1.84-3.62-5.54-.83.22L63,53l.76-.21.07-1.71,2.31-.63L67,51.93Zm-7.93,2.13-.83-3.09a1.27,1.27,0,0,0-1.67-1.07,1.19,1.19,0,0,0-.94,1h0l-.21-.65-.7.19c.1.3.2.62.29.94l.93,3.49.74-.2-.72-2.67c-.22-.8,0-1.3.62-1.46s.81.11,1,.82L59.18,54ZM54.22,53c.3,1.12.13,1.78-.57,2s-1.17-.31-1.47-1.42-.13-1.78.57-2,1.17.3,1.47,1.41m.76-.2c-.37-1.4-1.22-2.12-2.39-1.81S51,52.34,51.41,53.73s1.22,2.12,2.4,1.81,1.55-1.37,1.17-2.76m-3.83,3.35L51,55.54a1.06,1.06,0,0,1-.42.23c-.33.09-.52-.06-.65-.57l-.7-2.62.91-.25L50,51.74l-.91.24-.3-1.12-.68.41.25.91-.71.19.16.59.7-.19.77,2.86c.21.78.64,1,1.31.78a2,2,0,0,0,.59-.28M46.77,55c.3,1.11.15,1.77-.52,2s-1.13-.31-1.43-1.43-.15-1.77.52-2,1.13.31,1.43,1.43Zm.73-.2c-.41-1.53-1.23-2.11-2.14-1.87a1.3,1.3,0,0,0-1,1h0l-.2-.64-.7.19c.08.24.18.54.25.81l1.48,5.5.73-.2-.66-2.46h0a1.34,1.34,0,0,0,1.31.34c.91-.25,1.33-1.16.92-2.7Zm-4.2,3.51-.82-3.09a1.27,1.27,0,0,0-1.67-1.07,1.22,1.22,0,0,0-.9,1,1.14,1.14,0,0,0-1.23-.42,1.17,1.17,0,0,0-.9,1h0l-.2-.65-.71.19c.08.22.21.62.3,1l.93,3.45.73-.2-.74-2.74c-.21-.8,0-1.21.54-1.36s.75.08.9.65l.82,3.05.73-.2-.74-2.74c-.21-.81,0-1.22.53-1.36s.75.08.91.64l.81,3Zm-7.74.34a1.09,1.09,0,0,1-.73,1.4.72.72,0,0,1-1-.58c-.14-.51.16-1,1-1.26a4,4,0,0,1,.52-.12Zm1.17,1.42a6.6,6.6,0,0,1-.22-.67l-.62-2.32a1.4,1.4,0,0,0-.68-1,1.66,1.66,0,0,0-1.29-.1,2.4,2.4,0,0,0-1.16.7l.26.67a1.63,1.63,0,0,1,1-.77,1,1,0,0,1,.82.08,1.13,1.13,0,0,1,.35.67l.06.2-.43.11c-1.53.41-1.92,1.2-1.69,2.06a1.22,1.22,0,0,0,1.62.94,1.38,1.38,0,0,0,1.07-1h0l.21.59ZM32.81,61.1l-.18-.66-2,.53-1.45-5.41-.76.2L30,61.84Z"/>
  </g>
  <polygon class="cls-3" points="145.91 108.75 166.79 107.3 164.32 111.9 147.36 114.38 146.34 113.86 145.91 108.75"/>
  <path class="cls-4" d="M147.31,114.69l-1.26-.63-.47-5.59L167.31,107l-2.8,5.22Zm-.69-1,.79.39,16.71-2.43,2.15-4-20,1.39Z"/>
  <g class="cls-2">
    <path class="cls-6" d="M94.21,195.82l1.65-23.49L95.39,162l-9.19,1.77-2.13,2.56-10.88,2.07.62,7.61s-.84,3.59-.94,4.11c1.35,0,1.62,1.61,1.62,1.61l1,15Z"/>
    <path class="cls-7" d="M75.23,197l-1-15.29s-.25-1.34-1.3-1.34H72.5l.07-.36c.1-.49.83-3.64.93-4.07l-.63-7.83,11-2.11L86,163.46l9.63-1.86.49,10.72-1.67,23.79Zm-2-17.2a2.21,2.21,0,0,1,1.56,1.84l1,14.73,18.14-.86,1.63-23.22-.46-10L86.36,164l-2.13,2.56-10.72,2.05.6,7.38v.05S73.46,178.79,73.23,179.82Z"/>
  </g>
  <g class="cls-2">
    <path class="cls-9" d="M28.38,288.89l.6-.1a1.11,1.11,0,0,1-.19-.44c-.05-.34.12-.5.64-.59l2.68-.42.15.93.61-.09-.15-.94,1.15-.18-.34-.71-.93.15-.11-.73-.61.1.12.72-2.93.47c-.8.12-1,.53-.91,1.22a2.12,2.12,0,0,0,.22.61m1.14-3.47c.71-.11,1.2-.52,1.6-1.57s.6-1.17,1-1.23a.91.91,0,0,1,1.08.82,2.07,2.07,0,0,1-.11,1.11l.75-.12a3,3,0,0,0,0-1.16A1.58,1.58,0,0,0,32,281.79c-.8.13-1.15.44-1.65,1.67-.37.92-.63,1.08-1.11,1.16a1,1,0,0,1-1.15-.95,2.54,2.54,0,0,1,.21-1.25l-.81.13a3.08,3.08,0,0,0-.06,1.34,1.68,1.68,0,0,0,2.05,1.53m-.59-7.4c-1.14.18-1.78,0-1.89-.73s.43-1.09,1.57-1.27,1.78,0,1.89.73S30.07,277.84,28.93,278Zm-2.15,1.14.83-.17,5.85-.92-.12-.75-2.73.43h0a1.29,1.29,0,0,0,.48-1.27c-.15-.93-1-1.44-2.58-1.2s-2.24,1-2.09,1.94a1.29,1.29,0,0,0,.92,1.08v0l-.66.12ZM26,274.45l3.15-.5c1-.16,1.37-.76,1.24-1.56a1.19,1.19,0,0,0-.92-1v0l.67-.13-.11-.72c-.31.06-.65.14-1,.19l-3.56.56.12.75,2.73-.43c.82-.13,1.29.18,1.38.76s-.19.8-.91.92l-2.93.46Zm.81-5.6a1.09,1.09,0,0,1-1.32-.88.72.72,0,0,1,.67-.89c.53-.08,1,.27,1.15,1.15,0,.21.06.39.07.53Zm-1.54,1,.69-.15,2.37-.37a1.39,1.39,0,0,0,1.05-.57,1.72,1.72,0,0,0,.23-1.28,2.42,2.42,0,0,0-.57-1.22l-.69.19a1.63,1.63,0,0,1,.65,1.09,1,1,0,0,1-.16.81,1.16,1.16,0,0,1-.71.28l-.2,0-.07-.43c-.25-1.56-1-2-1.87-1.9a1.23,1.23,0,0,0-1.1,1.52,1.42,1.42,0,0,0,.88,1.17h0l-.61.14Zm-.71-4.51,6.68-1.06-.12-.74-6.68,1.06ZM28.19,263l.74-.12a1.25,1.25,0,0,0-1-1.17h0l.7-.14-.11-.73c-.27.06-.65.14-1,.19l-3.57.56.12.75,2.41-.38c1-.16,1.55.17,1.64.75a1.46,1.46,0,0,1,0,.29m-1.88-3.76L26,257.45c1.06-.15,1.48.22,1.56.7s-.33,1-1.28,1.11m-.45.84.4-.06c1.34-.21,2.07-.91,1.91-1.94s-1.19-1.61-2.61-1.38-2.24,1-2,2.19a2.93,2.93,0,0,0,.47,1.23l.67-.14a2,2,0,0,1-.54-1c-.13-.83.3-1.32,1.35-1.48Zm-.61-5.32c-1.14.19-1.78,0-1.89-.72s.43-1.09,1.57-1.27,1.78,0,1.89.72-.43,1.09-1.57,1.27Zm-2.15,1.15a7.62,7.62,0,0,1,.83-.17l5.85-.93-.12-.74-2.74.43v0a1.28,1.28,0,0,0,.48-1.26c-.15-.94-1-1.45-2.58-1.2s-2.24,1-2.09,1.94a1.29,1.29,0,0,0,.92,1.08h0l-.66.13Zm-.74-4.72,3.15-.49c1-.16,1.37-.77,1.24-1.56a1.17,1.17,0,0,0-.92-1v0l.67-.14-.12-.72c-.3.07-.64.14-1,.19l-3.56.57.12.75,2.73-.44c.82-.13,1.29.18,1.38.77s-.19.8-.91.91l-2.93.47Zm-.73-4.59a9.45,9.45,0,0,1,1-.2l3.5-.56-.11-.74-2.74.43c-.82.13-1.29-.18-1.38-.77s.19-.8.91-.91l2.94-.47-.12-.74-3.16.5a1.27,1.27,0,0,0-1.24,1.55,1.2,1.2,0,0,0,.92,1h0l-.67.14Zm1-4.81c.71-.11,1.21-.52,1.61-1.56s.6-1.18,1-1.24a.93.93,0,0,1,1.08.82,2.15,2.15,0,0,1-.12,1.11l.76-.12a3.17,3.17,0,0,0,0-1.16,1.57,1.57,0,0,0-1.83-1.48c-.8.13-1.14.44-1.64,1.67-.38.92-.63,1.09-1.12,1.16a1,1,0,0,1-1.15-.95,2.56,2.56,0,0,1,.21-1.25l-.81.13a3.13,3.13,0,0,0-.06,1.35,1.68,1.68,0,0,0,2.05,1.52"/>
  </g>
  <polygon class="cls-3" points="164.04 375 174.78 375 164 373.69 164.04 375"/>
  <g class="cls-2">
    <path class="cls-4" d="M163.79,376.73l-.1-3.38,17.84,2.17,0,.6Zm.52-2.7.06,2.08,13.26-.46Z"/>
  </g>
  <polygon class="cls-3" points="145.06 375 159.98 375 159.91 373.6 145.06 375"/>
  <g class="cls-2">
    <path class="cls-4" d="M160.37,376.86l-18.54-1.26V375l18.38-1.73Zm-14.8-1.61,14.17,1-.11-2.28Z"/>
  </g>
  <polygon class="cls-3" points="116.44 375 122.19 375 122.07 374.31 116.44 375"/>
  <g class="cls-2">
    <path class="cls-4" d="M122.92,377.44l-19-.61,0-.59L122.32,374Zm-15-1.08,14.33.46-.37-2.18Z"/>
    <path class="cls-10" d="M76.87,0S113.52,33.07,181,103.64c14.85,15.52,41.59,54,59,85.39,6.48,12.62,33.24,61.88,43.64,81.48s23.69,48.24,24.2,48.24a7.5,7.5,0,0,1,5.29,4.26c1.36,3.24-.35,7-.35,7s6.48,15.17,22.5,45H321.65c-28.57-63.76-58.31-119.53-76.37-153.75-6.07-11.52-10.63-20.92-13.63-26.93-5.63-11.93-37-60-60.85-84.89C151.19,88.47,59.66,0,59.66,0Z"/>
    <polygon class="cls-8" points="-2.33 173.65 -2.44 173.06 58.24 162.66 141.61 153.11 191.87 150.72 213.47 142.05 230.09 132.55 242.13 117.63 256.6 83.58 270.8 56.9 292.45 33.21 299.89 20.84 303.11 10 304.13 -1.56 304.73 -1.51 303.7 10.14 300.43 21.12 292.93 33.56 271.27 57.28 257.14 83.83 242.65 117.94 242.62 117.97 230.48 133.02 213.73 142.59 192 151.32 191.95 151.32 141.66 153.71 58.33 163.25 -2.33 173.65"/>
    <path class="cls-9" d="M151.64,196.07c.06,1-.18,1.55-.73,1.58s-.85-.52-.91-1.48.14-1.55.73-1.58.85.51.91,1.48Zm1.37,2.26c0-.28-.07-.55-.09-.83l-.36-5.92-1.19.08.11,1.83c0,.18.06.83.08.93h0a1.31,1.31,0,0,0-1.28-.66c-1.06.06-1.57,1.1-1.48,2.45.09,1.5.72,2.41,1.82,2.34a1.31,1.31,0,0,0,1.18-.86h0c0,.13.07.59.08.71Zm-6.28-1.52c0,.54-.18,1.2-.88,1.24a.62.62,0,0,1-.71-.65c0-.54.4-.89,1.21-.94.1,0,.31,0,.36,0Zm1.24,1.83a8.4,8.4,0,0,1-.09-.87l-.14-2.2c0-.72-.32-1.64-1.9-1.54a3.41,3.41,0,0,0-1.5.43l.12.93a2.1,2.1,0,0,1,1.24-.53c.71-.05.94.34,1,.77v.18l-.43,0c-1.6.1-2.25.74-2.19,1.71a1.31,1.31,0,0,0,1.46,1.33,1.6,1.6,0,0,0,1.3-.8h0c0,.11.08.52.09.63Zm-6.06-2c.06.92-.12,1.56-.75,1.6s-.89-.58-.94-1.5.11-1.56.75-1.6.88.59.94,1.5m1.24-.08c-.08-1.35-.78-2.36-2.23-2.27s-2,1.18-1.95,2.53.77,2.37,2.24,2.28,2-1.17,1.94-2.54m-6.39-1.75a.88.88,0,0,1-.88.94l-.56,0-.11-1.78.55,0a.84.84,0,0,1,1,.84m1.8,4.37-.87-2.2c-.23-.6-.44-.77-.82-.84v0a1.45,1.45,0,0,0,1.14-1.54c-.06-.88-.55-1.64-2-1.55l-2.06.12.39,6.28,1.24-.07-.16-2.65h.22c.43,0,.69.09.9.64l.71,1.92Zm-7.33.44-1.85-2.43,1.43-2.2-1.25.08-1.21,2-.24-4-1.2.07.41,6.75,1.2-.07-.14-2.28,1.49,2.2Zm-5-3.33-.06-1.09a.65.65,0,0,0-.14,0,1.23,1.23,0,0,0-1.2.91h0c0-.13,0-.65-.07-.75l-1.13.07c0,.27.08.67.11,1.17l.22,3.47,1.19-.07-.14-2.38c-.05-.81.3-1.32.85-1.35a1.5,1.5,0,0,1,.39,0m-4.67,2c0,.54-.18,1.19-.88,1.24a.62.62,0,0,1-.71-.65c0-.54.4-.89,1.21-.94.1,0,.3,0,.36,0Zm1.24,1.83a8.12,8.12,0,0,1-.1-.87l-.13-2.21c0-.71-.33-1.63-1.9-1.53a3.25,3.25,0,0,0-1.5.43l.12.93a2.08,2.08,0,0,1,1.24-.53c.71-.05.93.34,1,.77v.18l-.43,0c-1.61.09-2.25.74-2.19,1.71a1.31,1.31,0,0,0,1.46,1.33,1.63,1.63,0,0,0,1.3-.8h0a6.17,6.17,0,0,0,.09.62Zm-5.66-4a.92.92,0,0,1-1,1l-.37,0-.12-2,.35,0a.93.93,0,0,1,1.13,1m1.25-.11a1.8,1.8,0,0,0-2.19-1.8l-1.8.11.38,6.28,1.24-.08-.15-2.41.63,0a1.79,1.79,0,0,0,1.89-2.06m-6.88,4.76-.07-.85a1.16,1.16,0,0,1-.42.12c-.31,0-.51-.15-.54-.61l-.15-2.35.93-.06,0-.86-.93.05-.08-1.32-1.16.43,0,1-.77,0,0,.87.78-.05.16,2.63a1.13,1.13,0,0,0,1.35,1.16,3.16,3.16,0,0,0,.85-.17m-3.67.25-.2-3.24a1.32,1.32,0,0,0-1.48-1.4,1.29,1.29,0,0,0-1.19.9h0c0-.13-.06-.64-.07-.74l-1.13.07c0,.27.08.63.1,1l.23,3.67,1.19-.07-.16-2.66c0-.66.21-1.1.71-1.13s.62.23.65.82l.18,2.89Zm-6.06-2.34-1.61.1c0-.85.29-1.26.76-1.29s.8.32.85,1.11Zm1.16.66,0-.44c-.08-1.31-.78-2.27-2-2.19s-1.91,1.15-1.83,2.51.74,2.39,2.29,2.29a4.11,4.11,0,0,0,1.45-.36l-.09-.9a2.85,2.85,0,0,1-1.19.44c-.72,0-1.21-.29-1.29-1.19Zm-4.5-2.4-1.15.07-.5,3.59h0l-1-3.5-1.37.08L94,200.84h0l-1-3.5-1.23.08L93.28,202l1.33-.09.56-3.65h0l1,3.56,1.3-.08Zm-7.06,1.45-.06-1.09H91.2a1.23,1.23,0,0,0-1.2.91h0c0-.13-.06-.65-.07-.75l-1.13.07c0,.27.08.67.11,1.18l.22,3.46,1.19-.07-.14-2.38c0-.81.3-1.32.85-1.35a1.5,1.5,0,0,1,.39,0m-4.59,1.21-1.61.1c0-.86.29-1.27.76-1.29s.8.32.85,1.11Zm1.17.65,0-.43c-.08-1.31-.78-2.27-2-2.2s-1.91,1.16-1.83,2.52.73,2.38,2.29,2.29a4.33,4.33,0,0,0,1.45-.36l-.09-.91a2.86,2.86,0,0,1-1.19.45c-.72,0-1.21-.29-1.29-1.19Zm-6.09-.83c.08,1.42-.47,2.27-1.65,2.35l-.42,0-.27-4.37.31,0c1.23-.08,1.94.56,2,2m1.3-.1c-.12-1.91-1.24-3-3-2.91l-1.9.12.39,6.28,1.57-.09a2.86,2.86,0,0,0,3-3.4"/>
  </g>
  <g class="cls-2">
    <polygon class="cls-7" points="123.15 51.56 123.15 67.42 131.68 72.02 140.2 67.42 140.2 51.56 123.15 51.56"/>
    <path class="cls-11" d="M131,57.7v5.74c-1.38,0-1.66,0-1.78.12s-.13.22-.08,1.24h4.81c.35,0,.47,0,.56-.12s.14-.2.07-1.27l-1.81,0,.06-6.7c0-.51-.23-.71-.74-.71a6,6,0,0,0-1.56.37,3.82,3.82,0,0,0-1.21.53c-.15.14-.14.33.11,1Z"/>
    <path class="cls-9" d="M207.35,141l-.84-1.08-2.72.72h0l1.36-2.48-.87-1.12-1.87,3.84-1.94,1.51.76,1,1.94-1.51Zm-7.5-3.38-1-1.27,2.73-1.06h0Zm-.72,3,3.73-5.46-.84-1.09-6.26,2.2.74,1,1.46-.55,1.3,1.68-.92,1.24Zm1.1-8.86-.68-.87-4.31,2.2h0l3.22-3.63-.92-1.19-4.31,2.22h0l3.25-3.59-.75-1-4.17,4.89.89,1.15,4.63-2.39h0l-3.49,3.86.91,1.17Zm-10.49-3.26,5-3.85-.76-1-2,1.57-1.08-1.39,2-1.57-.76-1-5,3.86.76,1,2.17-1.68,1.08,1.39L189,127.53Zm-3.67-5.15,2.61-2-1.31-1.68-.73.57.59.75L186,122a1.63,1.63,0,0,1-.52-.44c-.66-.86-.35-1.9.77-2.78a1.94,1.94,0,0,1,2.93.18,3,3,0,0,1,.58,1.35l.87-.62a4.07,4.07,0,0,0-.73-1.39,3.24,3.24,0,0,0-5.13,4,4.48,4.48,0,0,0,1.33,1.16m-4.37-5.22,5-3.86-.76-1-5,3.86Zm-2.07-2.67,5-3.86-.76-1-2,1.56-1.08-1.39,2-1.56-.76-1-5,3.86.76,1,2.17-1.68L181,112.8l-2.17,1.68Zm-6.06-12.86a.87.87,0,0,1-1.29,0l-.39-.4,1.26-1.25.39.39a.84.84,0,0,1,0,1.3m-2.09,4.24,1.07-2.1c.3-.58.29-.84.09-1.17l0,0a1.43,1.43,0,0,0,1.9-.17,1.6,1.6,0,0,0-.15-2.52L173,99.41l-4.46,4.44.88.88,1.88-1.87.16.16a.79.79,0,0,1,.11,1.1l-1,1.8Zm-4.31-4.33.68-.68-1.62-1.62L167.51,99l1.45,1.46.69-.68-1.46-1.46,1.14-1.13,1.53,1.54.68-.68-2.39-2.41L164.69,100ZM163.62,99l.77-3.95L168,94.4l-1-1-3.1.64h0l1.87-1.87-.87-.88-4.46,4.44.87.88,2.09-2.07h0l-.81,3.35Zm-3.23-7.74c-1.12,1.12-2,1.28-2.56.73s-.17-1.61.72-2.5c1.12-1.11,2-1.27,2.57-.72s.16,1.61-.73,2.49m.91.91c1.52-1.51,1.46-3.08.48-4.06s-2.53-1.12-4.13.47-1.46,3.09-.48,4.07,2.53,1.12,4.13-.48m-5.71-5.73c-1.12,1.11-2,1.27-2.56.72s-.18-1.6.71-2.5c1.12-1.11,2-1.27,2.57-.72s.16,1.61-.72,2.5m.91.91c1.52-1.52,1.46-3.08.48-4.07s-2.54-1.11-4.14.48-1.45,3.09-.48,4.07,2.54,1.11,4.14-.48m-4.86-6.72a.86.86,0,0,1-1.29,0l-.39-.4,1.26-1.25.39.39a.83.83,0,0,1,0,1.29m-2.09,4.24,1.07-2.1c.3-.57.29-.84.09-1.17h0a1.44,1.44,0,0,0,1.91-.17,1.6,1.6,0,0,0-.16-2.52L151,77.39l-4.46,4.45.88.88,1.88-1.87.16.16a.77.77,0,0,1,.11,1.09l-1,1.81Zm-3.89-6.51a.88.88,0,0,1-1.36,0l-.4-.4,1.32-1.32.46.46a.85.85,0,0,1,0,1.31m1.85-2c-.43.42-.91.35-1.36-.12l-.29-.28,1.22-1.22.37.37a.82.82,0,0,1,.06,1.25m-1.06,2.92a1.42,1.42,0,0,0,.21-1.94h0a1.4,1.4,0,0,0,1.82-.25c.67-.66.67-1.51-.22-2.41l-1.41-1.41-4.46,4.44,1.39,1.39a1.74,1.74,0,0,0,2.66.19"/>
    <path class="cls-9" d="M298.59,37.18c.85.79,1.08,1.42.61,1.93s-1.13.34-2-.44-1.08-1.42-.61-1.93,1.13-.34,2,.44Zm2.23,1c-.28-.23-.53-.44-.64-.55l-4.36-4-.51.56,2,1.87v0a1.26,1.26,0,0,0-1.29.41c-.64.7-.51,1.69.66,2.77s2.17,1.13,2.82.43a1.31,1.31,0,0,0,.27-1.39h0l.51.44Zm-5,2.91a1.08,1.08,0,0,1,.13,1.58.72.72,0,0,1-1.12,0c-.39-.36-.41-1,.19-1.61a2.7,2.7,0,0,1,.38-.38Zm1.75.58c-.13-.1-.34-.27-.54-.45l-1.77-1.63a1.42,1.42,0,0,0-1.1-.47,1.76,1.76,0,0,0-1.15.61,2.52,2.52,0,0,0-.6,1.21l.58.42a1.65,1.65,0,0,1,.45-1.19.94.94,0,0,1,.73-.37,1.09,1.09,0,0,1,.66.38l.16.14-.3.32c-1.07,1.16-1,2-.33,2.65a1.22,1.22,0,0,0,1.87-.08,1.37,1.37,0,0,0,.37-1.41l0,0,.48.39Zm-5.19,2.24c.84.78,1.06,1.43.57,2s-1.16.38-2-.41-1.06-1.43-.57-2,1.16-.37,2,.41m.53-.58c-1.06-1-2.16-1.14-3-.25s-.57,2,.49,3,2.16,1.13,3,.24.57-2-.49-3m-5.51,2.58a1.06,1.06,0,0,1,0,1.61L287,48l-1.58-1.45.43-.47a1,1,0,0,1,1.55-.14m4.17,2.27-2.46-1.06a.8.8,0,0,0-.91.09h0a1.44,1.44,0,0,0-.26-1.94,1.63,1.63,0,0,0-1.2-.47,1.76,1.76,0,0,0-1.22.68l-1.09,1.19,4.63,4.27.53-.59-2.09-1.93.24-.26a.89.89,0,0,1,1.21-.25l2.06.91Zm-4.69,5.08-3.2-.27-.29-2.72-.6.65.29,2.41-2.95-2.72-.51.56,5,4.58.52-.56-1.73-1.59,2.87.35Zm-5.83.56-.55-.51a1.24,1.24,0,0,0-.31,1.5h0l-.55-.47-.5.55.76.64L282.58,58l.51-.56-1.79-1.65c-.74-.68-.83-1.32-.43-1.76a1.3,1.3,0,0,1,.22-.19m-1.21,4.61A1.08,1.08,0,0,1,280,60a.71.71,0,0,1-1.11,0c-.39-.36-.42-1,.19-1.62a3.2,3.2,0,0,1,.37-.37Zm1.75.58c-.13-.1-.34-.27-.54-.45l-1.76-1.63a1.42,1.42,0,0,0-1.1-.47,1.74,1.74,0,0,0-1.15.61,2.35,2.35,0,0,0-.6,1.21l.58.42a1.61,1.61,0,0,1,.44-1.19,1,1,0,0,1,.74-.37,1.14,1.14,0,0,1,.66.38l.15.14-.3.32c-1.07,1.16-1,2-.33,2.64a1.23,1.23,0,0,0,1.88-.07,1.4,1.4,0,0,0,.37-1.41v0l.49.39Zm-6.55,1.88c.63.31.88.83.44,1.69l-.19.39-2.11-1.06.2-.41a1.1,1.1,0,0,1,1.66-.61m.31-.78A1.8,1.8,0,0,0,274,60,1.84,1.84,0,0,0,273,61l-.68,1.35,5.63,2.83.35-.71-2.35-1.18.24-.48a1.76,1.76,0,0,0-.76-2.67m.95,8-.55-.28a1.08,1.08,0,0,1-.11.48c-.15.3-.39.33-.86.1l-2.42-1.22.42-.85-.55-.27-.42.84-1-.52-.14.78.84.42-.33.65.55.28.33-.66,2.64,1.33a.92.92,0,0,0,1.45-.46,2,2,0,0,0,.19-.62m-1.47,3L272,69.74a1.27,1.27,0,0,0-1.92.54,1.19,1.19,0,0,0,.15,1.37v0l-.62-.29-.33.66c.29.12.6.26.9.41l3.23,1.62.34-.68-2.48-1.24c-.74-.37-.94-.9-.67-1.43s.62-.54,1.27-.21l2.65,1.33Zm-4.7,3.46-.83,1.64c-.95-.49-1.08-1-.86-1.48s.83-.59,1.69-.16m.85-.42-.36-.18c-1.21-.61-2.21-.47-2.67.46s0,2,1.31,2.65,2.4.5,2.94-.59a3.1,3.1,0,0,0,.34-1.28L272,75a2,2,0,0,1-.13,1.11c-.38.75-1,.9-2,.42ZM267,76.69l-.34.68,3.05,2.49v0L265.81,79l-.41.81,3,2.5v0l-3.83-1-.36.71,4.66,1,.39-.77-3.08-2.54h0l3.91.88.39-.78Zm-2.32,6.14L264,82.5a1.23,1.23,0,0,0,.11,1.52h0l-.66-.29-.33.66c.25.1.6.26.9.41l3.22,1.62.34-.68-2.17-1.09c-.9-.45-1.16-1.05-.9-1.57a1.5,1.5,0,0,1,.15-.25M264,87l-.83,1.64c-.95-.5-1.08-1.05-.86-1.48s.83-.59,1.69-.16m.85-.42-.36-.18c-1.21-.61-2.21-.47-2.68.46s0,2,1.32,2.65,2.39.49,2.94-.59a3.14,3.14,0,0,0,.34-1.28l-.63-.27a2,2,0,0,1-.14,1.11c-.37.75-1,.9-2,.42Zm-3.41,4.17c1.45.73,2,1.8,1.35,3l-.22.43L258.14,92l.21-.42c.7-1.39,1.89-1.42,3.06-.83m.38-.74a3,3,0,0,0-2.85-.13,2.69,2.69,0,0,0-1.15,1.3l-.62,1.23,5.63,2.82.44-.88A2.91,2.91,0,0,0,261.79,90"/>
    <path class="cls-9" d="M153.08,270.7l.35-.5A1.29,1.29,0,0,1,153,270c-.27-.2-.27-.44,0-.87l1.57-2.21.77.55.36-.49-.77-.55.68-.95-.75-.26-.55.77-.59-.43-.36.5.6.42-1.72,2.41a.93.93,0,0,0,.23,1.51,2.28,2.28,0,0,0,.59.28m-1.67-3.25a2,2,0,0,0,0-2.24c-.43-.95-.41-1.25-.18-1.59a.93.93,0,0,1,1.35-.19,2.15,2.15,0,0,1,.71.86l.44-.62a3.26,3.26,0,0,0-.8-.83,1.57,1.57,0,0,0-2.34.27c-.48.66-.5,1.12,0,2.34.39.91.33,1.21,0,1.61a1,1,0,0,1-1.49.15,2.62,2.62,0,0,1-.74-1l-.48.66a3.13,3.13,0,0,0,.92,1,1.69,1.69,0,0,0,2.53-.39m-7.16-5.2c.07,1.15-.21,1.76-.91,1.8s-1-.54-1.1-1.69.22-1.77.91-1.8,1,.54,1.11,1.69Zm.92,2.25c0-.36-.07-.68-.08-.84l-.32-5.91-.76,0,.15,2.76h0a1.27,1.27,0,0,0-1.2-.61c-.95.06-1.54.86-1.46,2.45s.77,2.32,1.71,2.27a1.29,1.29,0,0,0,1.17-.8h0l.05.67Zm-4.44-3.68,0-.74a1.22,1.22,0,0,0-1.26.85h0l-.06-.72-.74,0c0,.27.07.66.09,1l.19,3.6.76,0-.13-2.43c-.06-1,.33-1.53.91-1.56h.29m-4,1.84c.07,1.15-.24,1.76-1,1.8s-1.08-.53-1.15-1.69.24-1.76,1-1.8,1.09.53,1.15,1.69m.79-.05c-.07-1.44-.75-2.32-2-2.25s-1.8,1-1.72,2.46.76,2.32,2,2.25,1.79-1,1.71-2.46M133.07,259l0-.65a2.83,2.83,0,0,0-.6,0c-.8.05-1.11.56-1.07,1.31l0,1-.73,0,0,.61.73,0,.21,4,.76,0-.22-4,.83-.05,0-.61-.83,0,0-1c0-.46.08-.7.51-.72a.73.73,0,0,1,.44.08m-2.71.15,0-.65a2.88,2.88,0,0,0-.6,0c-.8.05-1.12.56-1.08,1.31l.06,1-.73,0,0,.61.73,0,.22,4,.76-.05-.22-4,.83,0,0-.61-.83,0-.06-1c0-.46.09-.7.52-.73a.67.67,0,0,1,.43.09m-3.15,6.33-.25-4.59-.75,0,.25,4.59Zm-.24-6a.47.47,0,1,0-.93.05.47.47,0,0,0,.93-.05M125,265.6l-.37-6.75-.75,0,.37,6.75Zm-2.09,0,0-.79a2.39,2.39,0,0,1-1.11.36c-1.36.07-2.07-1-2.16-2.59a2.09,2.09,0,0,1,1.84-2.46,2.24,2.24,0,0,1,1.19.25l0-.77a2.91,2.91,0,0,0-1.2-.16c-1.64.09-2.72,1.38-2.61,3.35.09,1.7,1,3.17,3,3.06a3.89,3.89,0,0,0,1.14-.25"/>
  </g>
  <g class="cls-12">
    <path class="cls-13" d="M211.79,184.94a21.31,21.31,0,1,1-21.31-21.3,21.32,21.32,0,0,1,21.31,21.3"/>
    <path d="M174.21,193.52c0,.61.34.8,1,.8h1.4v-1.21h.89v1.21h5.78v1.09H177.5v1.06h-.89v-1.06h-1.49c-1.08,0-1.8-.49-1.8-1.65a3.85,3.85,0,0,1,.1-.87h.94a1.11,1.11,0,0,0-.15.63"/>
    <path d="M183.37,190.06c0,1.76-1.34,2.68-3.43,2.68s-3.42-.92-3.42-2.68,1.33-2.68,3.42-2.68,3.43.91,3.43,2.68m-6,0c0,1,.86,1.53,2.53,1.53s2.54-.49,2.54-1.53-.86-1.53-2.54-1.53-2.53.48-2.53,1.53"/>
    <path d="M183.37,183.92c0,1.76-1.34,2.67-3.43,2.67s-3.42-.91-3.42-2.67,1.33-2.68,3.42-2.68,3.43.91,3.43,2.68m-6,0c0,1,.86,1.52,2.53,1.52s2.54-.48,2.54-1.52-.86-1.53-2.54-1.53-2.53.48-2.53,1.53"/>
    <path d="M183.28,176.35l-1,0v0a1.9,1.9,0,0,1,1.07,1.75c0,1.38-1.13,2.3-3.43,2.3s-3.42-.92-3.42-2.3a1.85,1.85,0,0,1,1-1.7v0h-4v-1.1h8.57c.23,0,.7,0,1.23-.05Zm-5.87,1.54c0,1,.86,1.47,2.53,1.47s2.54-.46,2.54-1.47-.86-1.46-2.54-1.46-2.53.46-2.53,1.46"/>
    <path class="cls-11" d="M185,195.36v-2.27c5.21-6,7.8-10.06,7.8-12.79,0-1.86-1-3.44-3-3.44a7.05,7.05,0,0,0-3.95,1.58l-.32-2.58a11.7,11.7,0,0,1,4.82-1.24,5,5,0,0,1,5.18,5.18c0,3.59-3.2,8.88-7.65,13.32h7.95v2.24Z"/>
    <path d="M205.43,195.36l-.09-2.24h0a3.86,3.86,0,0,1-3.8,2.44c-2.61,0-4.38-1.5-4.38-4.79V180.36h2.47V190c0,2.39.88,3.42,2.47,3.42,1.94,0,3.18-1.36,3.18-4.06v-9h2.47v11.56c0,1.29,0,2.47.12,3.44Z"/>
  </g>
</svg>
