<?xml version="1.0" encoding="utf-8"?>
<svg version="1.1" id="Layer_1" xmlns="http://www.w3.org/2000/svg" xmlns:xlink="http://www.w3.org/1999/xlink" x="0px" y="0px" width="220px" height="226px"
	 viewBox="0 0 220 226" enable-background="new 0 0 220 226" xml:space="preserve">
<g>
	<path fill="none" stroke="#414042" stroke-width="5" stroke-linecap="round" d="M107.6,222.9C159.9,155,179.5,80.5,185.1,2.5"/>
	<path fill="none" stroke="#414042" stroke-width="5" stroke-linecap="round" d="M64.1,221.5c0,0,61.3-63.6,82.6-132.8"/>
	<path fill="none" stroke="#414042" stroke-width="5" stroke-linecap="round" d="M13.2,44.2c0,0,121.7,80.4,126.8,83.5
		c11.9,7.4,26.7,7.4,34.8,4.9c5.3-1.6,42.5-13.7,42.5-13.7"/>
	<g>
		<path fill-rule="evenodd" clip-rule="evenodd" fill="#FFFFFF" d="M142.6,71.6c3.8,14.1-4.6,28.5-18.6,32.3
			c-14,3.8-28.5-4.6-32.3-18.6c-3.8-14.1,4.6-28.5,18.6-32.3C124.4,49.2,138.9,57.6,142.6,71.6L142.6,71.6z"/>
		<g>
			<path d="M100.5,93.9c0.2,0.7,0.7,0.8,1.5,0.6l1.7-0.4l-0.4-1.4l1.1-0.3l0.4,1.4l6.9-1.8l0.3,1.3l-6.9,1.8l0.3,1.3l-1.1,0.3
				l-0.3-1.3l-1.8,0.5c-1.3,0.3-2.3,0-2.7-1.4c-0.1-0.4-0.1-0.7-0.2-1.1l1.1-0.3C100.4,93.3,100.4,93.6,100.5,93.9z"/>
			<path d="M110.3,86.8c0.6,2.1-0.7,3.6-3.2,4.3c-2.5,0.7-4.4,0-4.9-2.1c-0.6-2.1,0.7-3.6,3.2-4.3C107.8,84.1,109.7,84.7,110.3,86.8
				z M103.2,88.7c0.3,1.2,1.5,1.5,3.5,1c2-0.5,2.9-1.4,2.5-2.6c-0.3-1.2-1.5-1.6-3.5-1C103.7,86.6,102.8,87.5,103.2,88.7z"/>
			<path d="M108.3,79.5c0.6,2.1-0.7,3.6-3.2,4.3c-2.5,0.7-4.4,0-4.9-2.1c-0.6-2.1,0.7-3.6,3.2-4.3C105.9,76.7,107.8,77.4,108.3,79.5
				z M101.2,81.4c0.3,1.2,1.5,1.5,3.5,1c2-0.5,2.9-1.4,2.5-2.6c-0.3-1.2-1.5-1.6-3.5-1C101.8,79.3,100.9,80.2,101.2,81.4z"/>
			<path d="M105.8,70.5l-1.2,0.3l0,0c0.7,0.2,1.5,0.6,1.8,1.7c0.4,1.6-0.6,3.1-3.4,3.8c-2.7,0.7-4.4,0-4.8-1.7
				c-0.2-0.9,0-1.7,0.6-2.3l0,0l-4.8,1.3l-0.4-1.3l10.2-2.7c0.3-0.1,0.8-0.2,1.5-0.5L105.8,70.5z M99.3,74.2
				c0.3,1.2,1.5,1.5,3.5,0.9c2-0.5,2.9-1.4,2.6-2.6c-0.3-1.2-1.5-1.5-3.5-0.9C99.8,72.2,99,73,99.3,74.2z"/>
		</g>
		<path fill="#F1CB00" d="M113.9,92.7l-0.7-2.7c4.3-8.8,6.1-14.5,5.2-17.8c-0.6-2.2-2.3-3.8-4.7-3.1c-1.4,0.4-3.1,1.7-4.2,3.2
			l-1.2-3c1.8-1.6,3.9-2.6,5.4-3c3.8-1,6.9,1.2,7.8,4.5c1.2,4.3-1,11.6-4.9,18.4l9.5-2.5l0.7,2.7L113.9,92.7z"/>
		<path d="M138.3,86.1l-0.8-2.6l0,0c-0.4,2.3-1.7,3.6-3.7,4.1c-3.1,0.8-5.7-0.4-6.8-4.3l-3.3-12.4l3-0.8l3.1,11.6
			c0.8,2.8,2.1,3.8,4,3.3c2.3-0.6,3.4-2.6,2.5-5.9l-2.9-10.8l3-0.8l3.7,13.8c0.4,1.5,0.8,2.9,1.2,4.1L138.3,86.1z"/>
	</g>
	<g>
		<path fill="#414042" d="M1.7,68.7l-1.4-0.8l5.2-9l2,1.1c1.2,0.7,1.7,1.4,2,2c0.5,1,0.7,2.6-0.5,4.7C7.4,69.4,5,70.7,1.7,68.7z
			 M6.7,61L6,60.6l-4.1,7L2.6,68c2,1.1,3.8,0.4,5.1-1.9C8.8,64.2,8.9,62.2,6.7,61z"/>
		<path fill="#414042" d="M10.6,69.9c-0.9,1.5-0.7,2.6,0.5,3.3c0.5,0.3,1.3,0.4,1.8,0.3l-0.5,1c-0.7-0.1-1.4-0.3-2.1-0.7
			c-1.7-1-1.9-2.8-0.7-4.9c1.2-2.1,2.8-2.9,4.5-1.9c1.5,0.9,1.6,2.5,0.5,4.4l-0.3,0.6L10.6,69.9z M13.6,67.8
			c-0.7-0.4-1.6-0.2-2.5,1.3l2.6,1.5C14.5,69.3,14.4,68.3,13.6,67.8z"/>
		<path fill="#414042" d="M20.1,71.9c-0.8-0.5-1.8-0.1-2.7,1.3l-2,3.5L14.3,76l3-5.1c0.3-0.5,0.6-1,0.8-1.4l1.1,0.6l-0.6,1.1l0,0
			c0.8-0.6,1.5-0.6,2.5,0l-0.6,1.1C20.3,72,20.2,71.9,20.1,71.9z"/>
		<path fill="#414042" d="M24.8,82.1l-1.2-0.7l1.8-6.3l0,0l-4.5,4.8l-1.2-0.7l2.1-7.6l1.1,0.7L21,78.4l0,0l4.4-4.8l1.3,0.7l-1.9,6.2
			l0,0l4.4-4.8l1.1,0.6L24.8,82.1z"/>
		<path fill="#414042" d="M30.3,81.3c-0.9,1.5-0.7,2.6,0.5,3.3c0.5,0.3,1.3,0.4,1.8,0.3l-0.5,1c-0.7-0.1-1.4-0.3-2.1-0.7
			c-1.7-1-1.9-2.8-0.7-4.9c1.2-2.1,2.8-2.9,4.5-1.9c1.5,0.9,1.6,2.5,0.5,4.4L34,83.5L30.3,81.3z M33.3,79.2
			c-0.7-0.4-1.6-0.2-2.5,1.3l2.6,1.5C34.2,80.7,34.2,79.7,33.3,79.2z"/>
		<path fill="#414042" d="M37.6,89.5l2.4-4.2c0.6-1,0.5-1.7-0.2-2.1c-0.8-0.5-1.7-0.2-2.4,1l-2.3,4L34,87.4l3-5.1
			c0.3-0.5,0.5-1,0.8-1.4l1,0.6l-0.5,1l0,0c0.8-0.5,1.5-0.5,2.3-0.1c1.1,0.7,1.5,1.8,0.7,3.2l-2.6,4.6L37.6,89.5z"/>
		<path fill="#414042" d="M42.5,92.4c-1-0.6-1.3-1.3-0.6-2.4l2.4-4.2l-1-0.6l0.5-0.9l1,0.6l0.8-1.3l1.3,0.3l-1,1.7l1.4,0.8l-0.5,0.9
			l-1.4-0.8l-2.2,3.9c-0.4,0.7-0.4,1.1,0.1,1.4c0.3,0.2,0.5,0.2,0.8,0.2l-0.5,0.9C43.2,92.7,42.8,92.6,42.5,92.4z"/>
		<path fill="#414042" d="M52.4,93l-0.8-0.4l-2.2,3.8l-1.1-0.7l5.2-9l2.2,1.2c0.9,0.5,1.3,1.1,1.5,1.8c0.2,0.7,0.1,1.5-0.4,2.3
			C55.8,93.8,54.3,94.1,52.4,93z M54.8,88.6l-0.6-0.4l-1.9,3.4l0.6,0.4c1.4,0.8,2.3,0.4,2.8-0.6C56.3,90.2,55.9,89.3,54.8,88.6z"/>
		<path fill="#414042" d="M57.7,101.1l0.4-0.9l0,0c-0.6,0.3-1.4,0.5-2.4-0.1c-1.1-0.6-1.5-1.7-0.8-3c0.7-1.3,2.1-1.7,4.4-0.4
			l0.6,0.4l0.2-0.3c0.3-0.5,0.4-0.8,0.4-1.2c0-0.4-0.4-0.8-0.9-1c-0.7-0.4-1.5-0.5-2.1-0.3l0.5-1.1c0.7,0,1.5,0.2,2.2,0.5
			c1,0.6,1.3,1.3,1.4,1.6c0.1,0.4,0.2,1-0.4,1.9l-2,3.4c-0.2,0.4-0.4,0.8-0.5,1L57.7,101.1z M59.4,97.8c-0.2-0.1-0.4-0.3-0.7-0.5
			c-1.3-0.7-2.2-0.5-2.7,0.3c-0.4,0.7-0.3,1.4,0.4,1.8c0.9,0.5,2,0.1,2.5-0.8L59.4,97.8z"/>
		<path fill="#414042" d="M66.4,98.6c-0.8-0.5-1.8-0.1-2.7,1.3l-2,3.5l-1.1-0.6l3-5.2c0.3-0.5,0.6-1,0.8-1.4l1.1,0.6l-0.6,1.1l0,0
			c0.8-0.6,1.5-0.6,2.5,0l-0.6,1.1C66.7,98.8,66.6,98.7,66.4,98.6z"/>
		<path fill="#414042" d="M68.5,107.3l-0.5-4.7l-1.9,3.3l-1.1-0.6l5.6-9.7l1.1,0.6l-3.3,5.7l3.8-1.3l1.3,0.7l-4.3,1.4l0.7,5.2
			L68.5,107.3z"/>
		<path fill="#414042" d="M78.5,113.1l0.7-3.6c0.2-0.9,0-1.4-0.8-1.9l-0.5-0.3l-2.3,4.1l-1.1-0.7l5.2-9l2.3,1.3
			c1,0.6,1.3,1.1,1.5,1.7c0.2,0.7,0.1,1.4-0.3,2.1c-0.5,1-1.5,1.6-3,1.1l0,0c0.5,0.4,0.6,0.8,0.5,1.4l-0.8,4.3L78.5,113.1z
			 M81,103.8l-0.9-0.5l-1.8,3.1l0.9,0.5c1.2,0.7,2.1,0.2,2.6-0.6C82.4,105.3,82,104.4,81,103.8z"/>
		<path fill="#414042" d="M83.4,116.1c-1.7-1-1.9-2.8-0.7-4.9c1.2-2.1,2.8-2.9,4.6-1.8c1.7,1,1.9,2.8,0.7,4.9
			C86.8,116.3,85.1,117.1,83.4,116.1z M86.8,110.2c-1-0.6-2,0-2.9,1.6c-1,1.6-1,2.8,0.1,3.4c1,0.6,2,0,2.9-1.6
			C87.8,111.9,87.8,110.8,86.8,110.2z"/>
		<path fill="#414042" d="M91.4,120.5l0.4-0.9l0,0c-0.6,0.3-1.4,0.5-2.4-0.1c-1.1-0.6-1.5-1.7-0.8-3c0.7-1.3,2.1-1.7,4.4-0.4
			l0.6,0.4l0.2-0.3c0.3-0.5,0.4-0.8,0.4-1.2c0-0.4-0.4-0.8-0.9-1c-0.7-0.4-1.5-0.5-2.1-0.3l0.5-1.1c0.7,0,1.5,0.2,2.2,0.5
			c1,0.6,1.3,1.3,1.4,1.6c0.1,0.4,0.2,1-0.4,1.9l-2,3.4c-0.2,0.4-0.4,0.8-0.5,1L91.4,120.5z M93.1,117.3c-0.2-0.1-0.4-0.3-0.7-0.5
			c-1.3-0.7-2.2-0.5-2.7,0.3c-0.4,0.7-0.3,1.4,0.4,1.8c0.9,0.5,2,0.1,2.5-0.8L93.1,117.3z"/>
		<path fill="#414042" d="M98.1,124.4l0.5-1l0,0c-0.6,0.4-1.4,0.6-2.3,0.1c-1.4-0.8-1.6-2.4-0.3-4.7c1.3-2.3,2.9-2.8,4.2-2.1
			c0.7,0.4,1.1,1.1,1.1,1.9l0,0l2.3-4l1.1,0.6l-4.9,8.4c-0.1,0.2-0.4,0.7-0.6,1.2L98.1,124.4z M99.9,117.7c-1-0.6-1.9,0-2.9,1.7
			c-1,1.6-1,2.8,0,3.3c1,0.6,1.9,0,2.9-1.7C100.8,119.4,100.9,118.3,99.9,117.7z"/>
	</g>
	<g>
		<path fill="#414042" d="M160,200.5l-1,2.3l-9.4-4.3l1.1-2.4c0.8-1.8,2.2-2.2,3.6-1.5c1,0.5,1.5,1.4,1.4,2.5l0,0
			c0.6-1,1.8-1.3,3.1-0.7C160.1,197,160.9,198.4,160,200.5z M151.4,196.8l-0.4,0.9l3.1,1.4l0.3-0.7c0.6-1.3,0.3-2.2-0.7-2.7
			C152.9,195.4,152,195.5,151.4,196.8z M155.6,198.4l-0.5,1.1l3.4,1.6l0.5-1c0.6-1.3,0-2.2-0.9-2.6
			C157.1,197.1,156.2,197.3,155.6,198.4z"/>
		<path fill="#414042" d="M164.7,190l-3.7-0.3c-0.9-0.1-1.4,0.1-1.8,1l-0.2,0.5l4.3,1.9l-0.5,1.2l-9.5-4.2l1.1-2.4
			c0.4-1,0.9-1.5,1.5-1.7c0.7-0.3,1.4-0.2,2.1,0.1c1,0.4,1.8,1.3,1.4,2.9l0,0c0.4-0.5,0.8-0.7,1.4-0.6l4.4,0.3L164.7,190z
			 M155.2,188.4l-0.4,1l3.2,1.4l0.4-0.9c0.6-1.3-0.1-2.1-0.9-2.5C156.5,186.9,155.7,187.4,155.2,188.4z"/>
		<path fill="#414042" d="M167.9,182.8c-0.9,2.1-3.3,2.7-6.3,1.4c-3.3-1.4-4.4-3.4-3.4-5.7c0.9-2.1,3.3-2.7,6.3-1.4
			C167.8,178.5,168.9,180.5,167.9,182.8z M159.2,178.9c-0.5,1.3,0.1,2.8,3,4c1.9,0.8,4,1,4.7-0.6c0.5-1.3-0.1-2.8-3-4
			C162,177.5,159.9,177.3,159.2,178.9z"/>
		<path fill="#414042" d="M172,172.9c-0.9,2.1-3.3,2.8-6.2,1.5c-3.3-1.4-4.5-3.4-3.5-5.6c0.9-2.1,3.3-2.8,6.2-1.5
			C171.8,168.6,172.9,170.6,172,172.9z M163.2,169.2c-0.5,1.3,0.1,2.8,3.1,4c1.9,0.8,4.1,0.9,4.7-0.7c0.5-1.3-0.1-2.8-3.1-4
			C166,167.7,163.9,167.6,163.2,169.2z"/>
		<path fill="#414042" d="M176.4,161.5l-6,1.6l0,0l4.7,1.8l-0.5,1.2l-9.7-3.8l0.5-1.2l4.2,1.6l0,0l-3-4.8l0.6-1.5l3.2,5.4l6.6-2
			L176.4,161.5z"/>
		<path fill="#414042" d="M178,157.4l-9.7-3.6l1.7-4.5l1.1,0.4l-1.2,3.3l3.1,1.2l1.2-3.1l1.1,0.4l-1.2,3.1l3.5,1.3l1.3-3.5l1.1,0.4
			L178,157.4z"/>
		<path fill="#414042" d="M182.5,145.1l-3.7-0.1c-0.9,0-1.3,0.2-1.7,1.2l-0.2,0.6l4.4,1.6l-0.4,1.2l-9.8-3.5l0.9-2.5
			c0.4-1,0.8-1.5,1.4-1.8c0.7-0.3,1.4-0.3,2.1-0.1c1,0.4,1.9,1.2,1.6,2.8l0,0c0.3-0.5,0.7-0.7,1.3-0.7l4.4,0L182.5,145.1z
			 M173,144.2l-0.4,1l3.3,1.2l0.3-1c0.5-1.3-0.2-2.1-1.1-2.4C174.1,142.6,173.4,143.1,173,144.2z"/>
		<path fill="#414042" d="M192.8,113.4l-4.6-1.4l-1,3.5l4.6,1.4l-0.4,1.3l-10-2.9l0.4-1.3l4.3,1.2l1-3.5l-4.3-1.2l0.4-1.3l10,2.9
			L192.8,113.4z"/>
		<path fill="#414042" d="M194.2,108.4l-10-2.8l0.3-1.3l10,2.8L194.2,108.4z"/>
		<path fill="#414042" d="M196.8,99.2c-0.8,3.2-3.6,3.9-6.3,3.2c-3.1-0.8-4.7-3.1-4-5.8c0.2-0.9,0.5-1.6,1-2.3l1.3,0.3
			c-0.6,0.7-1,1.5-1.2,2.2c-0.4,1.6,0.5,3.5,3,4.1c2.6,0.7,4.6,0.1,5.1-2.1c0.1-0.4,0.1-0.9,0-1.3l-3.2-0.8l-0.4,1.7l-1.1-0.3
			l0.7-2.9l5.1,1.3C197,97.3,197,98.3,196.8,99.2z"/>
		<path fill="#414042" d="M199.3,88.3l-4.7-1.1l-0.8,3.5l4.7,1.1l-0.3,1.3l-10.1-2.3l0.3-1.3l4.3,1l0.8-3.5l-4.3-1l0.3-1.3l10.1,2.3
			L199.3,88.3z"/>
		<path fill="#414042" d="M201.9,75.1l-0.3,1.5l-9.1,0.3l0,0l8.4,3.6l-0.3,1.5L190,82.3l0.2-1.3l8.6-0.1l0,0l-7.9-3.4l0.3-1.6
			l8.6-0.3l0,0l-7.9-3.3l0.2-1.2L201.9,75.1z"/>
		<path fill="#414042" d="M203.5,64.5l-2.8,0.4l-0.6,3.9l2.6,1.2l-0.2,1.3l-9.8-4.9l0.2-1.4l10.8-1.9L203.5,64.5z M194.2,66
			L194.2,66l4.9,2.4l0.5-3.2L194.2,66z"/>
		<path fill="#414042" d="M200,57.4l4.3,0.4l-0.1,1.3l-4.3-0.4l-6.3,2.5l0.2-1.5l4.8-1.8l-4.3-2.8l0.1-1.4L200,57.4z"/>
	</g>
</g>
<g>
	<path fill="#414042" d="M61.8,207.6c-2.1,2.5-4.9,1.9-7.1,0.1c-2.5-2.1-2.8-4.9-1-6.9c0.5-0.6,1.1-1,1.6-1.2l1,0.8
		c-0.6,0.2-1.2,0.6-1.7,1.1c-1.1,1.3-1.1,3.3,0.8,5c2,1.7,4.1,2.1,5.5,0.4c0.4-0.5,0.7-1.1,0.8-1.7l1,0.9
		C62.6,206.5,62.2,207.1,61.8,207.6z"/>
	<path fill="#414042" d="M62.4,201.5c1.3,1.1,2.4,1.1,3.3,0.1c0.4-0.5,0.6-1.2,0.6-1.7l0.9,0.7c-0.2,0.6-0.5,1.3-1,1.9
		c-1.3,1.5-3.1,1.4-4.9-0.2c-1.8-1.5-2.3-3.3-1.1-4.7c1.1-1.3,2.8-1.2,4.5,0.3l0.5,0.4L62.4,201.5z M60.8,198.2
		c-0.5,0.6-0.5,1.5,0.8,2.7l1.9-2.3C62.4,197.5,61.5,197.4,60.8,198.2z"/>
	<path fill="#414042" d="M71.6,195.7l-3.8-3.1c-0.9-0.8-1.6-0.7-2.1-0.1c-0.6,0.8-0.5,1.7,0.6,2.5l3.5,2.9l-0.8,1l-4.6-3.8
		c-0.4-0.3-0.9-0.7-1.3-1l0.8-0.9l0.9,0.7l0,0c-0.4-0.9-0.3-1.6,0.3-2.3c0.8-1,2-1.2,3.3-0.2l4.1,3.3L71.6,195.7z"/>
	<path fill="#414042" d="M75.3,191.3c-0.7,0.9-1.5,1.1-2.5,0.2l-3.8-3.1l-0.8,0.9l-0.8-0.6l0.8-0.9l-1.2-1l0.5-1.2l1.5,1.2l1-1.2
		l0.8,0.6l-1,1.2l3.5,2.8c0.7,0.5,1.1,0.6,1.4,0.1c0.2-0.2,0.3-0.5,0.3-0.7l0.8,0.6C75.7,190.7,75.5,191.1,75.3,191.3z"/>
	<path fill="#414042" d="M73.7,182.8c-0.6,0.8-0.4,1.8,0.9,2.8l3.2,2.5l-0.8,1l-4.7-3.7c-0.4-0.3-1-0.7-1.3-1l0.8-1l1,0.7l0,0
		c-0.5-0.9-0.4-1.6,0.3-2.5l1,0.8C73.9,182.5,73.8,182.6,73.7,182.8z"/>
	<path fill="#414042" d="M82.3,182.3l-0.9-0.6l0,0c0.2,0.6,0.3,1.5-0.4,2.4c-0.8,1-1.9,1.3-3.1,0.4c-1.2-0.9-1.4-2.3,0.2-4.4
		l0.4-0.6l-0.3-0.2c-0.4-0.3-0.7-0.5-1.1-0.5c-0.4,0-0.8,0.3-1.1,0.7c-0.5,0.6-0.7,1.4-0.6,2l-1-0.6c0.1-0.7,0.4-1.5,0.8-2.1
		c0.7-0.9,1.5-1.1,1.8-1.2c0.5-0.1,1,0,1.9,0.6l3.1,2.4c0.4,0.3,0.7,0.5,1,0.7L82.3,182.3z M79.3,180.1c-0.2,0.2-0.4,0.4-0.6,0.7
		c-0.9,1.2-0.8,2.1-0.1,2.7c0.6,0.5,1.3,0.5,1.8-0.2c0.7-0.9,0.4-1.9-0.4-2.6L79.3,180.1z"/>
	<path fill="#414042" d="M84.4,179.5l-8.9-6.7l0.8-1l8.9,6.7L84.4,179.5z"/>
	<path fill="#414042" d="M92.3,168.8l-2.7-0.9l-2.3,3.2l1.7,2.3l-0.8,1.1l-6.3-8.9l0.8-1.2l10.4,3.4L92.3,168.8z M83.4,165.7
		L83.4,165.7l3.2,4.4l1.9-2.6L83.4,165.7z"/>
	<path fill="#414042" d="M95.5,164.4l-0.9,1.2l-7.5-2.5l0.8-1.1l6.1,2.3l0,0l-4.2-5l0.8-1.1L95.5,164.4z"/>
	<path fill="#414042" d="M95.4,158.5c1.5,1,2.5,0.9,3.3-0.3c0.4-0.5,0.5-1.3,0.5-1.8l1,0.6c-0.1,0.7-0.4,1.4-0.8,2
		c-1.1,1.7-3,1.7-4.9,0.3c-2-1.3-2.6-3-1.6-4.6c1-1.4,2.6-1.4,4.5-0.2l0.6,0.4L95.4,158.5z M93.5,155.4c-0.4,0.7-0.4,1.6,1.1,2.6
		l1.7-2.5C95,154.6,94,154.6,93.5,155.4z"/>
	<path fill="#414042" d="M103.9,151.8l-4.1-2.7c-1-0.7-1.7-0.6-2.1,0.1c-0.5,0.8-0.3,1.7,0.9,2.5l3.8,2.5l-0.7,1l-5-3.2
		c-0.5-0.3-1-0.6-1.4-0.8l0.7-1l1,0.6l0,0c-0.5-0.8-0.5-1.5,0-2.3c0.7-1.1,1.8-1.4,3.2-0.5l4.4,2.9L103.9,151.8z"/>
	<path fill="#414042" d="M108,145.3l-1-0.6l0,0c0.5,0.8,0.5,1.5,0.1,2.3c-0.7,1.1-1.8,1.5-3.2,0.6l-4.5-2.7l0.7-1.1l4.2,2.6
		c1,0.6,1.7,0.5,2.1-0.2c0.5-0.8,0.3-1.7-0.9-2.4l-3.9-2.4l0.7-1.1l5,3.1c0.6,0.3,1.1,0.6,1.5,0.9L108,145.3z"/>
	<path fill="#414042" d="M107.3,139.7c1.5,0.9,2.6,0.7,3.3-0.5c0.3-0.5,0.4-1.3,0.3-1.8l1,0.5c0,0.7-0.3,1.4-0.7,2.1
		c-1,1.7-2.8,1.9-4.9,0.7c-2.1-1.2-2.9-2.8-1.9-4.5c0.8-1.5,2.5-1.6,4.4-0.5l0.6,0.3L107.3,139.7z M105.2,136.7
		c-0.4,0.7-0.2,1.6,1.3,2.5l1.5-2.6C106.6,135.8,105.7,135.9,105.2,136.7z"/>
</g>
</svg>
