<?xml version="1.0" encoding="utf-8"?>
<!DOCTYPE svg PUBLIC "-//W3C//DTD SVG 1.1//EN" "http://www.w3.org/Graphics/SVG/1.1/DTD/svg11.dtd">
<svg version="1.1" id="Layer_1" xmlns="http://www.w3.org/2000/svg" xmlns:xlink="http://www.w3.org/1999/xlink" x="0px" y="0px" width="34px" height="34px"
	 viewBox="0 0 34 34" enable-background="new 0 0 34 34" xml:space="preserve">
<g>
	<g>
		<defs>
			<polygon id="SVGID_1_" points="12.4,0 6.7,3.3 0,7.2 0,21.5 4.1,28.5 7.2,34 21.2,34 34,26.6 34,12.7 32.8,10.5 26.7,0 			"/>
		</defs>
		<clipPath id="SVGID_2_">
			<use xlink:href="#SVGID_1_"  overflow="visible"/>
		</clipPath>
		<path clip-path="url(#SVGID_2_)" fill-rule="evenodd" clip-rule="evenodd" fill="#FFDF00" d="M31.6,8.5c4.7,8.1,1.9,18.4-6.2,23.1
			c-8.1,4.7-18.4,1.9-23.1-6.2C-2.4,17.3,0.4,6.9,8.5,2.3C16.5-2.4,26.9,0.4,31.6,8.5"/>
		<path clip-path="url(#SVGID_2_)" d="M9.1,29.3c0.2,0.4,0.6,0.4,1,0.1l1-0.6L10.6,28l0.6-0.4l0.5,0.8l4-2.3l0.4,0.8l-4,2.3l0.4,0.7
			L12,30.4l-0.4-0.7l-1,0.6c-0.7,0.4-1.4,0.4-1.9-0.4c-0.1-0.2-0.2-0.4-0.3-0.6L9,28.8C9,28.9,9,29.1,9.1,29.3"/>
		<path clip-path="url(#SVGID_2_)" d="M14.1,23.3c0.7,1.2,0.1,2.4-1.3,3.2c-1.4,0.8-2.7,0.7-3.4-0.5c-0.7-1.2-0.1-2.4,1.3-3.2
			C12.1,21.9,13.4,22.1,14.1,23.3 M10,25.6c0.4,0.7,1.2,0.7,2.4,0c1.1-0.7,1.6-1.3,1.1-2.1c-0.4-0.7-1.2-0.7-2.4,0S9.5,24.9,10,25.6
			"/>
		<path clip-path="url(#SVGID_2_)" d="M11.6,19c0.7,1.2,0.1,2.4-1.3,3.2c-1.4,0.8-2.7,0.7-3.4-0.5c-0.7-1.2-0.1-2.4,1.3-3.2
			C9.6,17.7,10.9,17.8,11.6,19 M7.5,21.4c0.4,0.7,1.2,0.7,2.4,0c1.1-0.7,1.6-1.3,1.1-2.1c-0.4-0.7-1.2-0.7-2.4,0
			C7.5,20,7.1,20.7,7.5,21.4"/>
		<path clip-path="url(#SVGID_2_)" d="M8.6,13.9l-0.7,0.4l0,0c0.5,0,1,0.1,1.4,0.8c0.5,0.9,0.1,2-1.4,2.9c-1.6,0.9-2.7,0.7-3.3-0.2
			c-0.3-0.5-0.3-1,0-1.6l0,0l-2.8,1.6l-0.4-0.8l5.9-3.4c0.2-0.1,0.5-0.3,0.8-0.5L8.6,13.9z M5.1,17.3c0.4,0.7,1.2,0.7,2.3,0
			c1.1-0.7,1.6-1.3,1.2-2c-0.4-0.7-1.2-0.7-2.3,0S4.7,16.6,5.1,17.3"/>
		<path clip-path="url(#SVGID_2_)" fill="#FFFFFF" d="M17.3,26.3l-0.9-1.6c1.2-6.2,1.4-10,0.3-11.9c-0.7-1.3-2.1-2-3.4-1.2
			c-0.8,0.5-1.6,1.5-2.1,2.7l-1.3-1.7c0.9-1.3,2-2.3,2.8-2.8c2.2-1.3,4.5-0.4,5.6,1.5c1.4,2.5,1.3,7.4,0,12.2l5.5-3.2l0.9,1.5
			L17.3,26.3z"/>
		<path clip-path="url(#SVGID_2_)" d="M31.3,18.2l-0.9-1.5l0,0c0.1,1.5-0.4,2.5-1.6,3.2c-1.8,1-3.6,0.7-4.9-1.6l-4.1-7.2l1.7-1
			l3.8,6.7c0.9,1.6,2,2,3.1,1.4c1.3-0.8,1.6-2.2,0.6-4.1l-3.6-6.2l1.7-1l4.6,8c0.5,0.9,1,1.7,1.4,2.3L31.3,18.2z"/>
	</g>
</g>
</svg>
